<?xml version="1.0" encoding="utf-8"?>
<!-- Generator: Adobe Illustrator 21.0.0, SVG Export Plug-In . SVG Version: 6.00 Build 0)  -->
<svg version="1.1" id="Layer_1" xmlns="http://www.w3.org/2000/svg" xmlns:xlink="http://www.w3.org/1999/xlink" x="0px" y="0px"
	 viewBox="0 0 25 25" style="enable-background:new 0 0 25 25;" xml:space="preserve">
<style type="text/css">
	.st0{fill:#024C67;}
	.st1{fill:#017296;}
	.st2{fill:#FFFFFF;}
	.st3{fill:#FDED32;}
	.st4{fill:#FC9302;}
	.st5{fill:#FDBF43;}
</style>
<g>
	<path class="st0" d="M23.4,4.3l-1.4,1.4c-0.2,0.2-0.5,0.2-0.6,0l-2-2c-0.2-0.2-0.2-0.5,0-0.6l1.4-1.4c0.2-0.2,0.5-0.2,0.6,0l2,2
		C23.6,3.9,23.6,4.1,23.4,4.3z"/>
	<g>
		<path class="st1" d="M24.6,12.6c0,6.7-5.4,12-12,12s-12.1-5.3-12.1-12s5.4-12,12.1-12S24.6,6,24.6,12.6z"/>
		<path class="st2" d="M13.3,8.1V7.5c0,0,0-0.1,0.1-0.1H19c0,0,0.1,0,0.1,0.1v0.5c0,0,0,0.1-0.1,0.1L13.3,8.1
			C13.3,8.2,13.3,8.1,13.3,8.1z M20.4,17.8h-7.1c0,0-0.1,0-0.1,0.1v0.5c0,0,0,0.1,0.1,0.1h7.1c0,0,0.1,0,0.1-0.1L20.4,17.8
			C20.5,17.8,20.5,17.8,20.4,17.8z M13.4,17.1H19c0,0,0.1,0,0.1-0.1v-0.5c0,0,0-0.1-0.1-0.1h-5.6c0,0-0.1,0-0.1,0.1L13.4,17.1
			C13.3,17.1,13.3,17.1,13.4,17.1z M20.4,15h-7.1c0,0-0.1,0-0.1,0.1v0.5c0,0,0,0.1,0.1,0.1h7.1c0,0,0.1,0,0.1-0.1L20.4,15
			C20.5,15,20.5,15,20.4,15z M20.4,8.8h-7.1c0,0-0.1,0-0.1,0.1v0.5c0,0,0,0.1,0.1,0.1h7.1c0,0,0.1,0,0.1-0.1L20.4,8.8
			C20.5,8.9,20.5,8.8,20.4,8.8z M20.4,6h-7.1c0,0-0.1,0-0.1,0.1v0.5c0,0,0,0.1,0.1,0.1h7.1c0,0,0.1,0,0.1-0.1L20.4,6
			C20.5,6.1,20.5,6,20.4,6z"/>
		<path class="st2" d="M7.5,13.7c-1.9,0-3.4,1.6-3.4,3.4c0.1,1.8,1.6,3.3,3.4,3.3s3.4-1.6,3.4-3.4C11,15.2,9.4,13.7,7.5,13.7z
			 M7.5,19.8c-1.5,0-2.7-1.3-2.7-2.7s1.3-2.7,2.7-2.7s2.7,1.3,2.7,2.7C10.3,18.6,9.1,19.8,7.5,19.8z M7.5,11.5
			c1.9,0,3.4-1.6,3.4-3.4S9.4,4.7,7.5,4.7S4.2,6.2,4.2,8.2S5.7,11.5,7.5,11.5z M7.5,5.5c1.5,0,2.7,1.3,2.7,2.7S9,10.9,7.5,10.9
			S4.8,9.6,4.8,8.2S6.1,5.5,7.5,5.5z"/>
		<path class="st3" d="M12.6,4.9L7.7,9.7c0,0.1-0.2,0.1-0.2,0L5.4,7.6V7.5L6,6.9h0.1l1.5,1.5h0.1l4.1-4.1h0.1l0.7,0.5
			C12.7,4.8,12.7,4.9,12.6,4.9z M7.1,16.6c-0.2,0.2-0.3,0.4-0.3,0.6v0.8c0,0,0,0.1,0.1,0.1h0.8c0.2,0,0.5-0.1,0.6-0.3l1-1l-1.4-1.4
			L7.1,16.6z"/>
		<path class="st4" d="M23.1,4.6L11.6,16.1c-0.1,0.1-0.3,0.2-0.5,0.2l-1.4,0.3c-0.2,0-0.5,0-0.6-0.2l-0.5-0.5
			c-0.2-0.2-0.2-0.4-0.2-0.6l0.3-1.4c0-0.2,0.1-0.3,0.2-0.5L20.4,1.9L23.1,4.6z"/>
		<path class="st5" d="M23.1,4.6L11.6,16.1c-0.1,0.1-0.3,0.2-0.5,0.2l-1.4,0.3c-0.2,0-0.5,0-0.6-0.2l0.3-1.7c0-0.2,0.1-0.3,0.2-0.5
			L21.1,2.7L23.1,4.6z"/>
		<path class="st0" d="M11.6,16.2L10.9,17c-0.4,0.4-0.9,0.4-1.4,0l-0.7,0.6l-1.4-1.4l0.6-0.6c-0.4-0.4-0.4-0.9,0-1.4l0.7-0.7
			L11.6,16.2z"/>
	</g>
</g>
</svg>
