<?xml version="1.0" encoding="utf-8"?>
<!-- Generator: Adobe Illustrator 19.2.1, SVG Export Plug-In . SVG Version: 6.00 Build 0)  -->
<svg version="1.1" id="Layer_1" xmlns="http://www.w3.org/2000/svg" xmlns:xlink="http://www.w3.org/1999/xlink" x="0px" y="0px"
	 viewBox="0 0 25 25" style="enable-background:new 0 0 25 25;" xml:space="preserve">
<style type="text/css">
	.st0{fill:#FDFDFD;}
	.st1{fill:#FF0000;}
</style>
<path class="st0" d="M12.5,2.6c5.7-0.1,10.6,4.8,10.2,10.9c-0.4,5.5-4.4,9.2-9.3,9.6C6.4,23.5,2,18,2.2,12.3C2.5,7,6.8,2.5,12.5,2.6
	z M14.5,9.1L14.5,9.1c0-0.8,0-1.6,0-2.5c0-0.4-0.1-0.6-0.5-0.6c-1,0-1.9,0-2.9,0c-0.5,0-0.6,0.2-0.6,0.6c0,0.7,0,1.3,0,2
	c0,0.4-0.1,0.6-0.5,0.3C9.4,8.6,8.8,8.4,8.3,8C7.9,7.8,7.6,7.8,7.3,8.2c-0.5,0.8-1,1.6-1.4,2.4c-0.2,0.3-0.2,0.7,0.3,0.9
	c0.6,0.3,1.1,0.6,1.7,1c0.4,0.3,0.5,0.5,0,0.8c-0.6,0.3-1.1,0.7-1.7,1c-0.4,0.2-0.4,0.5-0.2,0.8c0.5,0.8,1,1.6,1.4,2.5
	c0.2,0.4,0.5,0.4,0.9,0.2c0.5-0.3,1.1-0.6,1.6-0.9c0.5-0.3,0.8-0.4,0.7,0.4c0,0.6,0,1.2,0,1.8c0,0.5,0.2,0.7,0.7,0.7
	c0.9,0,1.8,0,2.7,0c0.5,0,0.6-0.2,0.6-0.7c0-0.7,0-1.3,0-2c0-0.6,0.2-0.6,0.6-0.3c0.5,0.3,1.1,0.6,1.6,0.9c0.4,0.3,0.7,0.2,0.9-0.2
	c0.5-0.8,1-1.6,1.4-2.5c0.2-0.3,0.2-0.6-0.2-0.8c-0.6-0.3-1.1-0.7-1.7-1c-0.6-0.3-0.4-0.5,0-0.8c0.5-0.3,1.1-0.7,1.6-0.9
	c0.5-0.2,0.5-0.5,0.3-0.9c-0.4-0.7-0.9-1.4-1.3-2.2c-0.3-0.6-0.7-0.6-1.2-0.3C15.9,8.4,15.3,9,14.5,9.1z"/>
<g>
	<path class="st1" d="M12.5,1.3C6.3,1.1,0.6,6.4,0.9,13.4c0.3,6,4.9,10.9,11.4,11c6.6,0.1,11.6-5,11.7-11.6
		C24.2,6.6,18.9,1.1,12.5,1.3z M13.5,23C6.4,23.5,2,18,2.2,12.3C2.5,7,6.8,2.5,12.5,2.6c5.7-0.1,10.6,4.8,10.2,10.9
		C22.4,18.9,18.3,22.7,13.5,23z"/>
	<path class="st1" d="M12.7,12.6c0,0.5,0,1,0,1.6C13.2,13.6,13.6,13.1,12.7,12.6z"/>
	<path class="st1" d="M11.9,11.5c0-0.5,0-1,0-1.6C11,10.5,11.4,11,11.9,11.5z"/>
	<path class="st1" d="M12.1,16.2c0-0.3,0-0.5,0-0.7C11.6,15.7,11.9,15.9,12.1,16.2z"/>
	<path class="st1" d="M18.9,14.2c-0.6-0.3-1.1-0.7-1.7-1c-0.6-0.3-0.4-0.5,0-0.8c0.5-0.3,1.1-0.7,1.6-0.9c0.5-0.2,0.5-0.5,0.3-0.9
		c-0.4-0.7-0.9-1.4-1.3-2.2c-0.3-0.6-0.7-0.6-1.2-0.3c-0.7,0.4-1.2,0.9-2,1c0-0.8-0.1-1.6,0-2.5c0-0.4-0.1-0.6-0.5-0.6
		c-1,0-1.9,0-2.9,0c-0.5,0-0.6,0.2-0.6,0.6c0,0.7,0,1.3,0,2c0,0.4-0.1,0.6-0.5,0.3C9.4,8.6,8.8,8.4,8.3,8C7.9,7.8,7.6,7.8,7.3,8.2
		c-0.5,0.8-1,1.6-1.4,2.4c-0.2,0.3-0.2,0.7,0.3,0.9c0.6,0.3,1.1,0.6,1.7,1c0.4,0.3,0.5,0.5,0,0.8c-0.6,0.3-1.1,0.7-1.7,1
		c-0.4,0.2-0.4,0.5-0.2,0.8c0.5,0.8,1,1.6,1.4,2.5c0.2,0.4,0.5,0.4,0.9,0.2c0.5-0.3,1.1-0.6,1.6-0.9c0.5-0.3,0.8-0.4,0.7,0.4
		c0,0.6,0,1.2,0,1.8c0,0.5,0.2,0.7,0.7,0.7c0.9,0,1.8,0,2.7,0c0.5,0,0.6-0.2,0.6-0.7c0-0.7,0-1.3,0-2c0-0.6,0.2-0.6,0.6-0.3
		c0.5,0.3,1.1,0.6,1.6,0.9c0.4,0.3,0.7,0.2,0.9-0.2c0.5-0.8,1-1.6,1.4-2.5C19.3,14.6,19.3,14.4,18.9,14.2z M14.3,9.4
		c-0.3,0.8-1,0.7-1.6,0.5c0,0.4,0,0.7-0.1,1c0,0.6-0.1,1.2,0.6,1.5c0.6,0.3,0.5,1,0.2,1.5c-0.1,0.2-0.4,0.3-0.4,0.5
		c-0.3,0.4-0.4,0.6-0.5,1c0,0.3-0.1,0.8,0.4,1.2c0.6,0.5,0.3,1.4-0.4,1.8c-0.2,0.1-0.5,0.2-0.7,0.3c-0.2,0-0.4,0.3-0.5,0
		c-0.1-0.2,0.2-0.3,0.3-0.4c0.7-0.5,0.7-1.3,0-1.9C11.1,16,11,15.5,11.5,15c0.4-0.4,0.6-0.5,0.5-1.6c0,0,0-0.2,0-0.4s0.1-0.6-0.4-1
		c-1.3-0.8-1.1-1.9,0.1-2.7c0.2-0.1,0.5-0.2,0.2-0.6c-0.2-0.3-0.2-0.7-0.2-1c0-0.3,0.1-0.6,0.5-0.7c0.3-0.1,0.6,0,0.7,0.2
		C13,7.4,13.2,7.6,13,8c-0.2,0.3-0.2,0.6-0.3,0.9C13.4,8.8,13.9,9,14.3,9.4C14.3,9.4,14.3,9.4,14.3,9.4C14.3,9.4,14.4,9.5,14.3,9.4
		C14.3,9.4,14.3,9.4,14.3,9.4z"/>
</g>
</svg>
