<?xml version="1.0" encoding="utf-8"?>
<!-- Generator: Adobe Illustrator 19.2.1, SVG Export Plug-In . SVG Version: 6.00 Build 0)  -->
<svg version="1.1" id="Layer_1" xmlns="http://www.w3.org/2000/svg" xmlns:xlink="http://www.w3.org/1999/xlink" x="0px" y="0px"
	 viewBox="0 0 25 25" style="enable-background:new 0 0 25 25;" xml:space="preserve">
<style type="text/css">
	.st0{fill:#FDFDFD;}
	.st1{fill:#63BB67;}
</style>
<g>
	<g>
		<path class="st0" d="M8.7,15.8c-0.1-0.2-0.2-0.4-0.3-0.6c-0.3-0.9-0.2-1.7,0.7-2.2c0.7-0.4,1.5-0.4,2.2,0.3c0.6,0.6,0.6,1.4,0.2,2
			c-0.5,0.9-1.4,1.1-2.3,0.6C9,15.9,8.9,15.9,8.7,15.8C8.7,15.8,8.7,15.8,8.7,15.8z"/>
		<path class="st0" d="M12.1,9.8c0.1-0.1,0.2-0.2,0.3-0.3c0.4-0.1,0.9-0.4,1.3-0.4c1,0,1.7,0.6,1.7,1.7c0,0.9-0.5,1.6-1.6,1.7
			c-1.1,0-1.8-0.5-1.9-1.5C12,10.6,12.1,10.2,12.1,9.8z"/>
	</g>
	<path class="st1" d="M22.7,21.4c-1.7,0.2-2.8-1.1-4.1-1.8c-0.1-0.1-0.2-0.2-0.3-0.3c-0.9-1.4-0.1-2.7,0.2-4.1c0,0,0,0,0,0
		c0.3-0.5,0.7-0.9,1-1.4c0.5-0.2,0.9-0.4,1.4-0.7c0.8,0.6,1.6,1,2.4,0c0,0,0,0,0,0c0.9-0.7,0.8-1.6,0.1-2.3c-0.7-0.8-1.7-0.8-2.4,0
		c-0.9,1-1.9,0.6-2.9,0.6c-1.4,0-2-1-1.2-2C18.8,7.3,20,4.6,23,3.8c0.9-0.2,1.2-1,1-1.9c-0.1-0.8-0.7-1.3-1.5-1.4
		c-0.8-0.1-1.7,0.3-1.7,1c-0.2,2-1.9,2.9-3,4.1c-2.6,2.7-6.5,3-9.7,0.9c0.1,1,0.1,1,0,0C7.9,6.5,7.9,6.4,7.8,6.3
		c-1.1-1.7-3.2-2.7-3.6-5C4,0.5,3,0.3,2.2,0.6C1.4,0.8,1,1.4,1,2.2C1,3,1.4,3.8,2.2,3.9c1,0.1,1.6,0.7,2.2,1.4
		c0.7,0.7,1.4,1.5,2.1,2.2C6.7,7.7,6.9,8,7.1,8.2c0.5,0.8,1.5,1.4,1,2.5c-0.6,1.2-1.8,0.6-2.7,0.7c-0.5,0.1-0.9-0.3-1.3-0.6
		C3.2,10.1,2.2,10,1.4,11c0,0,0,0,0.1,0.1c0,0,0,0-0.1-0.1c-0.8,0.8-0.5,1.7,0.2,2.3C2.4,14,3.2,14,3.9,13.2c2,0.7,3.3,2.9,3.1,4.9
		c-0.2,1.4-2.3,3.1-4.1,3.2c-1.1,0-1.8,0.5-1.9,1.5c-0.1,0.9,0.3,1.6,1.2,1.8c1,0.3,1.8-0.1,2.2-1.1c0.3-1,0.9-1.5,1.7-2.2
		C7.2,20.5,8.5,20,9.4,19c0,0,0,0,0,0c2.3-0.6,4.6-0.6,6.8,0.3c0.1,0.1,0.3,0.2,0.4,0.3c0,0,0.1,0,0.1,0c0,0-0.1,0-0.1,0
		c0.1,0.3,0.3,0.4,0.6,0.4c0,0,0,0,0,0l0,0c0,0,0,0,0,0c0,0,0,0,0,0c0.1,0.1,0.2,0.2,0.4,0.3l0,0c1.1,1.3,3,1.8,3.5,3.8
		c0.2,0.7,1.2,0.8,1.9,0.5c0.8-0.3,1.1-0.9,1.1-1.7C24,22,23.5,21.3,22.7,21.4z M3.5,11.8c0-0.1-0.1-0.1-0.1-0.1
		C3.4,11.7,3.4,11.7,3.5,11.8z M12.4,9.4c0.4-0.1,0.9-0.4,1.3-0.4c1,0,1.7,0.6,1.7,1.7c0,0.9-0.5,1.6-1.6,1.7
		c-1.1,0-1.8-0.5-1.9-1.5c0-0.4,0.1-0.8,0.1-1.2C12.3,9.7,12.3,9.5,12.4,9.4C12.5,9.2,12.5,9.2,12.4,9.4z M8.7,15.8
		C8.7,15.8,8.7,15.8,8.7,15.8L8.7,15.8c-0.1-0.2-0.2-0.4-0.3-0.6c-0.3-0.9-0.2-1.7,0.7-2.2c0.7-0.4,1.5-0.4,2.2,0.3
		c0.6,0.6,0.6,1.4,0.2,2c-0.5,0.9-1.4,1.1-2.3,0.6C9.1,15.9,8.9,15.9,8.7,15.8z M9.4,19L9.4,19c0-0.1,0-0.1,0-0.2
		C9.4,18.9,9.4,18.9,9.4,19z"/>
</g>
</svg>
