<?xml version="1.0" encoding="utf-8"?>
<!-- Generator: Adobe Illustrator 19.2.1, SVG Export Plug-In . SVG Version: 6.00 Build 0)  -->
<svg version="1.1" id="Layer_1" xmlns="http://www.w3.org/2000/svg" xmlns:xlink="http://www.w3.org/1999/xlink" x="0px" y="0px"
	 viewBox="0 0 25 25" style="enable-background:new 0 0 25 25;" xml:space="preserve">
<style type="text/css">
	.st0{fill:#E4A60D;}
	.st1{fill:#FAC647;}
	.st2{fill:#02A6D0;}
	.st3{fill:#F6503F;}
	.st4{fill:#EEEFEE;}
	.st5{fill:#FEFEFE;}
	.st6{fill:#FFFFFF;}
</style>
<g>
	<path class="st0" d="M24.3,14.7c0,2.6,0,5.1,0,7.7c0,0.8-0.4,0.7-0.9,0.7c-5.5,0-10.9,0-16.4,0c-1.9,0-3.8,0-5.8,0
		c-0.5,0-0.7-0.1-0.7-0.7c0-2.6,0-5.1,0-7.7c2.3,0,4.7,0,7,0C7.8,16,7.8,16,9.1,16c2.6,0,5.1,0,7.7,0c1.3,0,1.3,0,1.4-1.3
		C20.2,14.7,22.3,14.7,24.3,14.7z"/>
	<path class="st1" d="M7.7,14.7c-2.3,0-4.7,0-7,0c0-2.6,0-5.2,0-7.7c0-0.5,0.2-0.7,0.7-0.7c1.3,0,2.5,0,3.8,0c0.6,0,0.8,0.2,0.7,0.7
		c0,1.3,0,2.5,0,3.8c0,0.3-0.2,0.6,0.2,0.8c0.2,0,0.4,0,0.6,0c1.1,0,2.1,0,3.2,0c0.3,0,0.5,0,0.8,0c0.1,0,0.1,0,0.2,0
		c0.2,0,0.4,0,0.6,0c1.1,0,2.1,0,3.2,0c0.2,0,0.5,0,0.7,0c0.4,0,0.8,0,1.2,0c0.3,0,0.5,0,0.8,0c0.6,0,1.3,0,1.9,0
		c0.4,0,0.6-0.1,0.6-0.6c0-0.9,0-1.9,0-2.8c0-0.2,0-0.4,0-0.6c0-0.2,0-0.5,0-0.7c0-0.3-0.1-0.7,0.5-0.8c1.2,0,2.4,0,3.6,0
		c0.5,0,0.6,0.1,0.6,0.6c0,2.6,0,5.2,0,7.8c-2,0-4.1,0-6.1,0c-0.1-1.3-0.1-1.3-1.4-1.3c-2.6,0-5.1,0-7.7,0
		C7.8,13.3,7.8,13.3,7.7,14.7z"/>
	<path class="st2" d="M15.2,11.6c-0.2,0-0.5,0-0.7,0c0-0.9,0.3-2-0.1-2.5c-0.4-0.6-1.6-0.1-2.5-0.2c0,0-0.1,0-0.1,0
		c-0.4-0.1-0.5,0.1-0.5,0.5c0,0.7,0,1.5,0,2.2c-0.2,0-0.4,0-0.6,0c0-2.3,0-4.7,0-7c0-1.4,0-1.4,1.4-1.4c0.7,0,1.4,0,2.1,0
		c0.4,0,0.7,0.1,0.9,0.3c0,0.3,0,0.7,0,1C15.2,6.9,15.2,9.3,15.2,11.6z M12.9,7.6c-0.4,0-0.9,0-1.3,0c-0.3,0-0.4,0.1-0.4,0.4
		c0,0.2,0.1,0.3,0.3,0.3c0.8,0,1.7,0,2.5,0c0.3,0,0.4-0.1,0.4-0.4c0-0.3-0.2-0.3-0.4-0.3C13.7,7.6,13.3,7.6,12.9,7.6z"/>
	<path class="st3" d="M10.5,11.6c-0.3,0-0.5,0-0.8,0c0-0.6,0-1.1,0-1.7c0-2.5,0-2.5-2.6-2.4c-0.5,0-0.6,0.2-0.6,0.6
		c0,1.1,0,2.3,0,3.4c-0.2,0-0.4,0-0.6,0c0-2.9,0-5.7,0-8.6C6,2.2,6.3,1.9,7.2,2C8,2,8.7,2,9.5,2c0.8,0,1,0.2,1,1
		C10.5,5.9,10.5,8.8,10.5,11.6z M8.2,7C8.6,7,9,7,9.3,7c0.3,0,0.5-0.1,0.5-0.4c0-0.3-0.2-0.3-0.4-0.3c-0.8,0-1.6,0-2.3,0
		c-0.3,0-0.4,0.1-0.4,0.4C6.6,6.9,6.7,7,7,7C7.4,7,7.8,7,8.2,7z M9,4.1C8.8,3.8,8.7,3.5,8.3,3.5C8,3.5,7.6,3.5,7.6,4.1
		c0,0.4,0.2,0.8,0.6,0.8C8.6,4.9,8.8,4.5,9,4.1z"/>
	<path class="st3" d="M15.2,4.6c0-0.3,0-0.7,0-1c0.2-0.3,0.6-0.4,0.9-0.5C16.7,3,17.3,3,17.9,2.9c1.7-0.3,1.7-0.4,2,1.6
		c0.1,0.6,0.2,1.2,0.2,1.7c-0.5,0-0.4,0.4-0.5,0.8c-0.8,0.1-1.7,0.2-2.5,0.4c-0.3,0-0.7-0.1-0.6,0.5c0.1,0.5,0.5,0.3,0.8,0.2
		c0.8-0.1,1.5-0.2,2.3-0.3c0,0.2,0,0.4,0,0.6c-0.7,0.1-1.4,0.2-2.1,0.3c-0.6,0.1-0.9,0.3-0.7,0.9c0.2,0.7,0.2,1.4,0.3,2.1
		c-0.3,0-0.5,0-0.8,0c-0.1-0.6-0.1-1.3-0.2-1.9C15.8,8,15.8,6.3,15.2,4.6z M18.6,5.1c-0.1-0.5-0.4-0.8-0.8-0.8
		c-0.5,0-0.8,0.4-0.8,0.8c0,0.5,0.3,0.8,0.8,0.8C18.3,5.9,18.6,5.5,18.6,5.1z"/>
	<path class="st4" d="M7.7,14.7c0.1-1.3,0.1-1.3,1.4-1.3c2.6,0,5.1,0,7.7,0c1.3,0,1.3,0,1.4,1.3C18.1,16,18.1,16,16.8,16
		c-2.6,0-5.1,0-7.7,0C7.8,16,7.8,16,7.7,14.7z"/>
	<path class="st5" d="M6.6,11.6c0-1.1,0-2.3,0-3.4c0-0.5,0.1-0.6,0.6-0.6C9.8,7.5,9.8,7.4,9.8,10c0,0.6,0,1.1,0,1.7
		C8.7,11.6,7.7,11.6,6.6,11.6z"/>
	<path class="st5" d="M11.3,11.6c0-0.7,0-1.5,0-2.2c0-0.4,0.1-0.6,0.5-0.5c0,0,0.1,0,0.1,0c0.8,0.1,2-0.4,2.5,0.2
		c0.4,0.6,0.1,1.7,0.1,2.5C13.4,11.6,12.3,11.6,11.3,11.6z"/>
	<path class="st5" d="M17.1,11.6c-0.1-0.7-0.1-1.4-0.3-2.1c-0.2-0.7,0.1-0.9,0.7-0.9c0.7-0.1,1.4-0.2,2.1-0.3c0,0.9,0,1.9,0,2.8
		c0,0.4-0.2,0.6-0.6,0.6C18.4,11.6,17.8,11.6,17.1,11.6z"/>
	<path class="st5" d="M19.6,7.7c-0.8,0.1-1.5,0.2-2.3,0.3c-0.3,0-0.6,0.2-0.8-0.2c-0.1-0.5,0.3-0.4,0.6-0.5C18,7.2,18.8,7.1,19.6,7
		C19.6,7.2,19.6,7.5,19.6,7.7z"/>
	<path class="st5" d="M12.9,7.6c0.4,0,0.7,0,1.1,0c0.2,0,0.4,0,0.4,0.3c0,0.3-0.1,0.4-0.4,0.4c-0.8,0-1.7,0-2.5,0
		c-0.2,0-0.3-0.1-0.3-0.3c0-0.3,0.1-0.4,0.4-0.4C12.1,7.6,12.5,7.6,12.9,7.6z"/>
	<path class="st5" d="M8.2,7C7.8,7,7.4,7,7,7C6.7,7,6.6,6.9,6.6,6.6c0-0.3,0.2-0.4,0.4-0.4c0.8,0,1.6,0,2.3,0c0.2,0,0.4,0,0.4,0.3
		C9.8,6.9,9.6,7,9.3,7C9,7,8.6,7,8.2,7z"/>
	<path class="st6" d="M9,4.1C8.8,4.5,8.6,4.9,8.2,4.9c-0.4,0-0.6-0.3-0.6-0.8c0-0.6,0.4-0.6,0.7-0.6C8.7,3.5,8.8,3.8,9,4.1z"/>
	<path class="st4" d="M18.6,5.1c0,0.5-0.3,0.8-0.8,0.8c-0.5,0-0.8-0.3-0.8-0.8c0-0.5,0.3-0.8,0.8-0.8C18.2,4.2,18.5,4.5,18.6,5.1z"
		/>
</g>
</svg>
