<?xml version="1.0" encoding="utf-8"?>
<!-- Generator: Adobe Illustrator 19.2.1, SVG Export Plug-In . SVG Version: 6.00 Build 0)  -->
<svg version="1.1" id="Layer_1" xmlns="http://www.w3.org/2000/svg" xmlns:xlink="http://www.w3.org/1999/xlink" x="0px" y="0px"
	 viewBox="0 0 25 25" style="enable-background:new 0 0 25 25;" xml:space="preserve">
<style type="text/css">
	.st0{fill:#EB3731;}
	.st1{fill:#524F4F;}
	.st2{fill:#C12126;}
	.st3{fill:#C4C4C4;}
	.st4{fill:#F4F4F6;}
</style>
<path class="st0" d="M13.5,2.3c1.6,0,3.2,0,4.8,0v0.1c0,0.4,0,0.8,0,1.2c0,0.2,0,0.4-0.2,0.5c-0.9,0.9-0.8,1.6,0.1,2.4
	c0.5,0.5,1.5,0.3,2.1-0.3c0.4-0.5,0.4-1.4,0-1.8c-0.4-0.3-0.5-0.7-0.5-1.2c0-0.3,0-0.5,0-0.8V2.3c0.9,0,1.7,0,2.6,0
	c1.1,0,1.9,0.6,2,1.7c0.1,1,0.1,2.1,0,3.2c-7.9,0-15.7,0-23.6,0c0-0.9,0-1.9,0-2.8c0-1.3,1-2.1,2.2-2.1c0.8,0,1.6,0,2.5,0
	c0,0.6,0,1.2,0,1.7C5,4.2,4.9,4.7,4.8,5.2C4.7,5.9,5.2,6.4,5.7,6.7c0.5,0.3,1.5,0,1.9-0.4c0.4-0.6,0.5-1.4,0-1.9
	C7.2,4,7.2,3.6,7.2,3.1c0-0.2,0.1-0.4-0.1-0.6c0-0.1,0-0.2,0-0.3l0,0c1.6,0,3.2,0,4.8,0c0,0.1,0,0.3,0,0.4c-0.2,0.3-0.1,0.6-0.1,0.9
	S11.7,4,11.5,4.2c-0.6,0.6-0.7,1.4,0,2.1c0.4,0.5,1.5,0.8,2.3,0c0.5-0.6,0.6-1.6,0-2.1c-0.4-0.3-0.4-0.7-0.4-1.1c0-0.2,0-0.5,0-0.7
	C13.5,2.4,13.5,2.3,13.5,2.3z"/>
<path class="st1" d="M24.6,8.4c0,5,0,10,0,15c0,0.6-0.3,0.8-0.8,0.9c-0.1,0-0.3,0-0.5,0c-7,0-14,0-21.1,0C1.2,24.2,1,24,1,23
	c0-4.9,0-9.7,0-14.6c1.6,0,3.1,0,4.7,0C12,8.4,18.3,8.4,24.6,8.4z M1.8,23.9c7.3,0,14.6,0,21.9,0c0.2,0.1,0.4,0,0.4-0.2
	c0.2-0.1,0.1-0.3,0.1-0.4c0-4.8,0-9.7,0-14.5c0-0.1,0-0.1-0.1-0.1c-7.6,0-15.1,0-22.7,0c-0.1,0-0.1,0-0.1,0.1c0,4.9,0,9.8,0,14.7
	C1.3,23.8,1.4,24.1,1.8,23.9z"/>
<path class="st2" d="M0.9,7.2c7.9,0,15.7,0,23.6,0c0.1,0.3,0.1,0.5-0.1,0.8C16.5,8,8.7,8,0.8,8C0.9,7.7,0.9,7.4,0.9,7.2z"/>
<path class="st1" d="M0.9,7.9c7.9,0,15.8,0,23.6,0c0,0.1,0,0.3-0.1,0.3c-0.2,0-0.3,0-0.5,0c-7.5,0-14.9,0-22.4,0c-0.2,0-0.3,0-0.5,0
	C0.9,8.2,0.9,8.1,0.9,7.9z"/>
<path class="st1" d="M5.7,4c0-0.6,0-1.2,0-1.7c0-0.2,0-0.4,0-0.5c0-0.5,0.2-0.8,0.6-0.9S7,1,7.1,1.4c0,0.3,0,0.6,0.1,0.9
	c0,0.1,0,0.2,0,0.3c0,0.4,0,0.8,0,1.2S7,4.5,6.6,4.6C6.2,4.8,6,4.4,5.9,4.2C5.8,4.1,5.7,4.1,5.7,4z"/>
<path class="st1" d="M18.5,2.4L18.5,2.4c0-0.3,0-0.4,0-0.6c0-0.4,0.2-0.8,0.6-0.9s0.7,0.1,0.8,0.4l0,0C20,1.6,20,2,20,2.3v0.1
	c-0.2,0.5,0,0.9-0.1,1.4c-0.1,0.4-0.2,0.8-0.7,0.8c-0.4,0-0.6-0.4-0.6-0.8c0-0.1,0-0.3,0-0.5C18.6,3.1,18.7,2.7,18.5,2.4z"/>
<path class="st1" d="M12.1,2.7c0-0.1,0-0.3,0-0.4c0-0.2,0-0.5,0-0.7c0-0.4,0.3-0.7,0.7-0.7s0.7,0.2,0.7,0.6c0,0.3,0,0.5,0,0.8
	c0,0.1,0,0.1,0,0.2c-0.2,0.4-0.1,0.8-0.1,1.3c0,0.4-0.1,0.7-0.5,0.9c-0.3,0.2-0.5-0.1-0.7-0.3c-0.1,0-0.2,0-0.2,0l0,0
	C12.1,3.8,12.1,3.2,12.1,2.7z"/>
<path class="st3" d="M1,8.3c0.2,0,0.3,0,0.5,0c7.5,0,15,0,22.5,0c0.2,0,0.3,0,0.5,0v0.1c-6.3,0-12.6,0-18.8,0c-1.6,0-3.1,0-4.7,0
	C1,8.3,1,8.3,1,8.3z"/>
<path class="st2" d="M7.2,2.3c0-0.3,0-0.6-0.1-0.9C7.2,1.7,7.2,2,7.2,2.3L7.2,2.3z"/>
<path class="st2" d="M19.9,1.3L19.9,1.3L19.9,1.3z"/>
<path class="st2" d="M18.5,2.4c0.2,0.3,0.1,0.6,0.1,1c0,0.2,0,0.3,0,0.5c0.1,0.4,0.2,0.8,0.6,0.8c0.5,0,0.6-0.4,0.7-0.8
	c0.1-0.5-0.1-1,0.1-1.4c0,0.3,0,0.5,0,0.8c0,0.5,0,0.9,0.5,1.2c0.5,0.4,0.5,1.3,0,1.8C20,6.8,19,7,18.4,6.5c-1-0.8-1-1.5-0.1-2.4
	c0.2-0.2,0.2-0.3,0.2-0.5C18.5,3.2,18.5,2.8,18.5,2.4z M20.6,5.4c0-0.5-0.1-0.8-0.4-0.9c-0.3-0.2-0.2,0.2-0.4,0.3
	c-0.4,0.2-0.7,0.3-1,0C18.4,4.4,18.1,4.5,18,5s0,0.9,0.5,1.3c0.4,0.3,0.8,0.4,1.3,0.2C20.2,6.2,20.6,5.8,20.6,5.4z"/>
<path class="st2" d="M12.1,4.3c0.1,0,0.2,0,0.2,0c0.2,0.1,0.4,0.4,0.7,0.3c0.3-0.2,0.4-0.5,0.5-0.9c0-0.4-0.1-0.9,0.1-1.3
	c0,0.2,0,0.5,0,0.7c0,0.4,0,0.8,0.4,1.1c0.6,0.5,0.5,1.5,0,2.1c-0.8,0.8-1.9,0.5-2.3,0c-0.6-0.7-0.6-1.5,0-2.1C11.9,4,12,3.9,12,3.6
	S11.9,3,12.1,2.7C12.1,3.2,12.1,3.8,12.1,4.3c-0.6,0.5-0.7,1.2-0.3,1.8s1.2,0.6,1.8,0.1c0.6-0.6,0.7-1.2,0-1.9
	C13,5.1,12.5,5.1,12.1,4.3z"/>
<path class="st2" d="M5.7,4c0.1,0.1,0.1,0.1,0.2,0.2C6,4.4,6.2,4.8,6.5,4.6C6.8,4.5,7,4.2,7.1,3.8c0-0.4,0-0.8,0-1.2
	C7.3,2.8,7.2,3,7.2,3.2c0,0.5,0,0.9,0.5,1.3s0.4,1.3-0.1,1.8C7.3,6.7,6.3,7,5.8,6.7C5.2,6.4,4.8,6,4.9,5.2C4.9,4.7,5,4.2,5.7,4z
	 M5.6,4.3C5.3,4.5,5.2,4.7,5.2,5C5,5.6,5.3,6,5.8,6.4C6.3,6.6,7,6.6,7.4,6.1c0.4-0.4,0.5-0.9,0.2-1.5C7.4,4.5,7.4,4.3,7.1,4.5
	C6.5,5.1,6.2,5.1,5.6,4.3z"/>
<path class="st4" d="M23.8,23.9c-7.3,0-14.6,0-21.9,0c-0.1-0.2-0.3-0.4-0.5-0.5c0-4.9,0-9.8,0-14.7l0.1-0.1c7.6,0,15.1,0,22.7,0
	l0.1,0.1c0,4.8,0,9.7,0,14.5c0,0.1,0,0.3-0.1,0.4C24,23.7,23.8,23.7,23.8,23.9z M9.5,13.1c0.9,0,1.6-0.6,1.6-1.5S10.5,10,9.6,10
	S8,10.6,8,11.5C7.9,12.4,8.6,13.1,9.5,13.1z M17.1,21.5c0-0.9-0.6-1.5-1.6-1.5c-0.9,0-1.5,0.6-1.5,1.6c0,0.9,0.7,1.6,1.6,1.6
	C16.5,23.1,17.1,22.4,17.1,21.5z M21.6,23c0.7,0,1.5-0.7,1.5-1.5s-0.7-1.6-1.6-1.6c-0.8,0-1.5,0.8-1.5,1.6
	C20.1,22.4,20.8,23,21.6,23z M5.4,21.5c0-0.8-0.7-1.5-1.5-1.5c-0.7,0-1.5,0.8-1.5,1.5C2.4,22.3,3.2,23,4,23
	C4.7,23,5.4,22.3,5.4,21.5z M8,21.5C8,22.4,8.7,23,9.5,23s1.4-0.7,1.4-1.5S10.3,20,9.5,20C8.7,20,8,20.7,8,21.5z M3.9,10.1
	c-0.8,0-1.5,0.7-1.5,1.4C2.4,12.4,3.1,13,4,13c0.8,0,1.4-0.7,1.4-1.5S4.7,10.1,3.9,10.1z M15.5,10.1c-0.8,0-1.5,0.7-1.5,1.4
	c0,0.9,0.7,1.5,1.6,1.5c0.8,0,1.4-0.7,1.4-1.5S16.4,10.1,15.5,10.1z M21.6,10.1c-0.9,0-1.5,0.6-1.5,1.5c0,0.8,0.7,1.4,1.5,1.4
	s1.5-0.7,1.5-1.5S22.4,10.1,21.6,10.1z M15.6,18.3c0.8,0,1.5-0.7,1.4-1.5c0-0.8-0.7-1.4-1.5-1.4c-0.8,0-1.5,0.7-1.5,1.4
	C14,17.7,14.7,18.3,15.6,18.3z M3.9,18.3c0.8,0,1.5-0.7,1.5-1.5c0-0.9-0.6-1.5-1.5-1.4c-0.8,0-1.5,0.6-1.5,1.4
	C2.4,17.6,3,18.3,3.9,18.3z M21.6,15.4c-0.9,0-1.5,0.6-1.5,1.4s0.7,1.5,1.5,1.5s1.6-0.7,1.5-1.5C23.1,16,22.4,15.4,21.6,15.4z
	 M9.6,15.4c-0.9,0-1.5,0.6-1.5,1.4c0,0.9,0.6,1.5,1.5,1.5c0.8,0,1.4-0.6,1.4-1.5S10.4,15.4,9.6,15.4z"/>
<path class="st3" d="M1.3,23.4c0.2,0.1,0.4,0.3,0.5,0.5C1.4,24.1,1.3,23.8,1.3,23.4z"/>
<path class="st3" d="M23.8,23.9c0-0.3,0.2-0.2,0.4-0.2C24.1,23.9,24,24,23.8,23.9z"/>
<path class="st3" d="M1.4,8.7L1.3,8.8C1.3,8.7,1.3,8.6,1.4,8.7z"/>
<path class="st3" d="M24.3,8.8l-0.1-0.1C24.3,8.6,24.3,8.7,24.3,8.8z"/>
<path class="st4" d="M20.6,5.4c0,0.5-0.3,0.8-0.8,1.1c-0.4,0.2-0.9,0.1-1.3-0.2C18.1,5.9,17.9,5.5,18,5s0.4-0.6,0.7-0.2
	c0.3,0.3,0.7,0.2,1,0c0.2-0.1,0.1-0.5,0.4-0.3C20.4,4.6,20.6,4.9,20.6,5.4z"/>
<path class="st4" d="M12.1,4.3c0.4,0.8,0.9,0.8,1.6,0c0.6,0.7,0.6,1.3,0,1.9c-0.6,0.5-1.4,0.4-1.8-0.1C11.4,5.5,11.5,4.8,12.1,4.3
	L12.1,4.3z"/>
<path class="st4" d="M5.6,4.3C6.2,5,6.5,5.1,7.1,4.5c0.3-0.3,0.4,0,0.5,0.1c0.3,0.5,0.2,1-0.2,1.5C7,6.6,6.3,6.6,5.8,6.4
	C5.3,6,5,5.6,5.2,5C5.2,4.7,5.3,4.5,5.6,4.3z"/>
<path class="st0" d="M9.5,13.1c-0.9,0-1.6-0.7-1.6-1.6C8,10.6,8.6,10,9.5,10s1.6,0.7,1.5,1.6C11,12.5,10.4,13.1,9.5,13.1z"/>
<path class="st0" d="M17.1,21.5c0,0.9-0.6,1.6-1.5,1.6S14,22.5,14,21.5c0-0.9,0.6-1.5,1.5-1.6C16.5,20,17.1,20.6,17.1,21.5z"/>
<path class="st1" d="M21.6,23c-0.8,0-1.5-0.7-1.5-1.4c0-0.8,0.7-1.6,1.5-1.6s1.6,0.7,1.6,1.6C23.1,22.3,22.3,23,21.6,23z"/>
<path class="st1" d="M5.4,21.5C5.4,22.3,4.7,23,4,23c-0.8,0-1.6-0.7-1.6-1.5c0-0.7,0.8-1.5,1.5-1.5C4.7,20,5.4,20.7,5.4,21.5z"/>
<path class="st1" d="M8,21.5C8,20.7,8.7,20,9.5,20s1.4,0.7,1.4,1.5c0,0.9-0.6,1.5-1.4,1.5C8.7,23,8,22.4,8,21.5z"/>
<path class="st1" d="M3.9,10.1c0.9,0,1.5,0.6,1.5,1.4C5.4,12.3,4.8,13,4,13c-0.9,0-1.6-0.6-1.6-1.5C2.4,10.7,3,10.1,3.9,10.1z"/>
<path class="st1" d="M15.5,10.1c0.9,0,1.5,0.6,1.5,1.4c0,0.8-0.6,1.5-1.4,1.5c-0.9,0-1.6-0.6-1.6-1.5C14,10.7,14.7,10.1,15.5,10.1z"
	/>
<path class="st1" d="M21.6,10.1c0.9,0,1.5,0.6,1.5,1.5c0,0.8-0.7,1.4-1.5,1.5c-0.8,0-1.5-0.6-1.5-1.4C20,10.7,20.7,10.1,21.6,10.1z"
	/>
<path class="st1" d="M15.6,18.3c-0.9,0-1.6-0.6-1.6-1.5c0-0.8,0.7-1.4,1.5-1.4c0.9,0,1.5,0.6,1.5,1.4C17,17.6,16.4,18.3,15.6,18.3z"
	/>
<path class="st1" d="M3.9,18.3c-0.9,0-1.6-0.7-1.5-1.5c0-0.8,0.7-1.4,1.5-1.4c0.9,0,1.5,0.6,1.5,1.4C5.4,17.6,4.7,18.3,3.9,18.3z"/>
<path class="st1" d="M21.6,15.4c0.8,0,1.5,0.6,1.5,1.4s-0.7,1.5-1.5,1.5s-1.5-0.7-1.5-1.5S20.7,15.4,21.6,15.4z"/>
<path class="st1" d="M9.6,15.4c0.9,0,1.4,0.5,1.4,1.5c0,0.8-0.6,1.5-1.4,1.5c-0.9,0-1.5-0.6-1.5-1.5C8,15.9,8.6,15.4,9.6,15.4z"/>
</svg>
