<?xml version="1.0" encoding="utf-8"?>
<!-- Generator: Adobe Illustrator 19.2.1, SVG Export Plug-In . SVG Version: 6.00 Build 0)  -->
<svg version="1.1" id="Layer_1" xmlns="http://www.w3.org/2000/svg" xmlns:xlink="http://www.w3.org/1999/xlink" x="0px" y="0px"
	 viewBox="0 0 25 25" style="enable-background:new 0 0 25 25;" xml:space="preserve">
<style type="text/css">
	.st0{fill:#EDEEED;}
	.st1{fill:#B7B7B7;}
	.st2{fill:#FAC647;}
	.st3{fill:#FAC84D;}
	.st4{fill:#A7A7A7;}
	.st5{fill:#07ACE5;}
	.st6{font-family:'ArialRoundedMTBold';}
	.st7{font-size:5.2136px;}
</style>
<path class="st0" d="M22.5,6.6L22.5,6.6c0.3,0.5,0.2,1,0.2,1.5c0,5.3,0,10.6,0,16c0,0.1-0.1,0.1-0.1,0.1c-6.6,0-13.1,0-19.7,0
	c-0.1,0-0.1-0.1-0.1-0.1c0-7.7,0-15.4,0-23.2c0-0.1,0.1-0.1,0.1-0.1c4.7,0,9.4,0,14.1,0c0,1.4,0,2.8,0,4.2c0,1.1,0.5,1.6,1.6,1.6
	C19.8,6.5,21.1,6.6,22.5,6.6z M12.6,23.1c2.4,0,4.8,0,7.2,0c0.8,0,1.1-0.2,1.1-1.1c-0.1-1.3,0-2.7,0-4c0-0.7-0.2-1-1-1
	c-4.9,0-9.7,0-14.6,0c-0.7,0-1,0.2-1,1c0,1.3,0.1,2.7,0,4c0,0.9,0.3,1.1,1.2,1.1C7.9,23.1,10.3,23.1,12.6,23.1z M9.9,3.7
	c-1.5,0-3.1,0-4.6,0c-0.6,0-1,0.2-1,0.9c0,1.5,0,3,0,4.5c0,0.7,0.3,0.9,0.9,0.9c3,0,6.1,0,9.1,0c0.8,0,1-0.3,1-1
	c0-1.4-0.1-2.8,0-4.2c0-0.8-0.3-1.1-1.1-1.1C12.8,3.8,11.4,3.7,9.9,3.7z M4.5,11.4c0,0.1,0,0.2,0,0.3c5.5,0,11,0,16.5,0
	c0-0.1,0-0.2,0-0.3C15.5,11.4,10,11.4,4.5,11.4z M4.5,12.8c0,0.1,0,0.2,0,0.3c5.5,0,11,0,16.5,0c0-0.1,0-0.2,0-0.3
	C15.5,12.8,10,12.8,4.5,12.8z M4.5,14.2c0,0.1,0,0.2,0,0.3c5.5,0,11,0,16.5,0c0-0.1,0-0.2,0-0.3C15.5,14.2,10,14.2,4.5,14.2z
	 M20.8,16c0-0.1,0-0.2,0-0.3c-5.4,0-10.8,0-16.2,0c0,0.1,0,0.2,0,0.3C9.9,16,15.3,16,20.8,16z"/>
<path class="st1" d="M2.9,0.9c0,7.7,0,15.4,0,23.2c-0.8-0.4-0.6-0.9-0.6-1.4c0-6.8,0-13.6,0-20.4C2.5,1.8,2.3,1.3,2.9,0.9z"/>
<path class="st1" d="M2.8,23.9c6.6,0,13.1,0,19.7,0c-0.4,0.7-0.9,0.5-1.4,0.5c-5.6,0-11.3,0-16.9,0C3.7,24.5,3.2,24.7,2.8,23.9z"/>
<path class="st1" d="M22,24.4c0-5.4,0-10.8,0-16.3c0-0.5,0.2-1.1-0.2-1.6c1.4,0.1,0.9,0.6,0.9,0.9c0,5.3,0,10.7,0,16
	C22.7,23.7,22.7,24.1,22,24.4z"/>
<path class="st1" d="M17.2,1h-0.1H17C12.3,1,7.5,1,2.8,1C3.1,0.5,3.6,0.5,4,0.5c4,0,8,0,12.2,0C16.5,0.5,16.9,0.3,17.2,1z"/>
<path class="st2" d="M12.6,23.1c-2.4,0-4.7,0-7.1,0c-0.8,0-1.2-0.2-1.2-1.1c0.1-1.3,0.1-2.7,0-4c0-0.8,0.3-1,1-1c4.9,0,9.7,0,14.6,0
	c0.8,0,1,0.3,1,1c0,1.3,0,2.7,0,4c0,0.8-0.3,1.1-1.1,1.1C17.5,23.1,15,23.1,12.6,23.1z"/>
<path class="st3" d="M9.9,3.7c1.4,0,2.9,0,4.3,0c0.8,0,1.1,0.2,1.1,1.1c-0.1,1.4,0,2.8,0,4.2c0,0.7-0.2,1.1-1,1c-3,0-6.1,0-9.1,0
	c-0.7,0-1-0.2-0.9-0.9c0-1.5,0-3,0-4.5c0-0.7,0.3-0.9,1-0.9C6.9,3.8,8.4,3.7,9.9,3.7z"/>
<path class="st4" d="M4.5,11.4c5.5,0,11,0,16.5,0c0,0.1,0,0.2,0,0.3c-5.5,0-11,0-16.5,0C4.5,11.5,4.5,11.5,4.5,11.4z"/>
<path class="st4" d="M4.5,12.8c5.5,0,11,0,16.5,0c0,0.1,0,0.2,0,0.3c-5.5,0-11,0-16.5,0C4.5,13,4.5,12.9,4.5,12.8z"/>
<path class="st4" d="M4.5,14.2c5.5,0,11,0,16.5,0c0,0.1,0,0.2,0,0.3c-5.5,0-11,0-16.5,0C4.5,14.4,4.5,14.3,4.5,14.2z"/>
<path class="st4" d="M20.8,16c-5.4,0-10.8,0-16.2,0c0-0.1,0-0.2,0-0.3c5.4,0,10.8,0,16.2,0C20.8,15.8,20.8,15.9,20.8,16z"/>
<text transform="matrix(1 0 0 1 17.3782 10.5165)" class="st5 st6 st7">+</text>
<path class="st4" d="M22.5,6.7c-1.3,0-2.7,0-4,0c-1.1,0-1.6-0.5-1.6-1.6c0-1.4,0-2.8,0-4.3H17h0.1c1.7,1.6,3.3,3.3,5,5
	C22.3,6,22.5,6.3,22.5,6.7z"/>
</svg>
