<?xml version="1.0" encoding="utf-8"?>
<!-- Generator: Adobe Illustrator 19.2.1, SVG Export Plug-In . SVG Version: 6.00 Build 0)  -->
<svg version="1.1" id="Layer_1" xmlns="http://www.w3.org/2000/svg" xmlns:xlink="http://www.w3.org/1999/xlink" x="0px" y="0px"
	 viewBox="0 0 25 25" style="enable-background:new 0 0 25 25;" xml:space="preserve">
<style type="text/css">
	.st0{fill:#A5A5A5;}
	.st1{fill:#F55746;}
	.st2{fill:#F65140;}
	.st3{fill:#6B6B6B;}
</style>
<path class="st0" d="M13.4,8.1c2.2,0,4.4,0,6.6,0c0.5,0,0.9,0.2,1.2,0.7s-0.1,1-0.7,1.1c-0.8,0.2-1.8,0.1-2.6,0.1
	c-3.6,0-7.2,0-10.8,0c-0.4,0-0.8,0-1.2-0.4C5.7,9.3,5.6,9,5.8,8.7C6,8.3,6.4,8.1,6.8,8.1C9,8.1,11.2,8.1,13.4,8.1z"/>
<path class="st0" d="M13.4,13.5c2.2,0,4.4,0,6.5,0c0.3,0,0.5,0,0.7,0.2c0.3,0.2,0.5,0.5,0.4,0.9s-0.3,0.6-0.7,0.7
	c-0.8,0.2-1.7,0.1-2.5,0.1c-3.7,0-7.2,0-10.9,0c-0.4,0-0.8,0-1.2-0.4c-0.2-0.3-0.3-0.6-0.1-0.9c0.2-0.4,0.6-0.6,1.1-0.6
	C9,13.5,11.2,13.5,13.4,13.5z"/>
<path class="st0" d="M13.4,10.9c2.1,0,4.2,0,6.4,0c0.2,0,0.4,0,0.6,0.1c0.5,0.1,0.8,0.5,0.8,0.9c0,0.5-0.4,0.8-1.1,0.8
	c-1.7-0.1-3.4,0.1-5,0c-1.5-0.1-2.9,0-4.5,0c-1.4,0-2.7,0-4.1-0.1c-0.5,0-0.8-0.3-0.8-0.7c-0.1-0.5,0.1-0.8,0.6-1
	c0.2-0.1,0.4-0.1,0.5-0.1C9,10.9,11.2,10.9,13.4,10.9z"/>
<path class="st0" d="M16.4,18.2c-1.9-0.2-3.9,0.1-5.8,0c-1.4,0-2.6-0.1-4-0.1c-0.5,0-0.8-0.3-0.9-0.7c-0.1-0.5,0.2-0.8,0.6-1
	c0.2-0.1,0.4-0.1,0.5-0.1c4.3,0,8.6,0,12.9,0c0.9,0,1.4,0.4,1.3,1.2c-0.4,0.1-0.2-0.5-0.5-0.4s-0.4,0-0.5-0.2c0-0.1-0.1-0.2-0.3-0.1
	c-0.4,0.2-0.7-0.4-1.2,0.1c0,0-0.1-0.1-0.2-0.1c-0.1-0.1-0.2-0.1-0.2,0c-0.2,0.5-0.9,0.1-0.9,0.7L16.4,18.2z"/>
<path class="st1" d="M16,18.1l1.1-0.8c0.1-0.6,0.8-0.2,0.9-0.7c0-0.1,0.2-0.1,0.2,0c0.1,0,0.2,0.1,0.2,0.1c0.3-0.4,0.7,0.1,1.2-0.1
	c0.1-0.1,0.2,0,0.3,0.1c0.1,0.2,0.2,0.3,0.5,0.2c0.3-0.1,0.1,0.5,0.5,0.4h0.1c0.1,0.4,0.6,0.5,0.6,1c0,0.1,0,0.2,0,0.2
	c0.4,0.2,0.4,0.4,0.1,0.7c0.6,0.3-0.3,0.8,0.1,1.2c0.1,0-0.1,0.1-0.2,0.2c-0.2,0.1-0.3,0.2-0.2,0.4c0.1,0.2,0,0.3-0.2,0.3h-0.1
	c0,0.5-0.6,0.4-0.8,0.8c-0.1,0.1-0.1,0.2-0.2,0.1c-0.2-0.1-0.4-0.1-0.5,0.2c0,0.1-0.2,0.1-0.3,0c-0.1,0-0.2-0.1-0.2-0.1
	c-0.3,0.2-0.6,0-0.9,0s-0.5,0.1-0.6-0.2c-0.5,0.2-0.6-0.6-1.2-0.5c-0.1,0-0.1-0.1-0.1-0.2v-0.1c-0.3-0.3-0.3-0.7-0.6-1.1
	c0-0.1-0.2-0.1-0.1-0.2c0.2-0.3,0.2-0.5-0.1-0.7c-0.1-0.1,0-0.1,0-0.2l0.1-0.1C15.6,18.8,16,18.5,16,18.1z M17.1,18.1
	c-0.9,1-0.8,2.3,0.1,3.2c0.9,0.8,2.4,0.8,3.4-0.2c0.9-0.9,0.8-2.3-0.2-3.2C19.4,17.1,18,17.1,17.1,18.1z"/>
<path class="st2" d="M17.8,18.1c0.6-0.3,1.2-0.3,1.8-0.1c0.6,0.5,1.2,1.1,0.9,1.9c-0.1,0.7-0.7,1.3-1.5,1.4
	c-0.7,0.1-1.5-0.2-1.9-0.9c-0.4-0.6-0.3-1.4,0.2-2C17.5,18.4,17.6,18.2,17.8,18.1z"/>
<path class="st3" d="M4.5,0.7c0,7.8,0,15.6,0,23.5c-1.4-0.4-1-0.7-1.1-1.4c0-0.7,0-20.6,0-20.6S3.4,1.1,4.5,0.7z"/>
<path class="st3" d="M3.5,23.3c6.7,0,13.4,0,20.1,0c0,1.3-1.4,1.1-1.4,1.1H4.9C4.9,24.4,3.5,24.5,3.5,23.3z"/>
<path class="st3" d="M22.7,24.1c0-5.4,0-10.9,0-16.4c0-0.5,0.3-1.1-0.3-1.6C23.7,6,23.6,7,23.6,7s0,10.8,0,16.1
	C23.6,23.4,23.6,23.8,22.7,24.1z"/>
<path class="st3" d="M18.7,2.1h-0.1h-0.1c-4.9,0-10,0-14.9,0c0.3-1.5,0.8-1.5,1.3-1.5c4.2,0,12.8,0,12.8,0S18.6,0.7,18.7,2.1z"/>
<path class="st3" d="M23.6,6.7c-1.3,0-2.7,0-4,0c-1.1,0-1.6-0.5-1.6-1.6c0-1.4,0-2.8,0-4.3h0.1h0.1c1.7,1.6,3.3,3.3,5,5
	C23.4,6,23.6,6.3,23.6,6.7z"/>
</svg>
