<?xml version="1.0" encoding="utf-8"?>
<!-- Generator: Adobe Illustrator 19.2.1, SVG Export Plug-In . SVG Version: 6.00 Build 0)  -->
<svg version="1.1" id="Layer_1" xmlns="http://www.w3.org/2000/svg" xmlns:xlink="http://www.w3.org/1999/xlink" x="0px" y="0px"
	 viewBox="0 0 25 25" style="enable-background:new 0 0 25 25;" xml:space="preserve">
<style type="text/css">
	.st0{fill:#A2DAEB;}
	.st1{fill:#4398D1;}
	.st2{fill:#FFFFFF;}
	.st3{fill:#F0FF27;}
	.st4{fill:#E51717;}
</style>
<path class="st0" d="M10.6,3.6L10.6,3.6C9.8,3.4,9,3.3,8.1,3.3l0,0c-3.4,0-6.2,3-6.2,4.6s5.9,15.3,5.9,15.3c0.9,0,1.7-0.5,1.8-1.2
	l1.6-7.2c0.2-0.7,0.9-1.2,1.9-1.2l0,0c0.9,0,1.7,0.5,1.9,1.2l1.6,7.2c0.2,0.7,0.9,1.2,1.8,1.2l0,0c0.9,0,1.7-0.5,1.8-1.2l1.4-7.6
	l0.3-0.4c1.6-1.8,2.4-4,2.4-6.2l0,0c0-2.6-2.8-4.6-6.2-4.6l0,0l0,0c-0.8,0-1.7,0.1-2.4,0.4l0,0C14.1,4.2,12.2,4.2,10.6,3.6z"/>
<path class="st1" d="M20.9,3c-3.4,6.3-11,10-16.4,11.8c0,0,2.3,8.4,3.3,8.3c0.8-0.1,1.5-0.6,1.6-1.2c0,0,0.8-5.1,1.3-6.9
	c0.1,0,0.1,0,0.2,0c0.3,0,0.5-0.2,0.5-0.5c0,0,0-0.1,0-0.1c1.1,0,4-0.5,3.3-0.1l1.6,7.5c0.2,0.8,1.1,1.3,2.1,1.2
	c0.8-0.1,1.4-0.6,1.5-1.2c0,0,4.1-12.4,4.1-14.7C24.1,5.4,22.8,3.8,20.9,3z"/>
<g>
	<path class="st2" d="M6.5,9.6H5.5c0-2.2,2-3.2,3.1-3.3l0.2,0.8L8.7,6.7l0.1,0.4C8.7,7.1,6.5,7.5,6.5,9.6z"/>
	<rect x="9.8" y="6.3" class="st2" width="1.1" height="0.8"/>
</g>
<path d="M18.2,2c-1.4,0-3,0.8-4.1,1.4c-0.3,0.1-0.8,0.5-1,0.5c-0.2,0-0.7-0.4-1-0.5C11.1,2.8,9.6,2,8.1,2C6.3,2,4.6,2.7,3.4,4.1
	c-1.2,1.3-1.8,3-1.8,4.8c0,2.5,0.9,6.1,2.4,9.5c0.7,1.5,1.4,2.9,2.1,3.9c0.9,1.2,1.6,1.8,2.3,1.8c0.3,0,0.9-0.1,1.3-1
	c0.3-0.8,0.5-1.6,0.8-2.5c0.6-2.1,1.5-5.3,2.7-5.3h0.1c0.5,0,1,0.5,1.5,1.5c0.5,1,0.9,2.5,1.3,3.8c0.2,0.9,0.5,1.8,0.8,2.5
	c0.3,0.9,0.9,1,1.3,1c0.7,0,1.4-0.6,2.3-1.8c0.7-1,1.4-2.3,2.1-3.9c1.5-3.5,2.4-7,2.4-9.5c0-1.8-0.6-3.5-1.8-4.8
	C21.7,2.7,20.1,2,18.2,2z M21,17.8c-0.6,1.5-1.3,2.8-1.9,3.7c-0.6,0.8-0.7,0.9-1,1.1c0,0-0.1,0-0.1,0c-0.2-0.7-0.5-1.5-0.7-2.4
	c-0.4-1.4-0.8-2.9-1.3-4.1c-0.7-1.5-1.6-2.3-2.7-2.3h-0.1c-1.1,0-1.9,0.7-2.7,2.2c-0.6,1.2-1,2.6-1.4,4c-0.3,0.9-0.5,1.7-0.7,2.4
	c0,0,0,0.1-0.1,0.1c-0.2-0.1-0.4-0.4-1-1.2c-0.6-0.9-1.3-2.2-1.9-3.6C3.9,14.6,3,11.2,3,8.9c0-2.7,1.9-5.5,5.1-5.5
	c0.8,0,1.9,0.4,2.9,1c0.1,0.1,0.4,0.3,0.6,0.4c0.1,0.1,0.2,0.1,0.2,0.2c0.3,0.2,0.6,0.4,1,0.7c0.2,0.1,0.4,0.2,0.6,0.3
	c0.9,0.4,1.8,0.6,2.7,0.6c1,0,3-0.4,3-0.6c0-0.2-2.4,0.1-4.1-0.5c-0.3-0.1-0.8-0.3-0.8-0.4c0-0.1,0.1-0.1,0.1-0.1
	c0.1-0.1,0.3-0.2,0.4-0.3c1-0.5,2.3-1.3,3.4-1.3c3.2,0,5.1,2.8,5.1,5.5C23.3,11.1,22.5,14.5,21,17.8z"/>
<g>
	<rect x="3.2" y="6.2" transform="matrix(0.7071 -0.7071 0.7071 0.7071 -3.9429 5.2749)" class="st3" width="2.4" height="2.4"/>
	<path class="st3" d="M8.5,13.9c-0.9,0-1.7-0.8-1.7-1.7c0-0.3,0.1-0.5,0.2-0.8l0.3-0.6L4.9,8.5l0.6-0.6l2.3,2.3
		c0.3,0.3,0.3,0.6,0.2,1l-0.3,0.6c-0.2,0.4,0,1,0.4,1.2c0.2,0.1,0.5,0.1,0.7,0l1.3-0.5l0.3,0.8l-1.3,0.5C8.9,13.8,8.7,13.9,8.5,13.9
		z"/>
</g>
<polygon class="st4" points="1,1.3 4.8,5.3 2.3,7.8 1,6.8 "/>
<path d="M2,8.1c0.2,0.1,0.4,0.1,0.6,0L2.7,8l1.4,1.4c0.2,0.2,0.4,0.2,0.6,0l0.5-0.5l2,2l-0.3,0.6c-0.4,0.8-0.1,1.9,0.8,2.3
	c0.4,0.2,0.9,0.2,1.4,0.1l1.3-0.5l-0.3-0.8L8.8,13c-0.4,0.2-1,0-1.1-0.5c-0.1-0.2-0.1-0.5,0-0.7L8,11.2c0.2-0.3,0.1-0.7-0.2-1l-2-2
	l0.5-0.5c0.2-0.2,0.2-0.4,0-0.6L5,5.7l0.1-0.1c0.2-0.2,0.2-0.4,0-0.6L1.4,1C1.2,0.9,0.9,0.9,0.8,1C0.7,1.1,0.6,1.2,0.6,1.3v5.4
	c0,0.1,0.1,0.2,0.1,0.3L2,8.1z M5.5,7.4L4.4,8.5L3.3,7.4l1.1-1.1L5.5,7.4z M1.5,2.4l2.8,2.9L4.1,5.4L2.4,7.1L2.3,7.2L1.5,6.6V2.4z"
	/>
</svg>
