<?xml version="1.0" encoding="utf-8"?>
<!-- Generator: Adobe Illustrator 19.2.1, SVG Export Plug-In . SVG Version: 6.00 Build 0)  -->
<svg version="1.1" id="Layer_1" xmlns="http://www.w3.org/2000/svg" xmlns:xlink="http://www.w3.org/1999/xlink" x="0px" y="0px"
	 viewBox="0 0 25 25" style="enable-background:new 0 0 25 25;" xml:space="preserve">
<style type="text/css">
	.st0{fill:#F0800F;}
	.st1{fill:#45636C;}
	.st2{fill:#CCD5D8;}
	.st3{fill:#08A8D1;}
	.st4{fill:#E7ECED;}
	.st5{fill:none;stroke:#45636C;stroke-width:0.5;stroke-miterlimit:10;}
</style>
<path class="st0" d="M4.2,9.5c0.1,0,0.1,0,0.2,0C4.5,9.7,4.6,9.9,4.7,10c0.1,0.4,0.2,0.7,0.5,0.9c0.1,0.2,0.2,0.5,0.5,0.5
	c1.3,0.9,2.4,0.8,3.4-0.3c0.4-0.5,0.7-1.1,1-1.6c0.3,0.1,0.7,0.2,1,0.3c-0.3,1.7-1.4,2.7-2.9,3.4c-0.3,0-0.4,0.2-0.4,0.5
	c0,0.4,0,0.9,0,1.3c0,0.4,0,0.9,0,1.3c-0.1,0.5,0,0.9,0.2,1.3c0,0.5,0.1,0.9,0.3,1.3c0,0.5,0.3,0.9,0.5,1.3c0.4,0.8,0.8,1.5,1.7,1.9
	c0.3,0.5,0.8,0.6,1.3,0.6c0.9,0.1,1.8,0.1,2.8,0.1c-2.1,2-4.4,2-6.2-0.1c-0.1-0.2-0.2-0.4-0.3-0.7C8.1,22,8,21.9,7.9,21.8
	c-0.3-1.3-1.1-2.5-1.2-4c-0.1-1.2-0.1-2.5-0.2-3.7c0-0.8-0.2-1-0.8-1.1c-0.1-0.1-0.3-0.1-0.4-0.2c-0.2-0.1-0.4-0.3-0.5-0.4
	c-0.5-0.9-1.4-1.5-1.3-2.7C3.7,9.7,4,9.6,4.2,9.5z"/>
<path class="st1" d="M14.7,22.9c-0.9,0-1.8,0-2.8-0.1c-0.5,0-1-0.1-1.3-0.6c2.6,0,5.2-0.1,7.8-0.1c0.8,0,1.3-0.2,1.3-1.1
	c0-3.9,0-7.8-0.1-11.8c0.2-0.2,0.3-0.5,0.6-0.6c0,4.1,0,8.2,0,12.3c0,1.6-0.2,1.8-1.9,1.8C17.1,22.8,15.9,22.9,14.7,22.9z"/>
<path class="st2" d="M11.1,9.8c-0.3-0.1-0.7-0.2-1-0.3c0.3-1.4,0.7-2.8,1-4.2c0-0.2,0-0.4,0-0.6c0-1-0.7-1.1-1.5-1.1
	c0-0.3,0-0.7,0-1c2.1,0,2.3,0.1,2.8,2.2c0,0.2,0,0.3,0,0.5C12,6.8,11.6,8.3,11.1,9.8z"/>
<path class="st2" d="M4.2,9.5C4,9.6,3.7,9.7,3.5,9.8C2.7,8.3,2.4,6.7,2,5.1C1.7,3.8,2.8,2.7,4.2,2.5c0,0.3,0,0.7,0,1
	C3,3.8,3.1,4.7,3.3,5.6C3.6,6.9,4.2,8.2,4.2,9.5z"/>
<path class="st0" d="M13.3,4.6c0.4-1.3,1.3-2.1,2.7-2.1c1.5,0,2.4,0.9,2.9,2.2c0,0.2,0,0.4,0,0.6c-0.4,0-0.9,0-1.3,0
	c-0.1-0.2-0.2-0.4-0.3-0.6c-0.9-1.1-1.4-1.1-2.4,0C14.4,4.6,13.8,4.6,13.3,4.6z"/>
<path class="st1" d="M11.1,4.7c0,0.2,0,0.4,0,0.6c-1.8,0-3.6,0.1-5.4,0.1C5.2,5.6,5.3,6.1,5.3,6.6c0,1.5,0,2.9-0.1,4.4
	c-0.3-0.2-0.5-0.6-0.5-0.9c0-0.2,0-0.4,0-0.6c0-1.1,0-2.2,0-3.3c0-1,0.4-1.5,1.5-1.5C7.8,4.7,9.5,4.7,11.1,4.7z"/>
<path class="st1" d="M4.8,12.4c0.2,0.1,0.4,0.3,0.5,0.4c0,0.2,0,0.3,0,0.5c0,2.5,0,5.1,0,7.6c0,0.8,0.3,1.2,1.1,1.1
	c0.4,0,0.8,0,1.1,0c0.2,0,0.4,0,0.6,0c0.1,0.2,0.2,0.4,0.3,0.7c-4.4,0.2-3.7,0-3.7-3.5C4.7,17,4.8,14.7,4.8,12.4z"/>
<path class="st1" d="M13.3,4.6c0.5,0,1,0,1.6,0c0.8,0,1.6,0,2.4,0c0.1,0.2,0.2,0.4,0.3,0.6c-1.7,0.1-3.4,0.2-5.1,0
	c0-0.2,0-0.3,0-0.5C12.8,4.7,13,4.7,13.3,4.6z"/>
<path class="st1" d="M4.2,3.6c0-0.3,0-0.7,0-1c0.1-0.5,0.3-0.8,0.8-0.6c0.5,0.2,0.8,0.5,0.9,1c0,0.6-0.2,1-0.8,1.1
	C4.6,4.3,4.3,4.2,4.2,3.6z"/>
<path class="st1" d="M9.7,2.5c0,0.3,0,0.7,0,1C9.6,4.2,9.2,4.2,8.7,4.1C8.2,3.9,7.9,3.5,8,2.9c0-0.5,0.4-0.8,0.9-1
	C9.4,1.8,9.6,2.1,9.7,2.5z"/>
<path class="st1" d="M20.3,6.2c-0.2,0-0.4-0.1-0.5-0.1c-0.1-0.4-0.4-0.7-0.8-0.7c0-0.2,0-0.4,0-0.6C19.9,4.7,20.3,5.2,20.3,6.2z"/>
<path class="st3" d="M8.6,13.7c2.6,0,5.2,0,7.8,0.1c0.3,0,0.7,0,1,0c0.5,0,1.1,0,1.1,0.7c0,0.6-0.6,0.6-1.1,0.6c-1.2,0-2.5,0-3.7,0
	c-2,0-3.9,0-5.9,0c0-0.4,0-0.9,0-1.3C8.1,13.7,8.4,13.7,8.6,13.7z"/>
<path class="st3" d="M7.9,16.4c0.1,0,0.1-0.1,0.1-0.1c0.1,0,0.2,0,0.3,0c2.8,0,5.6,0,8.4,0.1c0.4,0,0.8,0,1.1,0.1
	c0.3,0,0.6,0.2,0.6,0.6c0,0.4-0.3,0.6-0.6,0.7c-0.3,0.1-0.7,0-1,0c-2.9,0-5.9,0-8.8,0C8,17.3,7.8,16.8,7.9,16.4z"/>
<path class="st3" d="M8.4,19c3,0,6.1,0,9.1,0c0.5,0,1,0.1,1,0.7c0,0.6-0.6,0.7-1.1,0.7c-2.9,0-5.7,0-8.6,0C8.7,19.9,8.5,19.5,8.4,19
	z"/>
<g>
	<path class="st4" d="M19.7,6.1c-0.1-0.4-0.4-0.7-0.8-0.7c-0.4,0-0.9,0-1.3,0c-1.7,0.1-3.4,0.2-5.1,0c-0.5,1.5-0.9,3-1.4,4.6
		c-0.3,1.7-1.4,2.7-2.9,3.4c0.1,0.1,0.3,0.3,0.4,0.4c2.6,0,5.2,0,7.8,0.1c0.3,0,0.7,0,1,0c0.5,0,1.1,0,1.1,0.7
		c0,0.6-0.6,0.6-1.1,0.6c-1.2,0-2.5,0-3.7,0c-2,0-3.9,0-5.9,0c0,0.4,0,0.9,0,1.3c0.1,0,0.4-0.1,0.5-0.1c2.8,0,5.6,0,8.4,0.1
		c0.4,0,0.8,0,1.1,0.1c0.3,0,0.6,0.2,0.6,0.6c0,0.4-0.3,0.6-0.6,0.7c-0.3,0.1-0.7,0-1,0c-2.9,0-5.9,0-8.8,0c0,0.5,0.1,0.9,0.3,1.3
		c3,0,6.1,0,9.1,0c0.5,0,1,0.1,1,0.7c0,0.6-0.6,0.7-1.1,0.7c-2.9,0-5.7,0-8.6,0c0.4,0.8,0.8,1.5,1.7,1.9c2.6,0,5.2-0.1,7.8-0.1
		c0.8,0,1.3-0.2,1.3-1.1C19.6,17.1,19.7,6.1,19.7,6.1z"/>
	<path class="st4" d="M6.7,17.8c-0.1-1.2-0.1-2.5-0.2-3.7c0-0.8-0.2-1-0.8-1.1c-0.1-0.1-0.3-0.1-0.4-0.2c0,0.2,0,0.3,0,0.5
		c0,2.5,0,5.1,0,7.6c0,0.8,0.3,1.2,1.1,1.1c0.4,0,0.8,0,1.1,0c0.2,0,0.4,0,0.6,0C8.1,22,8,21.9,7.9,21.8C7.6,20.5,6.9,19.3,6.7,17.8
		z"/>
	<path class="st4" d="M5.2,11c0.1,0.2,0.2,0.5,0.5,0.5c1.3,0.9,2.4,0.8,3.4-0.3c0.4-0.5,0.7-1.1,1-1.6c0.3-1.4,0.7-2.8,1-4.2
		c-1.8,0-3.6,0.1-5.4,0.1C5.2,5.6,5.3,6.1,5.3,6.6C5.3,8,5.3,9.5,5.2,11z"/>
</g>
<g>
	<circle class="st2" cx="18.4" cy="7.3" r="2.3"/>
	<circle class="st5" cx="18.5" cy="7.3" r="1.6"/>
	<circle class="st1" cx="18.5" cy="7.3" r="0.7"/>
</g>
</svg>
