<?xml version="1.0" encoding="utf-8"?>
<!-- Generator: Adobe Illustrator 19.2.1, SVG Export Plug-In . SVG Version: 6.00 Build 0)  -->
<svg version="1.1" id="Layer_1" xmlns="http://www.w3.org/2000/svg" xmlns:xlink="http://www.w3.org/1999/xlink" x="0px" y="0px"
	 viewBox="0 0 25 25" style="enable-background:new 0 0 25 25;" xml:space="preserve">
<style type="text/css">
	.st0{fill:#EDEEEE;}
	.st1{fill:#34545F;}
	.st2{fill:#F4783A;}
	.st3{fill:#14AED4;}
	.st4{fill:#F9C64D;}
</style>
<g>
	<path class="st0" d="M18.2,2.8c0.3,0,0.6,0,0.8,0c-2.1,2.8-4.2,5.6-6.3,8.4c-0.8,1-1.6,2.1-2.4,3.1c-0.6,1.1-0.6,2.4-1,3.5
		c-0.1,0.5,0.3,0.7,0.7,0.5c1.1-0.6,2.2-1,3.1-1.9c0.7-0.6,1.1-1.5,1.6-2.3c2-2.6,3.8-5.3,5.9-7.9c0,0,0.1,0.1,0.1,0.1
		c0,5.3,0,10.7,0,16c0,1.1-0.2,1.3-1.3,1.3c-5,0-10,0-15,0c-1.2,0-1.3-0.2-1.3-1.3c0-6,0-12,0-18c0-1.2,0.1-1.3,1.3-1.3
		c4.2,0,8.5,0,12.7,0C17.6,2.9,17.9,3,18.2,2.8z"/>
	<path class="st1" d="M18.2,2.8c-0.3,0.3-0.6,0.1-0.9,0.1c-4.2,0-8.5,0-12.7,0c-1.2,0-1.3,0.1-1.3,1.3c0,6,0,12,0,18
		c0,1.2,0.2,1.3,1.3,1.3c5,0,10,0,15,0c1.1,0,1.3-0.2,1.3-1.3c0-5.3,0-10.7,0-16c0.5-0.2,0.8-0.1,0.8,0.6c0,5.3,0,10.6,0,15.9
		c0,1-0.5,1.5-1.5,1.5c-5.4,0-10.7,0-16.1,0c-1.1,0-1.5-0.5-1.5-1.6c0-6.3,0-12.7,0-19c0-1.1,0.4-1.6,1.5-1.6c4.5,0,9,0,13.4,0
		C17.9,2.2,18.3,2.2,18.2,2.8z"/>
	<path class="st2" d="M10.3,14.3c0.8-1,1.6-2.1,2.4-3.1c2.1-2.8,4.2-5.6,6.3-8.4c0.4-0.4,0.8-0.9,1.1-1.4C20.5,0.7,21,0.6,21.7,1
		c0.4,0.3,0.8,0.6,1.2,0.9c0.5,0.5,0.4,0.9,0,1.5c-0.7,0.9-1.5,1.8-2.1,2.8c-2.1,2.5-3.9,5.3-5.9,7.9c-0.6,0.7-0.9,1.6-1.6,2.3
		C12.6,15.3,11.6,14.6,10.3,14.3z M12.1,13.9c0.2,0.3,0.5,0.5,0.9,0.7c0.2,0.2,0.4,0.2,0.5,0c1-1.7,2.4-3.2,3.6-4.8
		c0.2-0.3,0.1-0.5-0.1-0.7c-0.2-0.2-0.5-0.3-0.7-0.5c-0.4-0.4-0.7-0.3-1.1,0.2c-1,1.5-1.9,3-3.2,4.3C11.7,13.4,11.6,13.7,12.1,13.9z
		"/>
	<path class="st3" d="M22.8,1.9C22.4,1.6,22,1.3,21.7,1c0.3-0.4,0.6-0.4,1-0.2C23,1.1,23,1.5,22.8,1.9z"/>
	<path class="st4" d="M10.3,14.3c1.3,0.3,2.2,1,2.8,2.1c-0.9,0.9-2.1,1.3-3.1,1.9c-0.4,0.2-0.8,0-0.7-0.5
		C9.7,16.6,9.7,15.4,10.3,14.3z"/>
	<path class="st0" d="M12.1,13.9c-0.5-0.2-0.4-0.5-0.1-0.8c1.3-1.3,2.2-2.8,3.2-4.3c0.3-0.5,0.6-0.5,1.1-0.2C16.5,8.9,16.7,9,17,9.2
		c0.3,0.2,0.3,0.4,0.1,0.7c-1.2,1.6-2.6,3-3.6,4.8c-0.1,0.2-0.3,0.2-0.5,0c0.1-0.1,0.2-0.3,0.3-0.4c0.2-0.3,0.4-0.5,0-0.8
		c-0.4-0.3-0.6-0.1-0.8,0.2C12.4,13.7,12.2,13.8,12.1,13.9z M13.8,13.1c0.1-0.1,0.2-0.1,0.3-0.2c0.7-0.8,1.3-1.6,2-2.4
		c0.3-0.3,0-0.5-0.2-0.6c-0.2-0.2-0.4-0.3-0.7,0c-0.6,0.8-1.2,1.7-1.8,2.5C13.2,12.8,13.5,12.9,13.8,13.1z"/>
	<path class="st3" d="M12.1,13.9c0.1-0.1,0.2-0.2,0.4-0.4c0.2-0.3,0.4-0.5,0.8-0.2c0.4,0.3,0.1,0.5,0,0.8c-0.1,0.1-0.2,0.3-0.3,0.4
		C12.7,14.5,12.4,14.2,12.1,13.9z"/>
	<path class="st3" d="M13.8,13.1c-0.3-0.2-0.7-0.3-0.4-0.7c0.6-0.8,1.2-1.7,1.8-2.5c0.2-0.3,0.4-0.1,0.7,0c0.2,0.2,0.5,0.3,0.2,0.6
		c-0.7,0.8-1.3,1.6-2,2.4C14,13,13.9,13.1,13.8,13.1z"/>
</g>
</svg>
