<?xml version="1.0" encoding="utf-8"?>
<!-- Generator: Adobe Illustrator 19.2.1, SVG Export Plug-In . SVG Version: 6.00 Build 0)  -->
<svg version="1.1" id="Layer_1" xmlns="http://www.w3.org/2000/svg" xmlns:xlink="http://www.w3.org/1999/xlink" x="0px" y="0px"
	 viewBox="0 0 36 32" style="enable-background:new 0 0 36 32;" xml:space="preserve">
<style type="text/css">
	.st0{fill:#909098;}
</style>
<title>keyboard</title>
<path class="st0" d="M34,4H2C0.9,4,0,4.9,0,6v20c0,1.1,0.9,2,2,2h32c1.1,0,2-0.9,2-2V6C36,4.9,35.1,4,34,4z M20,8h4v4h-4V8z M26,14
	v4h-4v-4H26z M14,8h4v4h-4V8z M20,14v4h-4v-4H20z M8,8h4v4H8V8z M14,14v4h-4v-4H14z M4,8h2v4H4V8z M4,14h4v4H4V14z M6,24H4v-4h2V24z
	 M24,24H8v-4h16V24z M32,24h-6v-4h6V24z M32,18h-4v-4h4V18z M32,12h-6V8h6V12z"/>
</svg>
