<?xml version="1.0" encoding="utf-8"?>
<!-- Generator: Adobe Illustrator 19.2.1, SVG Export Plug-In . SVG Version: 6.00 Build 0)  -->
<svg version="1.1" id="Layer_1" xmlns="http://www.w3.org/2000/svg" xmlns:xlink="http://www.w3.org/1999/xlink" x="0px" y="0px"
	 viewBox="0 0 25 25" style="enable-background:new 0 0 25 25;" xml:space="preserve">
<style type="text/css">
	.st0{fill:#F47F1F;}
	.st1{fill:#D6D6D6;}
	.st2{fill:#EEEFEE;}
</style>
<path class="st0" d="M17.1,13.5c1.1,2,2.3,3.9,3.4,5.9c0.5,0.9,1.1,1.8,1.5,2.7c0.6,1.3-0.6,2.6-1.7,2.6c-4,0-8,0-12,0
	c-0.9,0-1.8,0-2.7,0c-1.5,0-2.3-1.4-1.7-2.7c1.3-2.7,2.7-5.3,4-8c0-0.1,0.1-0.1,0.1-0.2c0,0,0,0,0,0c0.3,0,0.4-0.3,0.7-0.4
	c1.6-1,3.2-1.2,4.9-0.1c0.3,0.2,0.7,0.4,1,0.5c0.8,0.3,1.6,0.4,2.3-0.3C17,13.5,17.1,13.5,17.1,13.5z M11.3,19.8
	c0-0.6-0.5-1.1-1.2-1.1c-0.6,0-1.1,0.5-1.1,1.2c0,0.6,0.5,1.1,1.2,1.1C10.8,20.9,11.4,20.4,11.3,19.8z M15.2,16.8
	c0-0.5-0.4-0.9-0.9-0.9c-0.5,0-0.9,0.4-1,0.9c0,0.5,0.4,0.9,0.9,0.9C14.8,17.7,15.2,17.3,15.2,16.8z M18,18.7
	c-0.5,0-0.9,0.4-0.9,0.9c0,0.5,0.4,0.9,0.9,0.9c0.5,0,0.9-0.4,0.9-0.9C19,19.1,18.5,18.7,18,18.7z M12.1,14.4
	c-0.2,0-0.3,0.1-0.4,0.3c0,0.2,0.1,0.3,0.3,0.4c0.2,0,0.4-0.1,0.4-0.3C12.4,14.6,12.3,14.5,12.1,14.4z"/>
<path class="st1" d="M17.1,13.5c-0.1,0-0.2,0-0.2,0c-0.7,0.6-1.5,0.6-2.3,0.3c-0.4-0.1-0.7-0.3-1-0.5c-1.7-1.1-3.3-0.9-4.9,0.1
	c-0.2,0.1-0.4,0.4-0.7,0.4c0.3-0.8,0.6-1.5,1.1-2.2c0.5-0.9,1-1.7,1-2.8c-0.1-2.2,0-4.4,0-6.6c0-0.5-0.1-0.7-0.6-0.6
	c-0.2,0-0.4,0-0.6,0C8.7,1.4,8.4,1.4,8.4,1c0-0.3,0.1-0.6,0.5-0.6c2.4,0,4.7,0,7.1,0c0.4,0,0.7,0.1,0.7,0.5c0,0.4-0.3,0.6-0.7,0.6
	c-1.1,0-1.2,0-1.1,1.2C15,5,15,7.2,15,9.5c0,0.7,0.5,1.1,0.8,1.7C16.2,11.9,16.7,12.7,17.1,13.5z M13.4,9.6c0-0.3-0.2-0.6-0.6-0.6
	c-0.3,0-0.6,0.2-0.6,0.6c0,0.4,0.2,0.6,0.6,0.6C13.2,10.2,13.4,10,13.4,9.6z M13.3,4.3c0-0.2-0.1-0.3-0.3-0.3
	c-0.2,0-0.3,0.1-0.3,0.3c0,0.2,0.1,0.4,0.3,0.3C13.2,4.6,13.3,4.4,13.3,4.3z"/>
<path class="st2" d="M8.1,13.7c0,0.1-0.1,0.1-0.1,0.2C8,13.8,8.1,13.8,8.1,13.7z"/>
<ellipse transform="matrix(1 -9.452799e-003 9.452799e-003 1 -0.1868 9.731764e-002)" class="st2" cx="10.2" cy="19.8" rx="1.1" ry="1.1"/>
<path class="st2" d="M15.2,16.8c0,0.5-0.4,0.9-1,0.9c-0.5,0-0.9-0.4-0.9-0.9c0-0.5,0.4-0.9,1-0.9C14.8,15.9,15.2,16.3,15.2,16.8z"/>
<path class="st2" d="M18,18.7c0.5,0,0.9,0.4,0.9,0.9c0,0.5-0.4,0.9-0.9,0.9c-0.5,0-0.9-0.4-0.9-0.9C17.2,19.1,17.6,18.7,18,18.7z"/>
<path class="st2" d="M12.1,14.4c0.2,0,0.3,0.1,0.3,0.3c0,0.2-0.2,0.4-0.4,0.3c-0.2,0-0.3-0.2-0.3-0.4C11.8,14.6,11.9,14.5,12.1,14.4
	z"/>
<path class="st0" d="M13.4,9.6c0,0.4-0.2,0.6-0.6,0.6c-0.4,0-0.6-0.3-0.6-0.6c0-0.3,0.2-0.5,0.6-0.6C13.2,9,13.4,9.2,13.4,9.6z"/>
<path class="st0" d="M13.3,4.3c0,0.2-0.1,0.3-0.3,0.3c-0.2,0-0.3-0.1-0.3-0.3c0-0.2,0.1-0.3,0.3-0.3C13.2,3.9,13.3,4.1,13.3,4.3z"/>
</svg>
