<?xml version="1.0" encoding="utf-8"?>
<!-- Generator: Adobe Illustrator 19.2.1, SVG Export Plug-In . SVG Version: 6.00 Build 0)  -->
<svg version="1.1" id="Layer_1" xmlns="http://www.w3.org/2000/svg" xmlns:xlink="http://www.w3.org/1999/xlink" x="0px" y="0px"
	 viewBox="0 0 25 25" style="enable-background:new 0 0 25 25;" xml:space="preserve">
<style type="text/css">
	.st0{fill:#ECEDEC;}
	.st1{fill:#FAC74A;}
	.st2{fill:#2F505B;}
	.st3{fill:#0CA9D0;}
	.st4{fill:#F5390A;}
	.st5{fill:#FEFEFE;}
</style>
<path class="st0" d="M15.7,20.3c-2.2,0.9-4.2,2.1-6.3,3.1c-1.3,0.6-1.3,0.7-2-0.6c-2.1-4.2-4.2-8.4-6.4-12.5c-0.3-0.7-0.2-1,0.4-1.3
	c3.1-1.6,6.3-3.2,9.4-4.8C11.5,3.8,11.7,4,12,4.5c0.7,1.4,1.4,2.7,2.1,4.1c0,0.2-0.1,0.4,0.2,0.5c0.8,1.7,1.7,3.4,2.6,5.2
	c0.3-0.4,0.4-0.7,0.4-1c0.1-0.6,0.3-0.6,0.8-0.5c1.1,0.3,2.3,0.7,3.5,0.9c0.5,0.1,0.5,0.3,0.4,0.7c-0.3,0.9-0.5,1.8-0.7,2.6
	c-0.4,1.4-0.4,1.4-1.9,1.1c-0.2,0-0.5-0.3-0.6,0c-0.1,0.5-0.6,0.6-0.9,0.8C17.2,19.5,16.3,19.6,15.7,20.3z M7.2,8.9
	c0,0.1-0.1,0.3,0.1,0.4c0,0,0.1,0,0.1-0.1C7.5,9,7.4,9,7.2,8.9c0-0.5-0.3-0.9-0.7-1.3C6.7,8,6.8,8.6,7.2,8.9z M9.8,8.4
	c0.4-0.2,0.8-0.4,1.2-0.6c0.4-0.2,0.4-0.6,0.3-0.9c-0.2-0.4-0.5-0.5-0.9-0.4C9.9,6.6,9.5,6.9,9.1,7.1c-0.3,0.2-0.7,0.3-1,0.5
	c-0.4,0.2-0.6,0.6-0.3,1c0.2,0.4,0.6,0.5,1,0.4C9.2,8.8,9.5,8.6,9.8,8.4z M5.8,12c-0.3,0.2-0.7,0.3-1,0.5c-0.4,0.2-0.6,0.6-0.4,1
	C4.6,14,5.1,14,5.5,13.9c0.4-0.1,0.7-0.4,1-0.5c0.3-0.2,0.7-0.3,1-0.5c0.5-0.2,0.6-0.6,0.4-1.1c-0.2-0.5-0.7-0.6-1.1-0.3
	C6.4,11.6,6.1,11.8,5.8,12z M10.4,21.1c0.4-0.1,0.8-0.3,1.1-0.5c0.4-0.2,0.5-0.6,0.3-0.9c-0.2-0.4-0.5-0.6-0.9-0.5
	c-0.4,0.1-0.8,0.4-1.2,0.6c-0.3,0.2-0.7,0.3-1,0.5c-0.4,0.2-0.5,0.6-0.3,1c0.2,0.4,0.6,0.5,1,0.4C9.8,21.6,10.2,21.4,10.4,21.1z
	 M7.1,14.5c-0.3,0.2-0.7,0.3-1,0.5c-0.4,0.2-0.6,0.6-0.4,1c0.2,0.5,0.7,0.5,1.1,0.4c0.3-0.1,0.6-0.3,0.9-0.5
	c0.4-0.2,0.8-0.3,1.1-0.5c0.4-0.2,0.5-0.6,0.3-1c-0.2-0.4-0.6-0.6-1-0.4C7.8,14.1,7.5,14.3,7.1,14.5z M13,14.7
	c-0.3,0.2-0.7,0.3-1,0.5c-0.4,0.2-0.6,0.6-0.4,1c0.2,0.4,0.6,0.6,1,0.4c0.3-0.2,0.6-0.3,1-0.5c0.4-0.2,0.8-0.3,1.1-0.6
	c0.4-0.2,0.5-0.6,0.3-1c-0.2-0.5-0.6-0.6-1-0.4C13.7,14.3,13.4,14.5,13,14.7z M10.4,9.6c-0.3,0.1-0.7,0.3-1,0.5
	c-0.4,0.2-0.6,0.6-0.4,1c0.2,0.5,0.6,0.6,1,0.4c0.4-0.1,0.7-0.4,1-0.5c0.3-0.2,0.7-0.3,1-0.5c0.4-0.2,0.6-0.5,0.4-1
	c-0.2-0.5-0.6-0.6-1-0.4C11.1,9.2,10.8,9.4,10.4,9.6z M11.7,12.2c-0.3,0.1-0.7,0.3-1,0.4c-0.4,0.2-0.6,0.6-0.4,1
	c0.2,0.5,0.6,0.6,1.1,0.4c0.3-0.1,0.6-0.3,0.9-0.5c0.3-0.2,0.7-0.3,1-0.5c0.4-0.2,0.6-0.6,0.3-1c-0.2-0.5-0.6-0.5-1-0.4
	C12.4,11.7,12.1,12,11.7,12.2z M8.4,17c-0.4,0.2-0.8,0.3-1.1,0.5c-0.4,0.2-0.5,0.6-0.3,1C7.2,19,7.6,19.1,8,19
	c0.4-0.1,0.8-0.3,1.1-0.6c0.4-0.2,0.8-0.3,1.1-0.5c0.4-0.2,0.4-0.6,0.3-1c-0.2-0.4-0.5-0.6-1-0.4C9.1,16.6,8.8,16.8,8.4,17z
	 M4.5,9.4c-0.3,0.1-0.7,0.3-1,0.5c-0.4,0.2-0.6,0.6-0.4,1c0.2,0.5,0.7,0.6,1.1,0.4c0.4-0.1,0.7-0.4,1-0.6c0.4-0.2,0.7-0.3,1.1-0.5
	c0.4-0.2,0.5-0.6,0.3-1c-0.2-0.4-0.5-0.6-1-0.4C5.2,9,4.9,9.3,4.5,9.4z M14.4,17.4c-0.3,0.2-0.7,0.3-1,0.5c-0.4,0.2-0.5,0.6-0.3,1
	c0.2,0.5,0.6,0.6,1,0.4c0.4-0.1,0.7-0.3,1-0.6c0.3-0.2,0.7-0.3,1-0.5c0.4-0.2,0.6-0.5,0.4-1c-0.2-0.5-0.6-0.6-1.1-0.4
	C15.1,17,14.7,17.2,14.4,17.4z M17.8,14.7c-0.2,0-0.5,0-0.5,0.3c0,0.3,0.1,0.7,0.5,0.7c0.8,0.1,0.9,0.5,0.6,1.1
	c-0.1,0.3,0,0.6,0.3,0.7c0.3,0.1,0.6-0.1,0.7-0.4c0.1-0.9,0.6-0.9,1.3-0.7c0.3,0.1,0.5,0,0.6-0.3c0.1-0.3-0.1-0.5-0.3-0.6
	c-0.1-0.1-0.3-0.1-0.4-0.1c-0.5-0.1-0.6-0.3-0.5-0.7c0.1-0.4,0.2-0.8-0.3-1c-0.5-0.1-0.7,0.3-0.7,0.7c-0.1,0.5-0.3,0.6-0.8,0.4
	C18.1,14.7,17.9,14.7,17.8,14.7z M9.5,13c-0.1,0-0.1,0.1-0.2,0.1c0.3,0.6,0.6,1.2,0.9,1.8c0.1,0,0.1-0.1,0.2-0.1
	C10.1,14.2,9.9,13.6,9.5,13z M12.5,19.1c0.1,0.5,0.3,1,0.7,1.4C13.1,20,12.9,19.5,12.5,19.1z M11.6,17.7c0-0.5-0.2-0.9-0.6-1.2
	C11.3,16.9,11.5,17.3,11.6,17.7z M8.2,10.4c-0.1,0-0.1,0.1-0.2,0.1c0.2,0.4,0.3,0.7,0.5,1.1c0.1,0,0.1-0.1,0.2-0.1
	C8.5,11.1,8.3,10.8,8.2,10.4z"/>
<path class="st1" d="M15.7,20.3c0.6-0.7,1.5-0.8,2.2-1.3c0.3-0.2,0.8-0.2,0.9-0.8c0.1-0.3,0.4-0.1,0.6,0c1.5,0.3,1.5,0.3,1.9-1.1
	c0.2-0.9,0.4-1.8,0.7-2.6c0.1-0.4,0.1-0.6-0.4-0.7c-1.2-0.3-2.3-0.6-3.5-0.9c-0.5-0.2-0.8-0.1-0.8,0.5c0,0.3-0.1,0.7-0.4,1
	c-0.9-1.8-1.7-3.5-2.6-5.2c0.6,0.1,1.2,0.1,1.7,0.3c2,0.7,4.1,1,6.1,1.7c0.4,0.1,0.8,0.1,1.2,0.4c-0.6,2.4-1.2,4.7-1.8,7.1
	c-0.1,0.5-0.3,1-0.4,1.5c-0.3,1.1-0.9,1.4-2,1.2C18,20.9,16.9,20.6,15.7,20.3z"/>
<path class="st2" d="M23.4,11.4c-0.4-0.2-0.8-0.2-1.2-0.4c-2-0.7-4.1-1-6.1-1.7c-0.5-0.2-1.1-0.2-1.7-0.3C14,9,14.1,8.7,14.1,8.6
	c0-0.1,0.1-0.2,0.1-0.3c0.5-1.8,0.8-1.9,2.7-1.5c2,0.5,4.1,1,6.1,1.6c1.3,0.4,1.8,1.8,1,2.8C23.8,11.4,23.5,11.4,23.4,11.4z"/>
<path class="st3" d="M17.8,14.7c0.1,0,0.3,0.1,0.4,0.1c0.4,0.2,0.7,0,0.8-0.4c0.1-0.4,0.2-0.8,0.7-0.7c0.5,0.1,0.4,0.6,0.3,1
	c-0.2,0.5,0,0.7,0.5,0.7c0.2,0,0.3,0.1,0.4,0.1c0.2,0.1,0.4,0.3,0.3,0.6c-0.1,0.3-0.3,0.4-0.6,0.3c-0.7-0.3-1.2-0.2-1.3,0.7
	c0,0.3-0.3,0.5-0.7,0.4c-0.3-0.1-0.4-0.4-0.3-0.7c0.2-0.6,0.1-1-0.6-1.1c-0.3,0-0.5-0.4-0.5-0.7C17.3,14.7,17.5,14.7,17.8,14.7z"/>
<path class="st3" d="M14.4,17.4c0.3-0.2,0.7-0.4,1-0.5c0.5-0.2,0.8-0.1,1.1,0.4c0.2,0.5,0,0.8-0.4,1c-0.3,0.2-0.7,0.3-1,0.5
	C14.9,18.3,14.6,17.9,14.4,17.4z"/>
<path class="st4" d="M5.2,10.8c-0.3,0.2-0.6,0.4-1,0.6c-0.4,0.2-0.9,0.1-1.1-0.4c-0.2-0.5,0-0.8,0.4-1c0.3-0.2,0.7-0.3,1-0.5
	C4.8,9.9,5,10.3,5.2,10.8z"/>
<path class="st4" d="M9.1,18.4C8.8,18.7,8.4,18.8,8,19c-0.4,0.2-0.8,0-1-0.4c-0.2-0.4-0.1-0.8,0.3-1C7.6,17.4,8,17.2,8.4,17
	C8.6,17.5,8.9,17.9,9.1,18.4z"/>
<path class="st3" d="M11.7,12.2c0.3-0.2,0.7-0.4,1-0.6c0.4-0.2,0.8-0.1,1,0.4c0.2,0.5,0.1,0.8-0.3,1c-0.3,0.2-0.7,0.3-1,0.5
	C12.2,13.1,12,12.6,11.7,12.2z"/>
<path class="st3" d="M10.4,9.6c0.4-0.2,0.7-0.4,1.1-0.6c0.4-0.2,0.8,0,1,0.4c0.2,0.4,0,0.8-0.4,1c-0.3,0.2-0.7,0.3-1,0.5
	C10.9,10.5,10.7,10.1,10.4,9.6z"/>
<path class="st4" d="M13.7,16.1c-0.3,0.2-0.6,0.4-1,0.5c-0.5,0.2-0.8,0-1-0.4c-0.2-0.4-0.1-0.8,0.4-1c0.3-0.2,0.7-0.3,1-0.5
	C13.2,15.2,13.5,15.6,13.7,16.1z"/>
<path class="st4" d="M10.4,9.6c0.2,0.4,0.5,0.9,0.7,1.3c-0.3,0.2-0.7,0.4-1,0.5c-0.4,0.2-0.8,0.1-1-0.4c-0.2-0.5-0.1-0.8,0.4-1
	C9.8,9.9,10.1,9.8,10.4,9.6z"/>
<path class="st3" d="M7.1,14.5c0.4-0.2,0.7-0.4,1.1-0.6c0.4-0.2,0.8,0,1,0.4c0.2,0.4,0.1,0.8-0.3,1c-0.4,0.2-0.7,0.4-1.1,0.5
	C7.6,15.4,7.3,15,7.1,14.5z"/>
<path class="st4" d="M7.1,14.5c0.2,0.4,0.4,0.9,0.7,1.3c-0.3,0.2-0.6,0.4-0.9,0.5c-0.5,0.2-0.9,0.1-1.1-0.4c-0.2-0.4,0-0.8,0.4-1
	C6.4,14.8,6.8,14.7,7.1,14.5z"/>
<path class="st3" d="M9.8,19.8c0.4-0.2,0.7-0.5,1.2-0.6c0.5-0.1,0.8,0.1,0.9,0.5c0.2,0.4,0.1,0.7-0.3,0.9c-0.4,0.2-0.7,0.4-1.1,0.5
	C10.2,20.7,10,20.2,9.8,19.8z"/>
<path class="st4" d="M6.5,13.3c-0.3,0.2-0.7,0.4-1,0.5C5.1,14,4.6,14,4.4,13.5c-0.2-0.5,0-0.8,0.4-1c0.3-0.2,0.7-0.3,1-0.5
	C6,12.4,6.3,12.9,6.5,13.3z"/>
<path class="st4" d="M14.4,17.4c0.2,0.4,0.5,0.9,0.7,1.3c-0.3,0.3-0.7,0.4-1,0.6c-0.5,0.2-0.8,0-1-0.4c-0.2-0.4-0.1-0.8,0.3-1
	C13.7,17.7,14.1,17.6,14.4,17.4z"/>
<path class="st3" d="M6.5,13.3C6.3,12.9,6,12.4,5.8,12c0.3-0.2,0.6-0.4,0.9-0.5c0.5-0.2,0.9-0.1,1.1,0.3c0.2,0.5,0.1,0.8-0.4,1.1
	C7.2,13,6.8,13.2,6.5,13.3z"/>
<path class="st4" d="M9.8,19.8c0.2,0.4,0.5,0.9,0.7,1.3c-0.3,0.3-0.7,0.5-1.1,0.6c-0.4,0.1-0.8,0-1-0.4c-0.2-0.4,0-0.8,0.3-1
	C9,20.1,9.4,20,9.8,19.8z"/>
<path class="st3" d="M9.1,7.1c0.4-0.3,0.8-0.5,1.2-0.6c0.4-0.1,0.7,0,0.9,0.4c0.2,0.4,0.1,0.7-0.3,0.9c-0.4,0.2-0.8,0.4-1.2,0.6
	C9.6,8,9.3,7.6,9.1,7.1z"/>
<path class="st4" d="M9.1,7.1C9.3,7.6,9.6,8,9.8,8.4C9.5,8.6,9.2,8.8,8.9,9c-0.4,0.2-0.8,0.1-1-0.4c-0.2-0.5-0.1-0.8,0.3-1
	C8.4,7.4,8.8,7.3,9.1,7.1z"/>
<path class="st3" d="M5.2,10.8C5,10.3,4.8,9.9,4.5,9.5C4.9,9.3,5.2,9,5.6,8.9c0.4-0.2,0.8,0,1,0.4c0.2,0.4,0.1,0.8-0.3,1
	C5.9,10.5,5.6,10.6,5.2,10.8z"/>
<path class="st4" d="M11.7,12.2c0.2,0.5,0.5,0.9,0.7,1.4c-0.3,0.2-0.6,0.4-0.9,0.5c-0.5,0.2-0.9,0.1-1.1-0.4c-0.2-0.5-0.1-0.8,0.4-1
	C11.1,12.4,11.4,12.3,11.7,12.2z"/>
<path class="st3" d="M9.1,18.4c-0.2-0.4-0.4-0.9-0.7-1.3c0.4-0.2,0.7-0.4,1.1-0.6c0.4-0.2,0.8,0.1,1,0.4c0.2,0.3,0.1,0.7-0.3,1
	C9.8,18,9.5,18.2,9.1,18.4z"/>
<path class="st3" d="M13.7,16.1c-0.2-0.5-0.4-0.9-0.7-1.4c0.3-0.2,0.7-0.4,1-0.5c0.4-0.2,0.8-0.1,1,0.4c0.2,0.4,0.1,0.8-0.3,1
	C14.4,15.7,14.1,15.9,13.7,16.1z"/>
<path class="st5" d="M9.5,13c0.4,0.6,0.7,1.2,0.9,1.8c-0.1,0-0.1,0.1-0.2,0.1c-0.3-0.6-0.6-1.2-0.9-1.8C9.3,13.1,9.4,13,9.5,13z"/>
<path class="st5" d="M12.5,19.1c0.4,0.4,0.6,0.9,0.7,1.4C12.8,20.2,12.6,19.7,12.5,19.1z"/>
<path class="st5" d="M7.2,8.9C6.8,8.6,6.7,8,6.6,7.6C6.9,7.9,7.2,8.3,7.2,8.9L7.2,8.9z"/>
<path class="st5" d="M11.6,17.7c-0.2-0.4-0.4-0.8-0.6-1.2C11.4,16.8,11.7,17.2,11.6,17.7z"/>
<path class="st5" d="M8.2,10.4c0.2,0.4,0.4,0.7,0.5,1.1c-0.1,0-0.1,0.1-0.2,0.1c-0.2-0.4-0.3-0.7-0.5-1.1C8,10.5,8.1,10.4,8.2,10.4z
	"/>
<path class="st5" d="M7.2,8.9C7.4,9,7.5,9,7.5,9.2c0,0-0.1,0.1-0.1,0.1C7.2,9.2,7.3,9,7.2,8.9C7.2,8.9,7.2,8.9,7.2,8.9z"/>
</svg>
