<?xml version="1.0" encoding="utf-8"?>
<!-- Generator: Adobe Illustrator 19.2.1, SVG Export Plug-In . SVG Version: 6.00 Build 0)  -->
<svg version="1.1" id="Layer_1" xmlns="http://www.w3.org/2000/svg" xmlns:xlink="http://www.w3.org/1999/xlink" x="0px" y="0px"
	 viewBox="0 0 25 25" style="enable-background:new 0 0 25 25;" xml:space="preserve">
<style type="text/css">
	.st0{fill:#333694;}
	.st1{fill:#0696DA;}
	.st2{fill:#FF931E;}
	.st3{fill:#323593;}
</style>
<path class="st0" d="M9.3,16.5c-0.2,1.3-0.3,2.5-0.5,3.8c-0.2,1.1-0.3,2.3-0.6,3.4C8,23.8,8,24,7.9,24c-0.2,0-0.3-0.2-0.3-0.3
	c-0.1-0.6-0.3-1.2-0.3-1.9c0.3-0.2,0.3-0.4,0-0.5c-0.1-1.3-0.1-2.6-0.3-3.9c0-0.1,0-0.1,0-0.2c-0.1-0.3-0.2-0.7-0.6-0.7
	C6,16.5,6,17,6,17.2c-0.2,1.4-0.3,2.9-0.4,4.3c-0.1,0.8-0.3,1.5-0.4,2.2c0,0.2-0.1,0.4-0.3,0.4c-0.2,0-0.3-0.2-0.3-0.4
	c-0.5-1.2-0.6-2.4-0.6-3.6c0.3-0.4,0.3-2.5,0-2.9c0.1-2.1,0.4-4,1.1-6c0.2-0.4,0.2-0.9,0.2-1.3c0-0.5-0.3-0.7-0.8-0.5
	c-0.6,0.3-1.1,0.7-1.5,1.1c-0.6,0.6-1.2,1.1-2.1,1.6c0.1-0.9,0.5-1.5,0.9-2.1c0.9-1.2,1.9-2.4,3.1-3.4C6,6,7.2,5.5,8.6,5.5
	c1.5,0,2.6,1.1,3.1,2.6c0.4,1.4,0.4,2.8,0.1,4.3c0,0.2,0,0.4,0,0.6c-0.2,0.2-0.3,0.5-0.3,0.8c-0.2,0.2-0.3,0.5-0.5,0.7
	c-0.2,0.2-0.3,0.2-0.4-0.1c-0.2-0.5-0.3-1-0.1-1.5c0.2-0.7,0.1-1.5,0.2-2.2c0-0.1,0-0.3-0.1-0.3c-0.2,0-0.2,0.1-0.3,0.3
	c0,0.1,0,0.2-0.1,0.2c-0.4,1.4-0.5,2.9-0.8,4.4c-0.2,0-0.3,0-0.5,0.1c-0.2,0.1-0.4,0.1-0.5,0.4c0,0.2,0.2,0.3,0.3,0.4
	C8.9,16.2,9.1,16.4,9.3,16.5z"/>
<path class="st1" d="M17.1,9c0.4-0.7,0.7-0.8,1.5-0.5c1.3,0.5,2.5,1.3,3.5,2.2c0.8,0.7,1.5,1.3,2,2.2c0.1,0.1,0.3,0.2,0.1,0.4
	c-0.1,0.1-0.3,0.1-0.5,0c-0.8-0.4-1.7-0.8-2.6-1.2c-0.1-0.1-0.2-0.1-0.3-0.2c-0.1-0.1-0.3-0.2-0.4-0.1c-0.2,0.1-0.1,0.3,0,0.5
	c0.4,1.1,1,2,1.6,2.9c0.6,0.9,1.2,1.9,1.8,2.8c0.3,0.4,0.2,0.6-0.3,0.7c-1.4,0.2-1.4,0.2-1.6,1.7c-0.1,0.9-0.3,1.9-0.6,2.8
	c0,0.1-0.1,0.3-0.2,0.4c-0.1,0.2-0.2,0.4-0.4,0.4c-0.3,0-0.2-0.3-0.2-0.5c0-1.1,0-2.2,0-3.3c0-1.1-0.9-1.5-1.8-1.1
	c-0.1,0.1-0.2,0.2-0.2,0.3c-0.1,0.6-0.3,1.3-0.4,1.9c-0.1,1-0.4,1.9-0.9,2.8c-0.1,0.1-0.2,0.3-0.4,0.3c-0.2,0-0.2-0.3-0.2-0.4
	c-0.2-0.6-0.1-1.2,0-1.8c0.1-0.7,0.1-1.5,0.1-2.2c0-0.6-0.2-0.8-0.8-0.6c-0.3,0.1-0.6,0.1-0.9,0.2c0-0.3,0-0.5,0-0.8
	c0.1-0.8,0.3-1.4,1.2-1.7c0.5-0.1,0.9-0.3,1.3-0.5c0.1,0,0.3-0.1,0.3-0.2c0-0.2-0.2-0.2-0.3-0.3c-0.4-0.3-0.9-0.3-1.4-0.3
	c0.1-0.7,0.5-1.3,0.7-2c0-0.2,0.2-0.4,0-0.6c-0.2-0.1-0.4,0.2-0.4,0.3c-0.4,0.8-0.8,1.6-1.1,2.4c-0.1,0-0.2,0-0.3,0
	c0-0.2,0.4-2.3,0.4-2.5C15.4,13.4,16.2,10.3,17.1,9z"/>
<path class="st2" d="M16.1,15.9c0.5,0,1,0,1.4,0.3c0.1,0.1,0.3,0.1,0.3,0.3c0,0.2-0.2,0.2-0.3,0.2c-0.4,0.2-0.9,0.3-1.3,0.5
	c-0.8,0.3-1.1,0.9-1.2,1.7c0,0.3,0,0.5,0,0.8c-0.1,0.8-0.3,1.7-0.3,2.5c0,0.6-0.1,1.2-0.4,1.7c-0.1,0.1-0.1,0.3-0.3,0.2
	c-0.2,0-0.1-0.2-0.2-0.3c-0.1-0.8-0.1-1.7-0.3-2.5c-0.1-0.4-0.2-0.6-0.6-0.6c-0.4,0-0.6,0.3-0.7,0.7c-0.1,0.6-0.1,1.2-0.1,1.9
	c0,0.4,0,0.7,0,1.1c0,0.1,0.1,0.3-0.1,0.3c-0.2,0-0.2-0.1-0.3-0.2c-0.5-0.8-0.6-1.6-0.7-2.5c-0.1-1.3-0.2-2.6-0.2-3.9
	c-0.1-0.8-0.8-1.5-1.7-1.6c-0.2-0.1-0.3-0.2-0.5-0.4C8.6,16,8.4,16,8.4,15.7c0-0.2,0.3-0.3,0.5-0.4c0.2-0.1,0.3,0,0.5-0.1
	c0.2,0.3,0.6,0.3,0.9,0.4c1.3,0.6,2.7,0.9,4.1,0.5c0.2,0,0.4-0.1,0.5-0.3c0.1,0,0.2,0,0.3,0C15.5,16.1,15.9,16.3,16.1,15.9z"/>
<circle class="st3" cx="10.9" cy="3.1" r="2.6"/>
<ellipse transform="matrix(0.9999 -1.014709e-002 1.014709e-002 0.9999 -5.986659e-002 0.1748)" class="st1" cx="17.2" cy="6" rx="2.2" ry="2.2"/>
<path class="st2" d="M14.5,15.2c-0.8,1-2.2,0.9-2.8-0.3c-0.2-0.4-0.2-0.7-0.2-1.1c0-0.3,0.1-0.5,0.3-0.8c0.1,0,0.2-0.1,0.3-0.1
	c1-0.8,2.6-0.3,2.8,1C14.9,14,14.7,15,14.5,15.2z"/>
<path class="st3" d="M3.9,17.3c0.3,0.4,0.3,2.5,0,2.9C3.8,19.2,3.8,18.3,3.9,17.3z"/>
<path class="st3" d="M7.3,21.3c0.3,0.2,0.3,0.3,0,0.5C7.3,21.6,7.3,21.5,7.3,21.3z"/>
</svg>
