<?xml version="1.0" encoding="utf-8"?>
<!-- Generator: Adobe Illustrator 19.2.1, SVG Export Plug-In . SVG Version: 6.00 Build 0)  -->
<svg version="1.1" id="Layer_1" xmlns="http://www.w3.org/2000/svg" xmlns:xlink="http://www.w3.org/1999/xlink" x="0px" y="0px"
	 viewBox="0 0 25 25" style="enable-background:new 0 0 25 25;" xml:space="preserve">
<style type="text/css">
	.st0{fill:#F55343;}
	.st1{fill:#30515B;}
	.st2{fill:#EBEDED;}
	.st3{fill:#FAC749;}
	.st4{fill:#09A9D1;}
	.st5{fill:#FEFEFE;}
</style>
<g>
	<path class="st0" d="M19,7.7c0.4,0,0.7,0,1.1,0c-0.2,1-0.3,2-0.7,2.9c0,0,0-0.1-0.1-0.1c-0.2,0.1-0.4,0.3-0.4,0.4
		c0,0.1,0.1,0.3,0.4,0.3c0.1,0.4,0,0.7-0.2,1c0-0.4-0.4-1-0.6-0.9c-0.3,0.1-0.5,0.3-0.6,0.6c-0.1,0.3,0.3,0.5,0.5,0.6
		c0.2,0.2,0.3-0.1,0.5-0.2c0.1,0,0.2-0.1,0.2-0.2c0.1,0.2,0,0.4-0.1,0.6c-0.4,2.1-0.9,4.1-1.3,6.2c-2.4-0.2-4.9-0.4-7.3-0.6
		c-2.1-0.2-4.3-0.4-6.4-0.5c-0.9-0.1-1-0.2-1.3-1.1c-0.4-1.8-0.9-3.5-1.3-5.3C1.2,10.8,1,9.9,0.8,8.9C0.6,8,0.7,7.8,1.7,7.7
		c0.9,0,1.8,0.1,2.6-0.1c0.5,0.3,1,0.1,1.5,0.1c0.2,0,0.4,0,0.6,0c0.1,0,0.1,0,0.2,0c0.6,0,1.2,0.1,1.9-0.1C9,7.9,9.5,7.7,10,7.7
		c0.5,0,0.9,0,1.4,0c0.3,0,0.5,0,0.8,0c1,0,1.9,0,2.9,0c0.5,0,0.9,0,1.4,0c0.3,0,0.5,0,0.8,0c0.5,0,0.9,0,1.4,0
		C18.7,7.7,18.9,7.7,19,7.7z M18.3,10.4c0.1,0.1,0.1,0.2,0.2,0.2c0.2-0.2,0.5-0.4,0.6-0.6c0.1-0.2-0.2-0.3-0.4-0.5
		c-0.1-0.1-0.1-0.1-0.2-0.2c-0.4,0-0.6,0.3-0.7,0.6C17.8,10.1,18.1,10.2,18.3,10.4z M8.6,13c-0.2-0.1-0.2-0.4-0.5-0.3
		c-0.6,0.2-0.6,0.7-0.2,1.1c0.4,0.5,0.5-0.1,0.7-0.3C9.1,13.3,8.8,13.1,8.6,13z M13.4,9.8c0,0.4,0.3,0.6,0.6,0.8
		c0.1,0.1,0.4-0.3,0.5-0.5c0.3-0.1,0.3-0.3,0-0.5c-0.2-0.2-0.3-0.6-0.7-0.3C13.6,9.4,13.4,9.6,13.4,9.8z M11.1,10.9
		c-0.6-0.7-0.6-0.7-1.1-0.2c-0.1,0.1-0.3,0.2-0.1,0.3c0.1,0.1,0.2,0.5,0.5,0.3c0.1,0.1,0.1,0.3,0.3,0.2
		C10.9,11.4,11.2,11.3,11.1,10.9z M11.9,11.7c-0.1-0.2-0.2-0.3-0.4-0.1c-0.2,0.2-0.5,0.3-0.6,0.6c0.1,0.1,0.3,0.3,0.4,0.4
		c0.2,0.3,0.4,0.2,0.6,0C12.5,12.1,12.5,12.2,11.9,11.7z M17.8,10.8c-0.4-0.5-0.4-0.5-0.8,0c-0.7,0.4,0,0.6,0.1,0.8
		c0.4,0.4,0.5-0.1,0.7-0.2C18.1,11.1,18.1,10.9,17.8,10.8z M14,11.5c-0.2,0-0.7,0.7-0.7,0.8c0.2,0.3,0.4,0.7,0.7,0.6
		c0.3-0.1,0.7-0.4,0.6-0.7C14.6,11.9,14.2,11.7,14,11.5z M14.6,16.8c0-0.1-0.6-0.8-0.7-0.7c-0.3,0.2-0.5,0.4-0.7,0.7
		c0,0.1,0.6,0.7,0.7,0.7C14.2,17.2,14.4,17,14.6,16.8z M17.4,14.9c-0.2,0.2-0.6,0.4-0.6,0.7c0,0.3,0.4,0.5,0.6,0.7
		c0.1,0,0.7-0.6,0.7-0.7C17.9,15.3,17.7,15,17.4,14.9z M15.1,16.3c0.3-0.2,0.6-0.4,0.6-0.7c0-0.3-0.4-0.6-0.7-0.6
		c-0.3,0-0.6,0.3-0.6,0.7C14.5,15.9,14.8,16.1,15.1,16.3z M13.5,15.5c-0.3-0.2-0.4-0.6-0.7-0.6c-0.3,0-0.6,0.4-0.6,0.7
		c0,0.3,0.3,0.6,0.6,0.6C13.1,16.2,13.3,15.9,13.5,15.5z M8.2,16.4c0.3-0.3,0.7-0.5,0.7-0.8c0-0.3-0.4-0.5-0.7-0.7
		c-0.1,0-0.7,0.6-0.7,0.7C7.8,15.9,8,16.1,8.2,16.4z M11.2,13.4c0-0.2-0.5-0.8-0.6-0.8c-0.3,0.2-0.5,0.4-0.7,0.7
		c0,0.1,0.7,0.7,0.7,0.7C10.8,13.8,11.1,13.6,11.2,13.4z M14,15.2c0.2-0.2,0.7-0.4,0.6-0.7c0-0.3-0.4-0.6-0.7-0.6
		c-0.3,0-0.6,0.3-0.6,0.7C13.4,14.7,13.7,15,14,15.2z M11.7,15.2c0.3-0.3,0.7-0.5,0.7-0.8c0-0.3-0.4-0.5-0.7-0.7
		c-0.1,0-0.7,0.7-0.7,0.7C11.2,14.7,11.4,15,11.7,15.2z M16.2,13.8c-0.2,0.2-0.5,0.4-0.6,0.7c0,0.1,0.6,0.7,0.7,0.7
		c0.3-0.2,0.5-0.4,0.7-0.7C16.9,14.3,16.3,13.7,16.2,13.8z M12.8,14c0.1,0,0.7-0.5,0.7-0.7c-0.1-0.3-0.4-0.6-0.6-0.7
		c-0.3,0-0.5,0.4-0.7,0.6C12.1,13.3,12.7,14,12.8,14z M16.2,17.5c0.3-0.3,0.6-0.5,0.6-0.8c0-0.3-0.4-0.5-0.6-0.7
		c-0.1-0.1-0.8,0.6-0.7,0.7C15.8,17,16,17.2,16.2,17.5z M4.9,15.1c0.3-0.2,0.5-0.4,0.7-0.7c0-0.1-0.6-0.7-0.7-0.6
		c-0.3,0.2-0.6,0.4-0.6,0.7C4.2,14.7,4.6,15,4.9,15.1z M5.9,14.8c-0.2,0.2-0.4,0.5-0.6,0.7c-0.1,0.1,0.6,0.8,0.7,0.7
		c0.3-0.2,0.6-0.4,0.6-0.7C6.6,15.3,6.3,15.1,5.9,14.8z M3.6,10.2c-0.2,0.3-0.5,0.5-0.6,0.8c0,0.3,0.4,0.5,0.6,0.7
		c0.1,0.1,0.8-0.6,0.7-0.7C4.3,10.7,4,10.6,3.6,10.2z M11.7,10.7c0.1-0.1,0.1-0.2,0.2-0.3c0.1-0.2,0.5-0.3,0.4-0.6
		c-0.1-0.3-0.3-0.5-0.5-0.6c-0.2-0.1-0.3,0.2-0.5,0.3c-0.3,0.2-0.4,0.5,0,0.7C11.4,10.3,11.5,10.5,11.7,10.7z M16.9,9.9
		c-0.2-0.3-0.4-0.5-0.7-0.7c-0.1,0-0.7,0.6-0.6,0.7c0.1,0.3,0.3,0.6,0.7,0.6C16.6,10.5,16.7,10.2,16.9,9.9z M12.9,10.4
		c-0.4,0.1-0.6,0.3-0.8,0.6c-0.1,0.1,0.6,0.8,0.7,0.7c0.3-0.2,0.6-0.4,0.6-0.7C13.5,10.7,13.1,10.5,12.9,10.4z M7.2,10.6
		c0.2-0.2,0.6-0.4,0.6-0.7c0-0.3-0.4-0.6-0.6-0.6c-0.3,0-0.5,0.3-0.7,0.6C6.4,10,7,10.6,7.2,10.6z M15.1,12.6
		c-0.3,0.2-0.7,0.4-0.7,0.7c0,0.3,0.4,0.5,0.6,0.7c0.1,0,0.8-0.6,0.7-0.7C15.6,13.1,15.4,12.8,15.1,12.6z M17.4,12.6
		c-0.3,0.2-0.5,0.4-0.7,0.7c-0.1,0.1,0.6,0.7,0.7,0.7c0.3-0.1,0.7-0.4,0.7-0.6C18,13.1,17.6,12.8,17.4,12.6z M7.6,11.1
		c0.1,0.2,0.3,0.6,0.6,0.6c0.3,0,0.7-0.4,0.7-0.6c0-0.2-0.4-0.5-0.6-0.7C8.2,10.3,7.6,10.9,7.6,11.1z M15.8,11.1
		c0-0.1-0.6-0.8-0.7-0.8c-0.2,0.2-0.6,0.4-0.6,0.7c0,0.3,0.4,0.6,0.6,0.6C15.4,11.7,15.6,11.3,15.8,11.1z M9.4,13.8
		c-0.2,0-0.7,0.5-0.7,0.7c0.1,0.3,0.4,0.5,0.6,0.7c0.1,0.1,0.8-0.6,0.7-0.7C9.9,14.1,9.6,14,9.4,13.8z M11.2,15.6
		c-0.2-0.3-0.4-0.6-0.7-0.7c-0.3,0-0.5,0.4-0.7,0.6c-0.1,0.1,0.6,0.8,0.7,0.7C10.8,16.1,11,15.9,11.2,15.6z M12.4,16.7
		c-0.2-0.3-0.4-0.5-0.7-0.7c-0.1,0-0.7,0.6-0.7,0.6c0.2,0.3,0.4,0.6,0.7,0.6C12,17.3,12.2,17,12.4,16.7z M9.4,17.1
		c0.3,0.1,0.7-0.1,0.6-0.4c0-0.3-0.4-0.5-0.6-0.7c0,0-0.8,0.6-0.7,0.7C8.8,17,9.1,17.2,9.4,17.1z M4.8,12.9c0.2-0.1,0.5-0.3,0.5-0.6
		c0-0.3-0.1-0.7-0.4-0.8c-0.2,0-0.6,0.3-0.6,0.6C4.2,12.4,4.6,12.6,4.8,12.9z M4.5,13.3c-0.4-0.1-0.4-1-1-0.5c-0.4,0.3-0.4,0.7,0,1
		C4.1,14.2,4.1,13.4,4.5,13.3z M16.9,12.2c0-0.1-0.5-0.7-0.6-0.7c-0.1,0-0.7,0.6-0.7,0.7c0.1,0.3,0.3,0.6,0.6,0.6
		C16.5,12.8,16.7,12.4,16.9,12.2z M6,14c0.1-0.3,0.1-0.6,0.4-0.7c0.2-0.1,0.2-0.2,0-0.3c-0.2-0.1-0.2-0.5-0.5-0.3
		c-0.6,0.2-0.6,0.7-0.2,1.1C5.8,13.8,5.9,13.9,6,14z M7.8,12.1c-0.1-0.3-0.3-0.5-0.7-0.5c-0.3,0-0.6,0.3-0.6,0.6
		c0,0.2,0.3,0.5,0.6,0.5C7.2,12.8,7.8,12.3,7.8,12.1z M2.6,10.6c0.2-0.1,0.3-0.3,0.5-0.5c0.2-0.2,0.1-0.3-0.1-0.5
		C2.8,9.4,2.7,9.1,2.4,9.2c-0.1,0-0.1,0.1-0.1,0.2C2.4,9.8,2.4,10.2,2.6,10.6z M7.1,16.9c0.6,0,0.7,0,0.7-0.2c0-0.1-0.6-0.8-0.7-0.7
		c-0.3,0.2-0.6,0.4-0.6,0.7C6.5,17,6.9,16.8,7.1,16.9z M6.4,14.4c0.6,0.9,0.7,0.9,1.2,0.3c0.1-0.1,0.2-0.2,0.1-0.4
		c-0.1-0.1-0.2-0.2-0.4-0.1C7,14.3,6.8,14.4,6.4,14.4z M9.4,12.8c0.2,0,0.2-0.2,0.1-0.3c-0.2-0.3-0.2-0.5,0-0.7
		c0.2-0.2,0-0.3-0.1-0.2c-0.3,0.1-0.5,0.4-0.7,0.6C8.7,12.2,9.2,12.8,9.4,12.8z M6.5,11c-0.1-0.3-0.3-0.5-0.5-0.6
		c-0.1,0-0.7,0.6-0.6,0.7c0,0.2,0.2,0.3,0.3,0.2C5.9,11.1,6.3,11.2,6.5,11z M18.6,14c0-0.1,0-0.1-0.1-0.2c-0.1-0.1-0.1,0-0.2,0.1
		c-0.1,0.1-0.2,0.2-0.3,0.4c-0.1,0.1-0.3,0.1-0.2,0.3c0.1,0.2,0.2,0.4,0.4,0.4c0.2,0,0.1-0.3,0.2-0.4C18.5,14.3,18.6,14.1,18.6,14z
		 M5.5,16.8c-0.6-0.8-0.6-1-1.3-0.1C4.7,16.7,5.1,16.7,5.5,16.8z M3.9,16c0.2-0.1,0.5-0.3,0.4-0.4c-0.1-0.3-0.3-0.5-0.8-0.7
		C3.8,15.3,3.8,15.7,3.9,16z M16.9,17.7c0.2,0,0.3,0,0.5,0.1c0.2,0,0.3,0,0.4-0.1c0.1-0.2,0-0.4-0.2-0.4
		C17.1,17.1,17.1,17.6,16.9,17.7z M9.8,10.1c0.4-0.3,0.4-0.4-0.3-0.8C9.5,9.6,9.7,9.9,9.8,10.1z M14.7,17.6c0.3,0,0.5,0,0.8,0.1
		C15.1,17,15.1,17,14.7,17.6z M5.7,9.2C6,9.7,6.2,9.4,6.3,9.1C6.1,9.2,5.9,9.1,5.7,9.2z"/>
	<path class="st1" d="M17.8,19.2c0.4-2.1,0.9-4.1,1.3-6.2c0-0.2,0.1-0.4,0.1-0.6l0,0c0.2-0.3,0.3-0.7,0.2-1c0-0.2,0.1-0.4,0.1-0.6
		c0.4-0.9,0.5-2,0.7-2.9c0.4-1.3,0.8-2.7,1.1-4c0.1-0.6,0.3-0.9,1-0.8c0.6,0.1,1.2,0,1.9,0c0.5,0,0.7,0.2,0.7,0.6
		c0,0.5-0.2,0.7-0.7,0.7c-0.4,0-0.9,0-1.3,0c-0.2,0-0.4,0-0.4,0.3c-0.9,3.5-1.8,7.1-2.7,10.6c-0.2,0.9-0.5,1.9-0.7,2.8
		c-0.1,0.3,0,0.5,0.1,0.8c0.6,1,1.1,2,1.7,3.1c0.3,0.6,0.2,0.9-0.5,1.1c-0.7,0.1-1.4,0-2.2,0.1c0.1,0.3,0.3,0.5,0.3,0.9
		c0,0.3-0.1,0.6-0.4,0.8c-0.4,0.3-1,0.3-1.4,0c-0.4-0.3-0.4-0.8-0.1-1.6c-3.8,0-7.6,0-11.4,0c0.3,0.9,0.3,1.3-0.2,1.6
		C4.5,25,4,25,3.6,24.6c-0.4-0.4-0.4-0.8,0-1.6c-0.6,0-1.1,0-1.6,0c-0.2,0-0.5,0-0.7-0.1c-0.4-0.1-0.5-0.3-0.5-0.6
		c0-0.3,0.2-0.5,0.5-0.6c0.2,0,0.4,0,0.6,0c5.6,0,11.1,0,16.7,0c0.7,0,0.7,0,0.4-0.6C18.5,20.5,18.1,19.8,17.8,19.2z"/>
	<path class="st2" d="M11.4,7.7c-0.5,0-0.9,0-1.4,0c-0.2-0.6-0.4-0.7-1-0.4C8.9,7.4,8.7,7.5,8.5,7.6C7.9,7.9,7.3,7.7,6.7,7.7
		c-0.1-0.1-0.1-0.1-0.2,0c-0.2,0-0.4,0-0.6,0C5.8,7.4,5.7,7,5.2,7.1C4.9,7.2,4.5,7.3,4.3,7.6C3.5,7.9,2.6,7.7,1.7,7.7
		C1.5,7.2,1.3,6.7,1,6.2C0.8,5.8,0.8,5.6,1.2,5.4c2.3-1.2,4.6-2.3,6.8-3.5C8.3,1.8,8.4,1.8,8.5,2C9.4,4,10.5,5.8,11.4,7.7z M7.2,5
		c0.3-0.1,0.5-0.2,0.8-0.4C8.2,4.5,8.3,4.3,8.2,4C8,3.7,7.8,3.6,7.5,3.7C7.2,3.8,6.9,3.9,6.7,4.1c-0.3,0-0.5,0.2-0.8,0.3
		C5.7,4.6,5.6,4.8,5.7,5.1c0.1,0.3,0.4,0.4,0.7,0.3C6.7,5.4,7,5.2,7.2,5z M7.6,5.9C7.4,6,7.1,6,6.9,6.2C6.6,6.3,6.5,6.5,6.6,6.9
		c0.2,0.4,0.4,0.4,0.8,0.3C7.6,7.1,7.9,7,8.1,6.8c0.2-0.1,0.5-0.2,0.7-0.4c0.3-0.2,0.4-0.4,0.2-0.7C8.9,5.4,8.7,5.4,8.4,5.5
		C8.1,5.6,7.8,5.7,7.6,5.9z M3.4,5.7C3.2,5.8,3,5.9,2.8,6C2.5,6.2,2.3,6.5,2.4,6.8c0.2,0.3,0.5,0.4,0.8,0.3C3.5,7,3.7,6.9,3.9,6.7
		c0.2-0.1,0.5-0.2,0.7-0.3C5,6.2,5,5.9,4.9,5.6C4.8,5.3,4.5,5.2,4.2,5.3C3.9,5.4,3.7,5.6,3.4,5.7z M4.9,4.4c0,0-0.1,0-0.1,0.1
		C5,4.8,5.2,5.2,5.4,5.6c0,0,0.1,0,0.1-0.1C5.4,5.1,5.2,4.7,4.9,4.4z M6.4,7.2C6.2,6.9,6.1,6.7,6,6.4C6,6.7,6.1,7,6.4,7.2z"/>
	<path class="st3" d="M15,7.7c-1,0-1.9,0-2.9,0c0.4-1.7,0.9-3.3,1.3-5c0.1-0.2,0.1-0.4,0.2-0.5c0.4,0.1,0.8,0.1,1.1,0.2
		c1.4,0.5,2.9,0.7,4.3,1.2c0.3,0.1,0.6,0.1,0.9,0.3c-0.3,1.3-0.6,2.5-1,3.8c-0.2,0-0.3,0-0.5,0C18.7,7.2,18.8,6.6,19,6
		c0.1-0.3,0.1-0.4-0.2-0.5c-0.9-0.2-1.8-0.4-2.6-0.7c-0.3-0.1-0.4,0.1-0.4,0.3C15.5,6,15.3,6.9,15,7.7z"/>
	<path class="st1" d="M20,3.9c-0.3-0.2-0.6-0.2-0.9-0.3c-1.4-0.5-2.9-0.7-4.3-1.2c-0.3-0.1-0.7-0.1-1.1-0.2
		c-0.5-0.4-0.1-0.9,0.1-1.3c0.2-0.5,0.7-0.5,1.1-0.4c0.9,0.2,1.7,0.5,2.6,0.7c0.7,0.2,1.5,0.4,2.2,0.6c0.9,0.3,1.3,1.2,0.7,2
		C20.3,4,20.1,3.9,20,3.9z"/>
	<path class="st2" d="M15,7.7c0.2-0.9,0.4-1.7,0.7-2.6c0.1-0.2,0.1-0.4,0.4-0.3c0.9,0.3,1.8,0.5,2.6,0.7C19.1,5.6,19.1,5.7,19,6
		c-0.2,0.6-0.3,1.2-0.5,1.7c-0.5,0-0.9,0-1.4,0c0-0.5,0.3-0.5,0.7-0.4c0.2,0.1,0.5,0.1,0.6-0.2c0.1-0.3-0.1-0.4-0.4-0.4
		c-0.5-0.1-0.6-0.3-0.4-0.8c0.1-0.2,0-0.4-0.2-0.5c-0.2-0.1-0.4,0-0.5,0.3c-0.1,0.6-0.3,0.7-0.8,0.5c-0.2-0.1-0.4,0-0.5,0.2
		c-0.1,0.2,0.1,0.4,0.3,0.4c0.6,0.1,0.7,0.4,0.5,0.9C16,7.7,15.5,7.7,15,7.7z"/>
	<path class="st4" d="M16.4,7.7c0.2-0.5,0.1-0.8-0.5-0.9c-0.2,0-0.4-0.2-0.3-0.4c0.1-0.2,0.3-0.3,0.5-0.2c0.5,0.2,0.8,0.1,0.8-0.5
		c0-0.2,0.2-0.3,0.5-0.3c0.2,0.1,0.3,0.3,0.2,0.5c-0.2,0.5-0.1,0.7,0.4,0.8c0.2,0,0.4,0.2,0.4,0.4c-0.1,0.3-0.3,0.3-0.6,0.2
		c-0.4-0.1-0.6-0.1-0.7,0.4C16.9,7.7,16.7,7.7,16.4,7.7z"/>
	<path class="st2" d="M14,11.5c0.2,0.2,0.6,0.4,0.6,0.7c0.1,0.3-0.4,0.7-0.6,0.7c-0.3,0.1-0.5-0.3-0.7-0.6
		C13.3,12.1,13.8,11.5,14,11.5z"/>
	<path class="st5" d="M14.6,16.8c-0.2,0.2-0.4,0.4-0.7,0.6c-0.1,0-0.7-0.6-0.7-0.7c0.2-0.3,0.4-0.5,0.7-0.7
		C14,16,14.6,16.6,14.6,16.8z"/>
	<path class="st5" d="M17.4,14.9c0.3,0.2,0.5,0.4,0.7,0.7c0.1,0.1-0.6,0.7-0.7,0.7c-0.3-0.2-0.6-0.4-0.6-0.7
		C16.7,15.3,17.1,15.1,17.4,14.9z"/>
	<path class="st2" d="M15.1,16.3c-0.3-0.2-0.6-0.4-0.7-0.7c0-0.3,0.4-0.6,0.6-0.7c0.3,0,0.6,0.4,0.7,0.6
		C15.7,15.9,15.4,16,15.1,16.3z"/>
	<path class="st5" d="M13.5,15.5c-0.2,0.3-0.4,0.7-0.7,0.7c-0.3,0-0.6-0.4-0.6-0.6c0-0.3,0.3-0.6,0.6-0.7
		C13.1,14.9,13.3,15.4,13.5,15.5z"/>
	<path class="st5" d="M8.2,16.4c-0.2-0.3-0.4-0.5-0.6-0.8c-0.1-0.1,0.6-0.8,0.7-0.7c0.3,0.2,0.6,0.4,0.7,0.7
		C8.9,15.9,8.5,16,8.2,16.4z"/>
	<path class="st2" d="M11.2,13.4c-0.1,0.3-0.4,0.4-0.6,0.6c-0.1,0-0.8-0.6-0.7-0.7c0.2-0.3,0.4-0.5,0.7-0.7
		C10.6,12.6,11.1,13.1,11.2,13.4z"/>
	<path class="st5" d="M14,15.2c-0.3-0.2-0.6-0.4-0.7-0.7c0-0.3,0.4-0.6,0.6-0.7c0.3,0,0.6,0.4,0.7,0.6C14.6,14.7,14.2,14.9,14,15.2z
		"/>
	<path class="st5" d="M11.7,15.2c-0.2-0.3-0.5-0.5-0.7-0.7c-0.1-0.1,0.6-0.8,0.7-0.7c0.3,0.1,0.6,0.4,0.7,0.7
		C12.4,14.7,12,14.9,11.7,15.2z"/>
	<path class="st5" d="M16.2,13.8c0.1,0,0.7,0.6,0.7,0.7c-0.1,0.3-0.4,0.5-0.7,0.7c-0.1,0-0.7-0.6-0.7-0.7C15.7,14.2,16,14,16.2,13.8
		z"/>
	<path class="st5" d="M12.8,14c-0.1,0-0.7-0.7-0.7-0.7c0.2-0.2,0.4-0.6,0.7-0.6c0.3,0,0.5,0.3,0.6,0.7C13.5,13.4,12.9,14,12.8,14z"
		/>
	<path class="st2" d="M16.2,17.5c-0.3-0.3-0.5-0.5-0.7-0.7c-0.1-0.1,0.6-0.7,0.7-0.7c0.3,0.2,0.7,0.4,0.6,0.7
		C16.9,17,16.5,17.2,16.2,17.5z"/>
	<path class="st2" d="M4.9,15.1c-0.3-0.2-0.6-0.4-0.7-0.7c0-0.3,0.4-0.5,0.6-0.7c0.1,0,0.7,0.5,0.7,0.6C5.4,14.7,5.1,14.9,4.9,15.1z
		"/>
	<path class="st2" d="M5.9,14.8c0.3,0.3,0.7,0.4,0.6,0.7c0,0.3-0.4,0.5-0.6,0.7c-0.1,0-0.7-0.7-0.7-0.7C5.5,15.3,5.7,15.1,5.9,14.8z
		"/>
	<path class="st2" d="M3.6,10.2C4,10.6,4.3,10.7,4.4,11c0,0.1-0.7,0.7-0.7,0.7C3.4,11.5,3,11.3,3.1,11C3.1,10.7,3.4,10.5,3.6,10.2z"
		/>
	<path class="st2" d="M11.7,10.7c-0.2-0.2-0.3-0.4-0.4-0.5c-0.4-0.3-0.3-0.5,0-0.7c0.1-0.1,0.2-0.4,0.5-0.3c0.2,0.1,0.5,0.4,0.5,0.6
		c0.1,0.3-0.3,0.4-0.4,0.6C11.8,10.5,11.8,10.6,11.7,10.7z"/>
	<path class="st3" d="M16.9,9.9c-0.2,0.3-0.3,0.6-0.7,0.6c-0.3,0-0.5-0.3-0.7-0.6c-0.1-0.1,0.5-0.7,0.6-0.7
		C16.5,9.3,16.7,9.6,16.9,9.9z"/>
	<path class="st2" d="M12.9,10.4c0.2,0.2,0.6,0.4,0.6,0.6c0,0.3-0.4,0.5-0.6,0.7c-0.1,0.1-0.7-0.6-0.7-0.7
		C12.3,10.7,12.5,10.5,12.9,10.4z"/>
	<path class="st2" d="M19.1,12.4c-0.1,0.1-0.2,0.1-0.2,0.2c-0.2,0.1-0.2,0.4-0.5,0.2c-0.2-0.2-0.6-0.3-0.5-0.6
		c0.1-0.2,0.3-0.5,0.6-0.6C18.7,11.4,19.1,12,19.1,12.4C19.1,12.4,19.1,12.4,19.1,12.4z"/>
	<path class="st2" d="M7.2,10.6C7,10.6,6.4,10,6.5,9.9c0.1-0.3,0.4-0.7,0.7-0.6c0.3,0,0.7,0.4,0.6,0.6C7.8,10.2,7.4,10.4,7.2,10.6z"
		/>
	<path class="st5" d="M15.1,12.6c0.2,0.2,0.5,0.5,0.7,0.7c0,0-0.7,0.7-0.7,0.7c-0.3-0.2-0.6-0.4-0.6-0.7
		C14.5,13,14.8,12.8,15.1,12.6z"/>
	<path class="st5" d="M17.4,12.6c0.2,0.3,0.6,0.5,0.6,0.7c0,0.2-0.4,0.5-0.7,0.6c-0.1,0-0.7-0.6-0.7-0.7
		C16.9,13,17.1,12.8,17.4,12.6z"/>
	<path class="st2" d="M7.6,11.1c0-0.2,0.5-0.8,0.6-0.8c0.2,0.2,0.6,0.4,0.6,0.7c0,0.3-0.4,0.6-0.7,0.6C8,11.7,7.8,11.3,7.6,11.1z"/>
	<path class="st5" d="M15.8,11.1c-0.2,0.2-0.4,0.6-0.7,0.6c-0.3,0-0.6-0.4-0.6-0.6c0-0.3,0.4-0.5,0.6-0.7
		C15.1,10.3,15.8,10.9,15.8,11.1z"/>
	<path class="st2" d="M9.4,13.8c0.2,0.2,0.5,0.4,0.6,0.7c0.1,0.1-0.6,0.7-0.7,0.7c-0.2-0.2-0.5-0.4-0.6-0.7
		C8.7,14.3,9.3,13.8,9.4,13.8z"/>
	<path class="st5" d="M11.2,15.6c-0.2,0.3-0.4,0.5-0.7,0.7c-0.1,0-0.7-0.6-0.7-0.7c0.2-0.3,0.4-0.7,0.7-0.6
		C10.8,15,11.1,15.3,11.2,15.6z"/>
	<path class="st5" d="M12.4,16.7c-0.3,0.2-0.4,0.6-0.7,0.6c-0.3,0-0.5-0.3-0.7-0.6c0,0,0.6-0.7,0.7-0.6C12,16.2,12.2,16.5,12.4,16.7
		z"/>
	<path class="st5" d="M9.4,17.1c-0.3,0-0.6-0.1-0.7-0.4c0-0.1,0.7-0.7,0.7-0.7c0.3,0.2,0.6,0.4,0.6,0.7C10.1,17,9.7,17.2,9.4,17.1z"
		/>
	<path class="st2" d="M4.8,12.9c-0.3-0.2-0.6-0.4-0.6-0.7c0-0.3,0.4-0.6,0.6-0.6c0.3,0,0.4,0.5,0.4,0.8C5.3,12.6,5.1,12.7,4.8,12.9z
		"/>
	<path class="st5" d="M4.5,13.3c-0.4,0.1-0.4,0.9-1,0.5c-0.3-0.3-0.3-0.7,0-1C4.1,12.3,4.1,13.2,4.5,13.3z"/>
	<path class="st5" d="M16.9,12.2c-0.2,0.2-0.4,0.6-0.7,0.6c-0.3,0-0.5-0.3-0.6-0.6c0-0.1,0.6-0.7,0.7-0.7
		C16.4,11.5,16.9,12.1,16.9,12.2z"/>
	<path class="st2" d="M6,14c-0.1-0.1-0.2-0.2-0.3-0.3c-0.4-0.4-0.4-0.8,0.2-1.1c0.3-0.1,0.4,0.2,0.5,0.3c0.2,0.1,0.1,0.2,0,0.3
		C6.1,13.5,6.1,13.8,6,14z"/>
	<path class="st2" d="M7.8,12.1c0,0.1-0.6,0.7-0.7,0.7c-0.3-0.1-0.5-0.3-0.6-0.5c0-0.3,0.2-0.6,0.6-0.6C7.5,11.6,7.6,11.9,7.8,12.1z
		"/>
	<path class="st5" d="M17.8,10.8c0.3,0.1,0.3,0.3,0,0.5c-0.2,0.1-0.3,0.7-0.7,0.2c-0.2-0.2-0.8-0.4-0.1-0.8
		C17.3,10.9,17.5,10.8,17.8,10.8z"/>
	<path class="st2" d="M11.9,11.7c0.6,0.5,0.6,0.5,0.1,0.9c-0.2,0.2-0.4,0.3-0.6,0c-0.1-0.2-0.3-0.3-0.4-0.4
		C11.3,12.1,11.6,12,11.9,11.7z"/>
	<path class="st2" d="M2.6,10.6c-0.2-0.4-0.2-0.8-0.3-1.2c0-0.1-0.1-0.2,0.1-0.2c0.4-0.1,0.5,0.3,0.7,0.4c0.1,0.1,0.3,0.3,0.1,0.5
		C3,10.2,2.8,10.4,2.6,10.6z"/>
	<path class="st2" d="M10.4,11.4c-0.3,0.2-0.3-0.2-0.5-0.3c-0.2-0.2,0-0.2,0.1-0.3c0.5-0.6,0.5-0.6,1.1,0.2
		C10.9,11.1,10.6,11.1,10.4,11.4z"/>
	<path class="st5" d="M7.1,16.9c-0.2-0.1-0.6,0.1-0.6-0.2c0-0.3,0.4-0.5,0.6-0.7c0.1,0,0.7,0.6,0.7,0.7C7.8,16.9,7.6,16.9,7.1,16.9z
		"/>
	<path class="st2" d="M6.4,14.4c0.4,0.1,0.6-0.1,0.9-0.2c0.2-0.1,0.3,0,0.4,0.1c0.1,0.2,0,0.3-0.1,0.4C7.1,15.2,7,15.2,6.4,14.4z"/>
	<path class="st4" d="M4.3,7.6c0.2-0.3,0.5-0.4,0.8-0.5C5.7,7,5.8,7.4,5.9,7.7C5.4,7.7,4.8,7.9,4.3,7.6z"/>
	<path class="st2" d="M9.4,12.8c-0.2,0-0.7-0.6-0.7-0.7c0.2-0.3,0.4-0.5,0.7-0.6c0.1,0,0.3,0.1,0.1,0.2c-0.2,0.2-0.2,0.5,0,0.7
		C9.6,12.6,9.6,12.8,9.4,12.8z"/>
	<path class="st3" d="M13.4,9.8c0.1-0.2,0.2-0.4,0.4-0.5c0.4-0.3,0.5,0.1,0.7,0.3c0.2,0.2,0.3,0.3,0,0.5C14.1,10,13.7,9.9,13.4,9.8z
		"/>
	<path class="st4" d="M8,13.8c-0.5-0.4-0.4-0.9,0.2-1.1c0.3-0.1,0.3,0.2,0.5,0.3C8.7,13.5,8.3,13.6,8,13.8z"/>
	<path class="st2" d="M6.5,11c-0.2,0.2-0.6,0.1-0.9,0.3c-0.1,0.1-0.3-0.1-0.3-0.2c0-0.1,0.6-0.7,0.6-0.7C6.2,10.5,6.4,10.6,6.5,11z"
		/>
	<path class="st4" d="M8.5,7.6c0.2-0.1,0.4-0.2,0.6-0.3c0.5-0.3,0.7-0.2,1,0.4C9.5,7.7,9,7.9,8.5,7.6z"/>
	<path class="st5" d="M18.6,9.3c0.1,0.1,0.2,0.1,0.2,0.2c0.1,0.2,0.4,0.3,0.4,0.5c-0.1,0.3-0.4,0.5-0.6,0.6
		c-0.1,0.1-0.2-0.1-0.2-0.2C18.4,10,18.5,9.7,18.6,9.3z"/>
	<path class="st2" d="M18.6,14c0,0.2-0.1,0.4-0.1,0.5c-0.1,0.1,0,0.4-0.2,0.4c-0.2,0-0.3-0.2-0.4-0.4c-0.2-0.2,0.1-0.2,0.2-0.3
		c0.1-0.1,0.2-0.2,0.3-0.4c0,0,0.1-0.1,0.2-0.1C18.6,13.8,18.6,13.9,18.6,14z"/>
	<path class="st5" d="M5.5,16.8c-0.4,0-0.8-0.1-1.3-0.1C4.9,15.7,4.9,16,5.5,16.8z"/>
	<path class="st2" d="M3.9,16c-0.2-0.3-0.1-0.7-0.3-1.1c0.4,0.2,0.7,0.4,0.8,0.7C4.4,15.7,4.2,15.9,3.9,16z"/>
	<path class="st5" d="M13.4,9.8c0.4,0.1,0.7,0.2,1.1,0.3c-0.1,0.2-0.4,0.5-0.5,0.5C13.7,10.4,13.3,10.2,13.4,9.8z"/>
	<path class="st3" d="M18.6,9.3c-0.1,0.4-0.2,0.7-0.3,1.1c-0.2-0.2-0.5-0.3-0.4-0.5C18,9.6,18.2,9.3,18.6,9.3z"/>
	<path class="st2" d="M16.9,17.7c0.2-0.2,0.2-0.7,0.6-0.5c0.2,0.1,0.3,0.2,0.2,0.4c-0.1,0.2-0.2,0.2-0.4,0.1
		C17.2,17.8,17,17.8,16.9,17.7z"/>
	<path class="st4" d="M9.8,10.1C9.7,9.9,9.5,9.6,9.4,9.3C10.2,9.8,10.2,9.8,9.8,10.1z"/>
	<path class="st4" d="M11.9,11.7c-0.2,0.3-0.5,0.5-0.9,0.5c0.1-0.3,0.4-0.4,0.6-0.6C11.7,11.4,11.8,11.5,11.9,11.7z"/>
	<path class="st2" d="M19.4,10.7c0,0.2-0.1,0.4-0.1,0.6c-0.2,0-0.4-0.2-0.4-0.3c0.1-0.2,0.3-0.3,0.4-0.4
		C19.4,10.6,19.4,10.7,19.4,10.7z"/>
	<path class="st2" d="M8,13.8c0.3-0.2,0.7-0.3,0.6-0.8c0.2,0.2,0.4,0.3,0.1,0.5C8.5,13.7,8.4,14.2,8,13.8z"/>
	<path class="st2" d="M14.7,17.6c0.4-0.6,0.4-0.6,0.8,0.1C15.2,17.6,15,17.6,14.7,17.6z"/>
	<path class="st3" d="M17.8,10.8c-0.3,0.1-0.5,0.1-0.8,0C17.4,10.3,17.4,10.3,17.8,10.8z"/>
	<path class="st4" d="M10.4,11.4c0.2-0.3,0.5-0.3,0.8-0.5c0.1,0.4-0.3,0.5-0.5,0.7C10.5,11.7,10.5,11.4,10.4,11.4z"/>
	<path class="st4" d="M5.7,9.2c0.2-0.1,0.4,0,0.5-0.1C6.2,9.4,6,9.7,5.7,9.2z"/>
	<path class="st5" d="M6.5,7.7c0.1-0.1,0.1-0.1,0.2,0C6.6,7.7,6.5,7.7,6.5,7.7z"/>
	<path class="st0" d="M3.9,6.7C3.7,6.9,3.5,7,3.2,7.1C2.9,7.2,2.6,7.2,2.4,6.8C2.3,6.5,2.5,6.2,2.8,6C3,5.9,3.2,5.8,3.4,5.7
		C3.6,6,3.8,6.4,3.9,6.7z"/>
	<path class="st4" d="M7.6,5.9c0.3-0.1,0.5-0.3,0.8-0.4c0.3-0.1,0.6,0,0.7,0.3c0.1,0.3,0,0.5-0.2,0.7C8.6,6.6,8.3,6.7,8.1,6.8
		C7.9,6.5,7.8,6.2,7.6,5.9z"/>
	<path class="st0" d="M7.6,5.9c0.2,0.3,0.3,0.6,0.5,1C7.9,7,7.6,7.1,7.4,7.2c-0.3,0.1-0.6,0-0.8-0.3c-0.2-0.3,0-0.6,0.3-0.7
		C7.1,6,7.4,6,7.6,5.9z"/>
	<path class="st0" d="M7.2,5C7,5.2,6.7,5.4,6.4,5.4c-0.3,0.1-0.5,0-0.7-0.3C5.6,4.8,5.7,4.6,5.9,4.4c0.2-0.1,0.5-0.4,0.8-0.3
		C6.9,4.4,7,4.7,7.2,5z"/>
	<path class="st4" d="M7.2,5C7,4.7,6.9,4.4,6.7,4.1c0.2-0.3,0.5-0.3,0.8-0.4C7.8,3.6,8,3.7,8.2,4c0.1,0.3,0,0.5-0.2,0.7
		C7.7,4.8,7.4,4.9,7.2,5z"/>
	<path class="st4" d="M3.9,6.7C3.8,6.4,3.6,6,3.4,5.7c0.2-0.1,0.5-0.3,0.7-0.4c0.3-0.1,0.6,0,0.7,0.3C5,5.9,5,6.2,4.6,6.4
		C4.4,6.5,4.2,6.6,3.9,6.7z"/>
	<path class="st5" d="M4.9,4.4c0.3,0.4,0.5,0.8,0.6,1.2c0,0-0.1,0-0.1,0.1C5.2,5.2,5,4.8,4.8,4.4C4.8,4.4,4.9,4.4,4.9,4.4z"/>
	<path class="st5" d="M6.4,7.2C6.1,7,6,6.7,6,6.4C6.1,6.7,6.2,6.9,6.4,7.2z"/>
</g>
</svg>
