<?xml version="1.0" encoding="utf-8"?>
<!-- Generator: Adobe Illustrator 19.2.1, SVG Export Plug-In . SVG Version: 6.00 Build 0)  -->
<svg version="1.1" id="Layer_1" xmlns="http://www.w3.org/2000/svg" xmlns:xlink="http://www.w3.org/1999/xlink" x="0px" y="0px"
	 viewBox="0 0 25 25" style="enable-background:new 0 0 25 25;" xml:space="preserve">
<style type="text/css">
	.st0{fill:#F6503F;}
	.st1{fill:#A3A3A3;}
	.st2{fill:#EEEFEF;}
	.st3{fill:#EAE7E7;}
	.st4{fill:#35555F;}
</style>
<path class="st0" d="M8.9,4.1C9.1,3.2,9.5,3,10.4,3c0.3,0,0.4,0,0.5-0.4c0.1-0.8,0.7-1.3,1.4-1.5c0.1,0,0.3,0,0.4-0.2
	c0.1,0,0.3,0,0.4,0c0.1,0.1,0.2,0.1,0.3,0.1c0.9,0.2,1.4,0.8,1.6,1.6C15,2.9,15.1,3,15.3,3c0.2,0,0.5,0,0.7,0c0.6,0.1,0.9,0.5,1,1.1
	c0,0.1,0,0.3,0,0.4c0.1,0.5-0.2,0.5-0.6,0.5c-2.3,0-4.6,0-7,0C9,5.1,8.8,5,8.9,4.6C8.9,4.4,8.9,4.3,8.9,4.1z M13.9,3
	c0-0.5-0.4-0.9-1-0.9C12.4,2.1,12,2.5,12,3c0,0.5,0.4,0.9,1,0.9C13.5,3.9,13.9,3.5,13.9,3z"/>
<path class="st1" d="M8.9,4.1c0,0.1,0,0.3,0,0.4c-1.4,0-2.8,0-4.1,0C4.4,4.5,4.3,4.6,4.3,5c0,6.2,0,12.4,0,18.5
	c0,0.3,0.1,0.4,0.4,0.4c5.4,0,10.8,0,16.2,0c0.3,0,0.4-0.1,0.4-0.4c0-6.2,0-12.3,0-18.5c0-0.4-0.1-0.4-0.4-0.4c-1.3,0-2.6,0-3.9,0
	c0-0.1,0-0.3,0-0.4c1.4,0,2.8,0,4.1,0c0.5,0,0.6,0.1,0.6,0.6c0,6.3,0,12.6,0,18.9c0,0.5-0.1,0.6-0.6,0.6c-5.5,0-11.1,0-16.6,0
	c-0.5,0-0.6-0.1-0.6-0.6c0-6.3,0-12.6,0-19c0-0.5,0.1-0.6,0.6-0.6C6,4.1,7.4,4.1,8.9,4.1z"/>
<path class="st2" d="M17,4.6c1.3,0,2.6,0,3.9,0c0.3,0,0.4,0.1,0.4,0.4c0,6.2,0,12.3,0,18.5c0,0.3-0.1,0.4-0.4,0.4
	c-5.4,0-10.8,0-16.2,0c-0.3,0-0.4-0.1-0.4-0.4c0-6.2,0-12.4,0-18.5c0-0.3,0.1-0.4,0.4-0.4c1.4,0,2.8,0,4.1,0C8.8,5,9,5.1,9.4,5.1
	c2.3,0,4.6,0,7,0C16.8,5.1,17.1,5,17,4.6z M11.5,7.2c0.4,0.6,0.8,1.2,1.2,1.8c0.1,0.1,0.1,0.2,0.2,0.3c0.2,0.4,0.3,0.4,0.6,0.1
	c0.3-0.3,0.7-0.6,1-1c0.2-0.2,0.3-0.2,0.6-0.2c0.6,0,1.2,0,1.9,0c0.2,0,0.3,0,0.3-0.3c0-0.2-0.1-0.2-0.3-0.2c-0.3,0-0.6,0-0.9,0
	c-1-0.2-1.9,0.1-2.6,1c-0.2,0.2-0.3,0.2-0.4,0c-0.4-0.7-0.9-1.4-1.3-2.1c-0.2-0.3-0.4-0.3-0.6,0c-0.1,0.3-0.3,0.5-0.4,0.8
	c-0.3,0.5-0.6,0.8-1.2,0.7c-0.3,0-0.5,0-0.8,0c-0.2,0-0.3,0-0.3,0.2c0,0.2,0.1,0.3,0.3,0.3c0.6,0,1.2,0,1.7,0c0.2,0,0.3,0,0.4-0.2
	C11,8,11.2,7.6,11.5,7.2z M15,12.3c1.7,0,3.4,0,5.1,0c0.2,0,0.4,0.1,0.4-0.2c0-0.3-0.2-0.3-0.4-0.3c-3.4,0-6.8,0-10.2,0
	c-0.2,0-0.4-0.1-0.4,0.2c0,0.3,0.2,0.3,0.4,0.3C11.6,12.3,13.3,12.3,15,12.3z M15,13.4c1.7,0,3.4,0,5.1,0c0.2,0,0.4,0.1,0.4-0.2
	c0-0.3-0.2-0.3-0.4-0.3c-3.4,0-6.8,0-10.2,0c-0.2,0-0.4-0.1-0.4,0.2c0,0.3,0.2,0.3,0.4,0.3C11.6,13.4,13.3,13.4,15,13.4z M15,14.5
	c1.7,0,3.4,0,5.1,0c0.2,0,0.4,0.1,0.4-0.2c0-0.3-0.2-0.3-0.4-0.3c-3.4,0-6.8,0-10.2,0c-0.2,0-0.4-0.1-0.4,0.2c0,0.3,0.2,0.3,0.4,0.3
	C11.6,14.5,13.3,14.5,15,14.5z M15,15.7c-1.7,0-3.4,0-5.1,0c-0.2,0-0.4-0.1-0.4,0.3c0,0.3,0.2,0.2,0.4,0.2c3.4,0,6.8,0,10.2,0
	c0.2,0,0.4,0.1,0.4-0.3c0-0.3-0.2-0.2-0.4-0.2C18.4,15.7,16.7,15.7,15,15.7z M15,17.3c1.7,0,3.4,0,5.1,0c0.2,0,0.4,0.1,0.4-0.2
	c0-0.3-0.2-0.3-0.4-0.3c-3.4,0-6.8,0-10.2,0c-0.2,0-0.4-0.1-0.4,0.2c0,0.3,0.2,0.3,0.4,0.3C11.6,17.3,13.3,17.3,15,17.3z M15,17.8
	c-1.7,0-3.4,0-5.1,0c-0.2,0-0.4-0.1-0.4,0.3c0,0.3,0.2,0.2,0.4,0.2c3.4,0,6.8,0,10.2,0c0.2,0,0.4,0.1,0.4-0.3c0-0.3-0.2-0.2-0.4-0.2
	C18.4,17.8,16.7,17.8,15,17.8z M15,19.8c1.7,0,3.4,0,5.2,0c0.2,0,0.4,0.1,0.4-0.2c0-0.3-0.2-0.3-0.4-0.3c-3.4,0-6.8,0-10.2,0
	c-0.2,0-0.4-0.1-0.4,0.2c0,0.3,0.2,0.3,0.4,0.3C11.6,19.8,13.3,19.8,15,19.8z M15,20.9c1.7,0,3.4,0,5.2,0c0.2,0,0.4,0.1,0.4-0.3
	c0-0.3-0.2-0.2-0.4-0.2c-3.4,0-6.8,0-10.2,0c-0.2,0-0.4-0.1-0.4,0.3c0,0.3,0.2,0.2,0.4,0.2C11.6,20.9,13.3,20.9,15,20.9z M15,22
	c1.7,0,3.4,0,5.1,0c0.2,0,0.4,0.1,0.4-0.2c0-0.3-0.2-0.3-0.4-0.3c-3.4,0-6.8,0-10.2,0c-0.2,0-0.4-0.1-0.4,0.2C9.5,22,9.7,22,9.9,22
	C11.6,22,13.3,22,15,22z M7.3,14.5c0.9,0,1.6-0.7,1.6-1.6c0-0.8-0.7-1.5-1.5-1.5c-0.9,0-1.6,0.7-1.6,1.5C5.7,13.8,6.4,14.5,7.3,14.5
	z M8.8,20.4c0-0.9-0.7-1.6-1.6-1.5c-0.8,0-1.5,0.7-1.5,1.5c0,0.9,0.7,1.6,1.5,1.6C8.1,22,8.8,21.3,8.8,20.4z M7.2,18.2
	c1,0.1,1.5-0.6,1.6-1.5c0-0.9-0.6-1.5-1.6-1.5c-0.9,0-1.5,0.6-1.5,1.5C5.7,17.5,6.5,18.3,7.2,18.2z"/>
<path class="st0" d="M11.5,7.2C11.2,7.6,11,8,10.8,8.4c-0.1,0.2-0.2,0.2-0.4,0.2c-0.6,0-1.1,0-1.7,0c-0.2,0-0.3,0-0.3-0.3
	c0-0.2,0.1-0.2,0.3-0.2c0.3,0,0.6,0,0.8,0c0.6,0.1,0.9-0.2,1.2-0.7c0.1-0.3,0.3-0.5,0.4-0.8c0.2-0.3,0.4-0.3,0.6,0
	c0.5,0.7,0.9,1.4,1.3,2.1c0.1,0.2,0.3,0.3,0.4,0c0.6-0.9,1.5-1.1,2.6-1c0.3,0,0.6,0,0.9,0c0.2,0,0.3,0,0.3,0.2
	c0,0.2-0.1,0.3-0.3,0.3c-0.6,0-1.2,0-1.9,0c-0.2,0-0.4,0.1-0.6,0.2c-0.3,0.3-0.7,0.7-1,1c-0.3,0.3-0.4,0.3-0.6-0.1
	c-0.1-0.1-0.1-0.2-0.2-0.3C12.3,8.4,11.9,7.8,11.5,7.2z"/>
<path class="st1" d="M15,12.3c-1.7,0-3.4,0-5.1,0c-0.2,0-0.4,0.1-0.4-0.3c0-0.3,0.2-0.2,0.4-0.2c3.4,0,6.8,0,10.2,0
	c0.2,0,0.4-0.1,0.4,0.3c0,0.3-0.2,0.2-0.4,0.2C18.4,12.3,16.7,12.3,15,12.3z"/>
<path class="st1" d="M15,13.4c-1.7,0-3.4,0-5.1,0c-0.2,0-0.4,0.1-0.4-0.3c0-0.3,0.2-0.2,0.4-0.2c3.4,0,6.8,0,10.2,0
	c0.2,0,0.4-0.1,0.4,0.3c0,0.3-0.2,0.2-0.4,0.2C18.4,13.4,16.7,13.4,15,13.4z"/>
<path class="st1" d="M15,14.5c-1.7,0-3.4,0-5.1,0c-0.2,0-0.4,0.1-0.4-0.3c0-0.3,0.2-0.2,0.4-0.2c3.4,0,6.8,0,10.2,0
	c0.2,0,0.4-0.1,0.4,0.3c0,0.3-0.2,0.2-0.4,0.2C18.4,14.5,16.7,14.5,15,14.5z"/>
<path class="st1" d="M15,15.7c1.7,0,3.4,0,5.1,0c0.2,0,0.4-0.1,0.4,0.2c0,0.3-0.2,0.3-0.4,0.3c-3.4,0-6.8,0-10.2,0
	c-0.2,0-0.4,0.1-0.4-0.2c0-0.3,0.2-0.3,0.4-0.3C11.6,15.7,13.3,15.7,15,15.7z"/>
<path class="st1" d="M15,17.3c-1.7,0-3.4,0-5.1,0c-0.2,0-0.4,0.1-0.4-0.3c0-0.3,0.2-0.2,0.4-0.2c3.4,0,6.8,0,10.2,0
	c0.2,0,0.4-0.1,0.4,0.3c0,0.3-0.2,0.2-0.4,0.2C18.4,17.3,16.7,17.3,15,17.3z"/>
<path class="st1" d="M15,17.8c1.7,0,3.4,0,5.1,0c0.2,0,0.4-0.1,0.4,0.2c0,0.3-0.2,0.3-0.4,0.3c-3.4,0-6.8,0-10.2,0
	c-0.2,0-0.4,0.1-0.4-0.2c0-0.3,0.2-0.3,0.4-0.3C11.6,17.8,13.3,17.8,15,17.8z"/>
<path class="st1" d="M15,19.8c-1.7,0-3.4,0-5.1,0c-0.2,0-0.4,0.1-0.4-0.3c0-0.3,0.2-0.2,0.4-0.2c3.4,0,6.8,0,10.2,0
	c0.2,0,0.4-0.1,0.4,0.3c0,0.3-0.2,0.2-0.4,0.2C18.4,19.8,16.7,19.8,15,19.8z"/>
<path class="st1" d="M15,20.9c-1.7,0-3.4,0-5.1,0c-0.2,0-0.4,0.1-0.4-0.2c0-0.3,0.2-0.3,0.4-0.3c3.4,0,6.8,0,10.2,0
	c0.2,0,0.4-0.1,0.4,0.2c0,0.3-0.2,0.3-0.4,0.3C18.4,20.9,16.7,20.9,15,20.9z"/>
<path class="st1" d="M15,22c-1.7,0-3.4,0-5.1,0c-0.2,0-0.4,0.1-0.4-0.3c0-0.3,0.2-0.2,0.4-0.2c3.4,0,6.8,0,10.2,0
	c0.2,0,0.4-0.1,0.4,0.3c0,0.3-0.2,0.2-0.4,0.2C18.4,22,16.7,22,15,22z"/>
<path class="st0" d="M7.3,14.5c-0.9,0-1.6-0.7-1.5-1.6c0-0.9,0.7-1.5,1.6-1.5c0.8,0,1.5,0.7,1.5,1.5C8.8,13.8,8.1,14.5,7.3,14.5z
	 M8.6,12.9c0-0.7-0.6-1.4-1.3-1.4c-0.7,0-1.4,0.6-1.4,1.4c0,0.7,0.6,1.4,1.4,1.4C8,14.3,8.6,13.7,8.6,12.9z"/>
<path class="st0" d="M8.8,20.4c0,0.9-0.7,1.6-1.6,1.6c-0.9,0-1.6-0.7-1.5-1.6c0-0.8,0.7-1.5,1.5-1.5C8.1,18.9,8.8,19.5,8.8,20.4z
	 M8.6,20.4C8.6,19.7,8,19,7.3,19c-0.7,0-1.4,0.7-1.4,1.4c0,0.7,0.6,1.4,1.4,1.4C8,21.8,8.6,21.2,8.6,20.4z"/>
<path class="st0" d="M7.2,18.2c-0.7,0.1-1.5-0.7-1.5-1.5c0-0.9,0.6-1.5,1.5-1.5c0.9,0,1.6,0.6,1.6,1.5C8.8,17.6,8.2,18.3,7.2,18.2z
	 M8.1,15.8L8.1,15.8c0.1-0.1,0-0.2-0.1-0.2c-0.6-0.4-1.3-0.3-1.8,0.3c-0.5,0.5-0.4,1.4,0.1,1.9c0.5,0.5,1.3,0.5,1.9,0
	c0.5-0.5,0.6-1.3,0.2-1.8C8.3,15.8,8.3,15.6,8.1,15.8z"/>
<path class="st3" d="M8.6,12.9c0,0.7-0.7,1.4-1.4,1.4c-0.7,0-1.4-0.7-1.4-1.4c0-0.7,0.7-1.4,1.4-1.4C8,11.6,8.7,12.2,8.6,12.9z
	 M7,13.1C7,13,6.9,13,6.9,13c-0.2-0.2-0.3-0.3-0.5-0.1c-0.2,0.2-0.1,0.4,0,0.6c0.1,0.2,0.2,0.3,0.4,0.5c0.3,0.3,0.5,0.3,0.7-0.1
	c0.2-0.4,0.4-0.9,0.7-1.3C8.2,12.3,8.2,12.1,8,12c-0.2-0.1-0.4,0-0.5,0.2C7.3,12.5,7.2,12.7,7,13.1z"/>
<path class="st3" d="M8.6,20.4c0,0.7-0.7,1.4-1.4,1.4c-0.7,0-1.4-0.7-1.4-1.4c0-0.7,0.7-1.4,1.4-1.4C8,19,8.6,19.7,8.6,20.4z
	 M7,20.6c-0.1-0.1-0.1-0.1-0.2-0.1c-0.2-0.2-0.3-0.2-0.5-0.1c-0.2,0.2-0.1,0.4,0,0.5c0.1,0.2,0.2,0.3,0.4,0.5
	c0.3,0.3,0.5,0.3,0.7-0.1c0.2-0.4,0.4-0.8,0.6-1.3c0.1-0.2,0.1-0.4-0.1-0.5c-0.2-0.1-0.4,0-0.5,0.2C7.3,20,7.2,20.3,7,20.6z"/>
<path class="st3" d="M8.1,15.8c0.1-0.1,0.2,0,0.3,0.1c0.4,0.5,0.3,1.4-0.2,1.8c-0.5,0.5-1.3,0.5-1.9,0c-0.6-0.5-0.6-1.4-0.1-1.9
	c0.5-0.5,1.3-0.7,1.8-0.3C8.1,15.6,8.2,15.6,8.1,15.8c-0.3-0.2-0.6-0.1-0.7,0.3c-0.1,0.1-0.1,0.3-0.2,0.4c-0.1,0.2-0.2,0.4-0.4,0.1
	c-0.1-0.1-0.2-0.1-0.4,0c-0.1,0.1-0.2,0.2-0.2,0.4c0.2,0.4,0.4,0.7,0.7,0.9c0.1,0.1,0.3,0,0.4-0.2c0-0.1,0.1-0.1,0.1-0.2
	c0.2-0.3,0.3-0.7,0.5-1C8.1,16.2,8.2,16,8.1,15.8z"/>
<path class="st4" d="M7,13.1c0.2-0.3,0.3-0.6,0.4-0.8C7.6,12,7.8,11.9,8,12c0.2,0.1,0.2,0.3,0.1,0.5c-0.2,0.4-0.4,0.9-0.7,1.3
	c-0.2,0.3-0.4,0.3-0.7,0.1c-0.1-0.2-0.2-0.3-0.4-0.5c-0.1-0.2-0.2-0.4,0-0.6c0.2-0.2,0.4-0.1,0.5,0.1C6.9,13,7,13,7,13.1z"/>
<path class="st4" d="M7,20.6c0.2-0.3,0.3-0.6,0.4-0.8c0.1-0.2,0.3-0.4,0.5-0.2c0.2,0.1,0.2,0.3,0.1,0.5c-0.2,0.4-0.4,0.9-0.6,1.3
	c-0.2,0.4-0.4,0.4-0.7,0.1c-0.1-0.2-0.2-0.3-0.4-0.5c-0.1-0.2-0.2-0.4,0-0.5c0.2-0.2,0.4-0.1,0.5,0.1C6.9,20.5,7,20.5,7,20.6z"/>
<path class="st4" d="M8.1,15.8c0.1,0.2,0,0.4-0.1,0.6c-0.2,0.3-0.3,0.7-0.5,1c0,0.1-0.1,0.2-0.1,0.2c-0.1,0.1-0.3,0.3-0.4,0.2
	c-0.3-0.2-0.6-0.6-0.7-0.9c-0.1-0.1,0-0.3,0.2-0.4c0.1-0.1,0.3-0.1,0.4,0c0.2,0.3,0.3,0.1,0.4-0.1c0.1-0.1,0.2-0.3,0.2-0.4
	C7.6,15.7,7.8,15.6,8.1,15.8C8.1,15.8,8.1,15.8,8.1,15.8z"/>
</svg>
