<?xml version="1.0" encoding="utf-8"?>
<!-- Generator: Adobe Illustrator 21.0.0, SVG Export Plug-In . SVG Version: 6.00 Build 0)  -->
<svg version="1.1" id="Layer_1" xmlns="http://www.w3.org/2000/svg" xmlns:xlink="http://www.w3.org/1999/xlink" x="0px" y="0px"
	 viewBox="0 0 30 25" style="enable-background:new 0 0 30 25;" xml:space="preserve">
<style type="text/css">
	.st0{fill:#F69871;}
	.st1{fill:#CBC4AD;}
	.st2{fill:#DED8B4;}
	.st3{fill:#F69771;}
	.st4{fill:#F69870;}
	.st5{fill:#DC7852;}
	.st6{fill:#CCC2AB;}
	.st7{fill:#DF7952;}
	.st8{fill:#F2754D;}
	.st9{fill:#A69A7E;}
	.st10{fill:#E87952;}
	.st11{fill:#E77959;}
	.st12{fill:#F07B50;}
	.st13{fill:#D1C2AB;}
	.st14{fill:#AA9A80;}
	.st15{fill:#8E7768;}
	.st16{fill:#A99C7E;}
	.st17{fill:#AAA07F;}
	.st18{fill:#E67147;}
	.st19{fill:#E67349;}
	.st20{fill:#DE7A51;}
	.st21{fill:#CEBFAA;}
	.st22{fill:#F79E79;}
	.st23{fill:#A76A59;}
	.st24{fill:#978574;}
	.st25{fill:#8A6E61;}
	.st26{fill:#E89369;}
	.st27{fill:#917668;}
	.st28{fill:#A06E61;}
	.st29{fill:#EE8158;}
	.st30{fill:#B19F82;}
	.st31{fill:#765A4B;}
	.st32{fill:#805541;}
	.st33{fill:#B2A88A;}
	.st34{fill:#AA917E;}
	.st35{fill:#9B8778;}
	.st36{fill:#804C35;}
	.st37{fill:#8F7A6B;}
	.st38{fill:#A16958;}
	.st39{fill:#F79C78;}
	.st40{fill:#9F634E;}
	.st41{fill:#7F6C5C;}
	.st42{fill:#91806B;}
	.st43{fill:#897263;}
	.st44{fill:#F29E6E;}
	.st45{fill:#7F6A57;}
	.st46{fill:#7B6156;}
	.st47{fill:#604838;}
	.st48{fill:#85331C;}
	.st49{fill:#967E65;}
	.st50{fill:#715044;}
	.st51{fill:#9F6856;}
	.st52{fill:#975846;}
	.st53{fill:#A46F59;}
	.st54{fill:#793023;}
	.st55{fill:#77412F;}
	.st56{fill:#C57754;}
	.st57{fill:#F59771;}
	.st58{fill:#F69675;}
	.st59{fill:#8F543E;}
	.st60{fill:#8E5739;}
	.st61{fill:#9D6249;}
	.st62{fill:#F4966D;}
	.st63{fill:#F6976A;}
	.st64{fill:#F69B77;}
	.st65{fill:#F69575;}
	.st66{fill:#9F5D3A;}
	.st67{fill:#B76F54;}
	.st68{fill:#AB6E53;}
	.st69{fill:#B86B4B;}
	.st70{fill:#9D5735;}
	.st71{fill:#F29673;}
	.st72{fill:#E69E80;}
	.st73{fill:#E79171;}
	.st74{fill:#CBC3AC;}
	.st75{fill:#CCC3AC;}
	.st76{fill:#A69A7D;}
	.st77{fill:#A79A7D;}
	.st78{fill:#A99E80;}
	.st79{fill:#A89B7B;}
	.st80{fill:#D4C5B1;}
	.st81{fill:#7B654A;}
	.st82{fill:#927C6A;}
	.st83{fill:#957F6C;}
	.st84{fill:#A18E79;}
	.st85{fill:#877461;}
	.st86{fill:#7B5D4E;}
	.st87{fill:#CCC1AA;}
	.st88{fill:#856D5C;}
	.st89{fill:#8F7B69;}
	.st90{fill:#644B39;}
	.st91{fill:#6B5040;}
	.st92{fill:#553022;}
	.st93{fill:#674335;}
	.st94{fill:#DC7653;}
	.st95{fill:#D9754E;}
	.st96{fill:#F2966D;}
	.st97{fill:#E1734E;}
	.st98{fill:#A56E53;}
	.st99{fill:#8D624C;}
	.st100{fill:#906045;}
	.st101{fill:#EE9C70;}
	.st102{fill:#CAC3AD;}
	.st103{fill:#E0D5B9;}
	.st104{fill:#956042;}
	.st105{fill:#F2976F;}
	.st106{fill:#F69873;}
	.st107{fill:#ED7C54;}
	.st108{fill:#B66F56;}
	.st109{fill:#F6987A;}
	.st110{fill:#D0C9B9;}
	.st111{fill:#EE7B58;}
	.st112{fill:#CECBB6;}
	.st113{fill:#D1C5B0;}
	.st114{fill:#975F47;}
	.st115{fill:#967B65;}
	.st116{fill:#C9C2A9;}
	.st117{fill:#BDAC99;}
	.st118{fill:#A89280;}
	.st119{fill:#935C44;}
	.st120{fill:#8B715E;}
	.st121{fill:#A9977D;}
	.st122{fill:#DDD5B3;}
	.st123{fill:#A49978;}
	.st124{fill:#F27250;}
	.st125{fill:#F4986F;}
	.st126{fill:#A7997D;}
	.st127{fill:#925B49;}
	.st128{fill:#B57350;}
	.st129{fill:#8A5040;}
	.st130{fill:#C6C6AB;}
	.st131{fill:#7F6650;}
	.st132{fill:#D6CCB7;}
	.st133{fill:#725341;}
	.st134{fill:#CABFA7;}
	.st135{fill:#DCCDB9;}
	.st136{fill:#CDC0AA;}
	.st137{fill:#C8C2AA;}
	.st138{fill:#D5C4B0;}
	.st139{fill:#988574;}
	.st140{fill:#947C64;}
	.st141{fill:#927E6C;}
	.st142{fill:#86725F;}
	.st143{fill:#978A71;}
	.st144{fill:#BCB19A;}
	.st145{fill:#8D7661;}
	.st146{fill:#C5A898;}
	.st147{fill:#86765D;}
	.st148{fill:#A2705A;}
	.st149{fill:none;stroke:#000000;stroke-width:0.5;stroke-linecap:round;stroke-linejoin:round;stroke-miterlimit:10;}
	.st150{fill:#E6F5FC;}
	.st151{fill:#CBE9F8;}
	.st152{fill:#C8E6F5;}
	.st153{fill:#8BA3AC;}
	.st154{fill:#C7E6F4;}
	.st155{fill:#BC3D95;}
	.st156{fill:#89A2AC;}
	.st157{fill:#B0CFDC;}
	.st158{fill:#C8E8F7;}
	.st159{fill:#8AA2AD;}
	.st160{fill:#8BA3B0;}
	.st161{fill:#B1CEDB;}
	.st162{fill:#B83D95;}
	.st163{fill:#506D76;}
	.st164{fill:#4F6672;}
	.st165{fill:#6C8388;}
	.st166{fill:#C9E9F4;}
	.st167{fill:#AFCFDD;}
	.st168{fill:#5D747E;}
	.st169{fill:#617881;}
	.st170{fill:#4A646C;}
	.st171{fill:#68838A;}
	.st172{fill:#526C78;}
	.st173{fill:#1C3542;}
	.st174{fill:#617981;}
	.st175{fill:#59707A;}
	.st176{fill:#81337C;}
	.st177{fill:#B2CDDA;}
	.st178{fill:#2F454F;}
	.st179{fill:#5A7077;}
	.st180{fill:#395969;}
	.st181{fill:#596F78;}
	.st182{fill:#7D98A4;}
	.st183{fill:#2A4857;}
	.st184{fill:#C7E5F1;}
	.st185{fill:#C7E5F3;}
	.st186{fill:#F06564;}
	.st187{fill:#F06668;}
	.st188{fill:#F0AA1E;}
	.st189{fill:#C7509C;}
	.st190{fill:#AD3D95;}
	.st191{fill:#A7AEB4;}
	.st192{fill:#596F79;}
	.st193{fill:#873C80;}
	.st194{fill:#4B536A;}
	.st195{fill:#444361;}
	.st196{fill:#C9E9F8;}
	.st197{fill:#CAE9F7;}
	.st198{fill:#8BA1AB;}
	.st199{fill:#882F74;}
	.st200{fill:#C9E8F4;}
	.st201{fill:#85276C;}
	.st202{fill:#CBE9F5;}
	.st203{fill:#C4E3F1;}
	.st204{fill:#452E53;}
	.st205{fill:#554A68;}
	.st206{fill:#4F6D7D;}
	.st207{fill:#CAE5ED;}
	.st208{fill:#DBF1FC;}
	.st209{fill:#E3EFF5;}
	.st210{fill:#B2D1DE;}
	.st211{fill:#B0CEDD;}
	.st212{fill:#B2D1DD;}
	.st213{fill:#C1E0EC;}
	.st214{fill:#A9C5D0;}
	.st215{fill:#718C97;}
	.st216{fill:#3D5B69;}
	.st217{fill:#8AA3B0;}
	.st218{fill:#CFEBF2;}
	.st219{fill:#63808C;}
	.st220{fill:#7B7988;}
	.st221{fill:#92A7AD;}
	.st222{fill:#8097A0;}
	.st223{fill:#677C85;}
	.st224{fill:#ED3324;}
	.st225{fill:#F89C24;}
	.st226{fill:#99B2BF;}
	.st227{fill:#405E68;}
	.st228{fill:#68808E;}
	.st229{fill:#96ADB8;}
	.st230{fill:#48616F;}
	.st231{fill:#B8D3E0;}
	.st232{fill:#B5CBDB;}
	.st233{fill:#314C5B;}
	.st234{fill:#D8EFF7;}
	.st235{fill:#C85FA3;}
	.st236{fill:#C13C93;}
	.st237{fill:#C03C91;}
	.st238{fill:#3A5463;}
	.st239{fill:#354E5C;}
	.st240{fill:#2B4652;}
	.st241{fill:#484466;}
	.st242{fill:#464061;}
	.st243{fill:#536D76;}
	.st244{fill:#7B939E;}
	.st245{fill:#E5F4FB;}
	.st246{fill:#DEF1F6;}
	.st247{fill:#4A4865;}
	.st248{fill:#678692;}
	.st249{fill:#6E8A97;}
	.st250{fill:#496B77;}
	.st251{fill:#D6EEF7;}
	.st252{fill:#2A4D5A;}
	.st253{fill:#D0ECF4;}
	.st254{fill:#556D83;}
	.st255{fill:#C4E8F6;}
	.st256{fill:#EF5448;}
	.st257{fill:#C55CA2;}
	.st258{fill:#C13E95;}
	.st259{fill:#725559;}
	.st260{fill:#EE3C24;}
	.st261{fill:#73356E;}
	.st262{fill:#C65DA2;}
	.st263{fill:#8D3572;}
	.st264{fill:#C2E7F4;}
	.st265{fill:#BA3D95;}
	.st266{fill:#9CACB7;}
	.st267{fill:#637E88;}
	.st268{fill:#6B6C89;}
	.st269{fill:#93AAB4;}
	.st270{fill:#BC3A93;}
	.st271{fill:#575671;}
	.st272{fill:#B33B8E;}
	.st273{fill:#46596D;}
	.st274{fill:#395666;}
	.st275{fill:#402F55;}
	.st276{fill:#BEDAE7;}
	.st277{fill:#BEDBE9;}
	.st278{fill:#AFCCDA;}
	.st279{fill:#BEDAE8;}
	.st280{fill:#A93288;}
	.st281{fill:#B23990;}
	.st282{fill:#57506A;}
	.st283{fill:#BF539E;}
	.st284{fill:#C965A6;}
	.st285{fill:#C264A6;}
	.st286{fill:#C14698;}
	.st287{fill:#4F6079;}
	.st288{fill:#2E3755;}
	.st289{fill:#4A4D68;}
	.st290{fill:#62376D;}
	.st291{fill:#98317E;}
	.st292{fill:#A13E96;}
	.st293{fill:#C860A4;}
	.st294{fill:#C366A7;}
	.st295{fill:#B93A94;}
	.st296{fill:#CB65A6;}
	.st297{fill:#2195F2;}
	.st298{fill:#63666A;}
	.st299{fill:#F6F5F6;}
	.st300{fill:#FA7164;}
	.st301{fill:#63676B;}
	.st302{fill:#F5F4F6;}
	.st303{fill:#F27165;}
</style>
<g>
	<g>
		<path class="st0" d="M22.9,38.5c0.6-0.2,3.2-1.6,3.4-1.6c0.2,0,0.4,0.3,0.5-0.1c0.2-0.4,0.5-0.5,0.9-0.6c0,0,0.1,0,0.1,0
			c0,0,0.1,0,0.1,0s0-0.1,0-0.1c0,0,0.1-0.1,0.1-0.1c0,0,0.1-0.1,0.1-0.1c0.2-0.3,0.5-0.5,0.8-0.6c2.9,0.4,5.7,1.3,8.3,2.8
			c1.1,1,1.3,1.8,0.5,3.2c-0.2,0.1-0.4,0.2-0.6,0.2c-0.6-0.3-1.2-0.4-1.6,0.4c-0.1,0.1-0.2,0.2-0.3,0.3c-0.3,0.2-0.5,0.4-0.9,0.5
			c-0.6,0.1-1,0.5-1.6,0.5c-0.2-0.2-0.5-0.2-0.7,0c-0.3,0-0.6,0.1-0.9,0.2c-0.2,0-0.4,0-0.5-0.1c-0.2,0-0.3-0.1-0.4-0.2
			c-0.1-0.1-0.1-0.3-0.1-0.4c0-0.3-0.1-0.5,0-0.8c0-0.1,0.1,0,0,0c-0.2,0.2,0.1,0.7-0.2,0.9c-0.8,0.4-1.5,0.2-2.3,0.1
			c-0.3,0-0.5,0-0.7-0.2c-0.1-0.1-0.1-0.2-0.2-0.2c-0.1-0.5-0.1-0.9,0.2-1.3c0-0.1,0.1-0.1,0.1-0.2c0-0.1-0.1,0-0.1,0.1
			c-0.1,0.2-0.2,0.3-0.5,0.3c-0.1,0-0.1-0.1-0.2-0.1c-0.2-0.2-0.4-0.3-0.5-0.5c-0.1-0.2-0.2-0.4-0.4-0.4c-0.4-0.1-0.8,0.1-1.2,0
			c-0.3-0.1-0.4-0.3-0.6-0.5c-0.2-0.2-0.5-0.1-0.7-0.2c-0.4-0.2-0.3-0.6-0.3-1C22.6,38.6,22.7,38.5,22.9,38.5z"/>
		<path class="st1" d="M33.2,29.2c0-0.1,0-0.1,0-0.2c0.1-0.3,0.1-0.7,0.4-0.9c0,0,0-0.1,0-0.1c0-0.6,0.4-0.4,0.7-0.4
			c0.5-0.1,1.1,0.1,1.6,0.1c0.2,0,0.4-0.1,0.7,0c0.1,0.6,0.6,0.2,0.9,0.4c0.3,0.1,0.6,0.2,0.9,0.3c0.3,0,0.4,0.8,0.9,0.4
			c0.2,0,0.4,0,0.6,0.1c0.4,0.2,0.7,0.4,1,0.8c0.2,0.8,0.8,1.4,0.7,2.3c0,0.4,0,0.9-0.1,1.3c-0.3,0.6-0.9,0.8-1.5,0.9
			c-0.2,0-0.4,0-0.6,0c-0.1,0-0.2,0-0.3,0c-0.1,0-0.2,0-0.3-0.1C38.5,34,38.2,34,37.8,34c-0.7-0.4-0.8-1.2-1.3-1.8
			c-0.1-0.1-0.1-0.2-0.2-0.3c-0.1-0.1-0.1-0.1-0.2-0.2c-0.1-0.1-0.1-0.1-0.1-0.2c-0.2-0.3-0.4-0.5-0.6-0.6c-0.1,0-0.1-0.1-0.2-0.2
			c0,0-0.1-0.1-0.1-0.1c-0.1-0.1-0.1-0.1-0.2-0.2c-0.1-0.1-0.2-0.2-0.3-0.3c-0.2-0.1-0.3-0.2-0.5-0.3C33.7,29.7,33.4,29.6,33.2,29.2
			z"/>
		<path class="st0" d="M39.7,21.1c0.5-0.1,0.9,0.1,1.3,0.4c0.3,0.3,0.3,0.7,0.3,1.1c0,0.1,0,0.2,0,0.3c-0.2,0.6-0.5,1-1,1.2
			c-0.6,0.2-1.2-0.1-1.8,0c-0.3,0-0.7-0.1-1-0.1c-0.1,0-0.2,0-0.3-0.1c-0.3-0.2-0.6-0.3-0.9-0.4c-0.4-0.1-0.8-0.1-1.1-0.3
			c-0.1-0.1-0.1-0.1-0.2-0.2c-0.1-0.4-0.3-0.7-0.2-1.2c0-0.1,0.1-0.2,0.2-0.2c0.2-0.1,0.4-0.1,0.6-0.3c0.2-0.1,0.3-0.2,0.5-0.3
			c0.1,0,0.2,0,0.3,0c-0.2,0-0.2-0.1-0.2-0.3c0.1-0.1,0.3-0.1,0.4-0.2c0.7,0.2,1.4,0,2.1,0.1c0.1,0,0.2,0,0.3,0.1
			c0,0.2-0.2,0.4,0.1,0.5c0.1,0.1,0.2,0.1,0.2,0.1c0.1,0,0.2,0.1,0.3,0.1c0-0.1-0.2-0.1-0.1-0.3C39.4,21.1,39.6,21.2,39.7,21.1z"/>
		<path class="st2" d="M31.4,32.7c0.5-0.8,1-1.6,1.4-2.4c1.2,0,1.4,1,2,1.7c0.4,0.7,0.7,1.5,1,2.2c0.4,1,0,1.5-1,1.3
			c-0.4,0-0.8-0.2-1.2-0.2c-0.6-0.2-1.3-0.1-1.8-0.6c-0.2-0.2-0.2-0.7-0.6-0.7C30.9,33.6,31.4,33.2,31.4,32.7z"/>
		<path class="st3" d="M26.4,41.2c0,0.1,0,0.2,0,0.2c0.3,0.3,0.1,0.9,0.4,1.2l0,0c-0.1,0.6-0.5,0.4-0.9,0.5c-0.4,0.1-0.8,0-1.2,0.2
			c-0.1,0-0.3,0-0.4,0c-0.2-0.2-0.5-0.4-0.7-0.6c-0.2-0.2-0.4-0.4-0.4-0.7c0-0.3,0-0.6,0.1-0.9c0.1-0.4,0.3-0.8,0.7-0.9
			c0.2,0,0.5,0.1,0.7,0.1c0.1,0,0.2,0.1,0.2,0.1C25.4,40.8,25.9,40.9,26.4,41.2z"/>
		<path class="st4" d="M18.8,42.7c-0.7-0.1-1.2-0.6-1.5-1.3c-0.2-0.3-0.1-0.7-0.1-1c0.1-0.2,0.3-0.4,0.5-0.6c0.1,0,0.1,0,0.2,0
			c0.3,0.2,0.6-0.3,0.9-0.1c0.1,0.1,0.1,0.1,0.2,0.2c0.3,0.3,0.8,0.4,1.1,0.9c0.2,0.3,0.2,0.7,0.4,1c0,0.2,0,0.4-0.2,0.5
			c-0.2,0.1-0.3,0.2-0.5,0.3C19.5,42.7,19.1,42.3,18.8,42.7z"/>
		<path class="st5" d="M37,38.3c-1.1-0.5-2.3-1-3.4-1.5c-1.2-0.6-2.6-0.7-3.9-1c-0.3-0.1-0.7,0-0.9-0.4c0.1-0.2,0.3-0.2,0.4-0.2
			c0.3-0.2,0.6-0.2,0.9-0.2c0.2,0,0.4,0.1,0.6,0.2c0.5,0.1,1.1,0.1,1.6,0.3c0.1,0,0.2,0.1,0.2,0.1c0,0,0.1,0,0.1,0.1
			c0.3,0.2,0.5,0.3,0.8,0.3c0.3,0.1,0.5,0.1,0.6,0.4c0.1,0.4,0.4,0.1,0.7,0.2c0.5,0,1,0.3,1.5,0.4c0.1,0.1,0.2,0.1,0.4,0.2
			c0.3,0.3,0.6,0.4,0.8,0.7c0,0.1,0,0.2,0,0.3C37.4,38.2,37.2,38.3,37,38.3z"/>
		<path class="st6" d="M34.5,32c-0.5-0.6-0.8-1.4-1.7-1.7c0.1-0.4-0.1-0.8,0.4-1c0.4,0.2,0.8,0.3,1.1,0.5c0.1,0.1,0.2,0.3,0.3,0.4
			c0.1,0.1,0.1,0.1,0.2,0.2c0.1,0.1,0.1,0.1,0.2,0.1c0.1,0,0.1,0.1,0.2,0.1l0,0c0.1,0.2,0.2,0.5,0.1,0.7c-0.1,0.2-0.3,0.4-0.4,0.6
			C34.8,32,34.7,32.1,34.5,32z"/>
		<path class="st7" d="M37,38.3c0.1-0.2,0.2-0.2,0.4-0.2c0,0,0.1-0.1,0.1-0.1c0,0,0.1,0,0.1,0c0.1,0,0.2,0.1,0.2,0.2
			c0.2,0.2,0.3,0.5,0.5,0.7c0.2,0.3,0.3,0.7,0.5,1c0.1,0.2,0.1,0.5,0.1,0.8c0,0.1,0,0.3-0.1,0.3c-0.5,0.2-0.6,0.9-1.2,0.9
			c-0.2-0.1-0.3-0.2-0.2-0.4C38,40.3,38.1,39.2,37,38.3z"/>
		<path class="st8" d="M30.3,42.9c0,0.1,0,0.3,0,0.4c-0.6,0.5-1.3,0.6-2.1,0.4c-0.4,0.1-0.6-0.3-0.9-0.5c-0.1,0-0.1-0.1-0.1-0.2
			c0-0.1,0.1-0.1,0.1-0.2c0.8,0,1.7,0,2.5,0C30.1,42.8,30.2,42.8,30.3,42.9z"/>
		<path class="st9" d="M43.5,38.1c0,0.2,0,0.4-0.2,0.6c-0.2,0.1-0.4,0.3-0.7,0.2C42.6,38,43,37,42.5,36.1c0-0.3,0.2-0.6,0.5-0.8
			c0.1,0,0.2,0,0.3,0c0,0.1,0.1,0.2,0.1,0.3c0.1,0.4,0.2,0.9,0.3,1.3C43.7,37.3,43.8,37.8,43.5,38.1z"/>
		<path class="st10" d="M27.4,42.9c0,0.1,0,0.1,0,0.2c-0.1,0.1-0.1,0.1-0.2,0.2c-0.1,0.1-0.2,0.2-0.3,0.3c-0.7,0.2-1.3,0-2,0
			c-0.1-0.1-0.1-0.1-0.2-0.2c0.1-0.5,0.4-0.4,0.8-0.5c0.5,0,0.9,0.2,1.4-0.2C27,42.7,27.2,42.8,27.4,42.9z"/>
		<path class="st11" d="M41,22.8c0-0.4,0-0.9,0-1.3c0.5-0.1,0.9,0.3,1.2,0.6c-0.1,0.2-0.2,0.5-0.2,0.7c-0.3,0.3,0.2,1-0.5,1.1
			c-0.2-0.1-0.2-0.2-0.2-0.4C41.2,23.3,41.6,22.9,41,22.8z"/>
		<path class="st12" d="M32.6,43.3c0.6-0.2,1.1-0.4,1.7-0.6c0.1,0.2,0.2,0.3,0.1,0.5c-0.1,0.1-0.2,0.2-0.3,0.3
			c-0.6,0.1-1.1,0.1-1.7,0.2c-0.3,0.1-0.7,0.1-1,0.1c-0.2-0.5,0.2-0.4,0.4-0.4C32.1,43.4,32.3,43.1,32.6,43.3z"/>
		<path class="st13" d="M31.4,32.7c0.4,0.5-0.2,0.9-0.2,1.4c0,0.2-0.1,0.3-0.2,0.5c-0.1,0.1-0.1,0.1-0.2,0.2
			c-0.1,0.1-0.3,0.1-0.4,0.1c-0.2-0.1-0.4-0.3-0.3-0.6C30.4,33.6,30.9,33.2,31.4,32.7z"/>
		<path class="st14" d="M42.6,38.9c0.2-0.1,0.5-0.1,0.7-0.2c-0.2,0.7-0.6,1.3-1.4,1.3c-0.2,0-0.4,0.1-0.6-0.1
			C41.6,39.3,42,38.9,42.6,38.9z"/>
		<path class="st15" d="M42,27.6c0,0.2,0.1,0.5-0.1,0.7c-0.6,0-0.5-0.5-0.5-0.9c0-0.8-0.1-1.5,0-2.3c0.1-0.3,0.2-0.6,0.6-0.6
			c0,0.2,0,0.4,0,0.6C41.9,25.9,41.9,26.7,42,27.6z"/>
		<path class="st16" d="M43.2,35.3c-0.1,0-0.1,0-0.2,0c-0.4,0.2-0.6,0-0.7-0.3c0-0.6-0.7-1.2,0.3-1.6c0.2,0.2,0.2,0.5,0.5,0.7
			c0,0.1,0,0.3,0,0.4C43,34.8,43.5,35,43.2,35.3z"/>
		<path class="st17" d="M41.6,24.9c0.1,1.1-0.3,2.3,0.2,3.4c0,0.1,0,0.1,0,0.2c-0.1,0.2-0.2,0.3-0.4,0.3c-0.2-0.1-0.2-0.2-0.3-0.4
			c-0.1-0.7,0-1.4-0.1-2.1c0.1-0.5-0.2-1.1,0.4-1.5C41.6,24.6,41.7,24.7,41.6,24.9z"/>
		<path class="st18" d="M21.8,43.3c-0.2-0.1-0.4-0.2-0.6-0.2c-0.1-0.1-0.1-0.2,0-0.3c0.5-0.2,1-0.2,1.4-0.1c0.3,0.1,0.7,0,1.1,0.2
			c0.1,0.2,0.3,0.4,0,0.5C23.1,43.4,22.4,43.5,21.8,43.3z"/>
		<path class="st19" d="M36.2,42.7c-0.3,0.1-0.5,0.1-0.8,0.2c-0.2-0.1-0.3-0.3-0.2-0.6c0.1-0.1,0.1-0.2,0.2-0.2
			c0.1-0.1,0.3-0.2,0.4-0.2c0.2,0,0.4,0,0.6,0.1c0.2,0.1,0.3,0.3,0.2,0.5C36.4,42.5,36.2,42.5,36.2,42.7z"/>
		<path class="st20" d="M36.6,42.4c0-0.2,0-0.3-0.2-0.4c-0.1-0.2,0-0.3,0.1-0.4c0.2-0.1,0.3-0.2,0.5-0.1c0.1-0.1,0.3-0.1,0.4-0.2
			c0.1,0.1,0.1,0.3,0.2,0.4C37.5,42.4,36.9,42.2,36.6,42.4z"/>
		<path class="st21" d="M30.1,34.2c0.1,0.2,0.2,0.4,0.5,0.5c0.1,0.2,0,0.3-0.2,0.4c-0.4,0-0.7,0-1.1,0
			C29.3,34.6,29.8,34.4,30.1,34.2z"/>
		<path class="st22" d="M36,20.9c0.1,0.1,0.3,0.2,0.5,0.3c-0.4,0.1-1,0-1.1,0.5c-0.2,0.1-0.3-0.1-0.5-0.2c0-0.1,0-0.2,0-0.3
			C35.2,21,35.6,20.9,36,20.9z"/>
		<path class="st23" d="M28.3,43.7c0.7,0,1.4-0.1,2.1-0.4c0.1,0.1,0.2,0.1,0.3,0.2C29.8,43.9,29.1,44.1,28.3,43.7z"/>
		<path class="st24" d="M43.5,38.1c0-0.4,0-0.9,0-1.3c0.2-0.1,0-0.4,0.3-0.5C43.9,36.9,44.3,37.6,43.5,38.1z"/>
		<path class="st25" d="M21.2,42.9c0,0.1,0,0.1,0,0.2c-0.7,0-1.4,0.3-2.1-0.1c0.1-0.2,0.3-0.2,0.5-0.2c0.4,0,0.7-0.2,1.1-0.1
			C20.9,42.6,21.1,42.7,21.2,42.9z"/>
		<path class="st26" d="M34.7,21.7c0.1,0.4,0.1,0.8,0.2,1.3c-0.1,0.1-0.3,0.1-0.4,0c-0.3-0.1-0.2-0.4-0.2-0.6
			C34.6,22.2,34.2,21.7,34.7,21.7z"/>
		<path class="st27" d="M42,27.6c-0.3-0.8-0.3-1.7,0-2.5C42,25.9,42,26.7,42,27.6z"/>
		<path class="st28" d="M21.8,43.3c0.7,0,1.4,0,2.1,0c0.1,0,0.1,0,0.1,0C23.3,43.7,22.5,43.6,21.8,43.3z"/>
		<path class="st29" d="M19.7,42.9c-0.2,0-0.4,0-0.6,0.1c-0.1-0.1-0.2-0.1-0.3-0.2c0.2-0.7,0.7-0.2,1.1-0.3
			C20,42.7,19.8,42.8,19.7,42.9z"/>
		<path class="st30" d="M42.4,31.6c0,0.1,0,0.2,0.1,0.4c-0.1,0.2,0,0.4-0.2,0.6c-0.9-0.2-0.6-0.9-0.6-1.5c0-0.1,0.1-0.2,0.2-0.2
			C42.3,30.9,42.2,31.4,42.4,31.6z"/>
		<path class="st31" d="M42,31c-0.1,0-0.1,0-0.2,0c-0.2-0.1-0.3-0.3-0.3-0.6c0.2-0.3,0-0.6,0.2-0.9c0.1-0.1,0.2-0.1,0.2,0
			c0.1,0.4,0.4,0.8,0.3,1.3C42.2,30.9,42.1,30.9,42,31z"/>
		<path class="st32" d="M38.7,20.9c-0.8-0.1-1.6,0.2-2.3-0.2c0.8-0.1,1.5-0.1,2.3,0C38.7,20.7,38.7,20.8,38.7,20.9
			C38.7,20.9,38.7,20.9,38.7,20.9z"/>
		<path class="st33" d="M41.4,39.8c0.1,0.2,0.3,0.2,0.5,0.2c-0.3,0.2-0.5,0.4-0.9,0.4c-0.2,0.1-0.4,0.2-0.6,0.1
			C40.4,39.7,40.9,39.7,41.4,39.8z"/>
		<path class="st34" d="M34.7,21.7c-0.1,0.2-0.3,0.4-0.4,0.6c0.2-0.4-0.5-1.2,0.6-1.1c0,0.1,0,0.2,0,0.3c0.1,0,0.1,0.1,0.1,0.1
			c0,0,0,0.1-0.1,0.1C34.8,21.7,34.8,21.7,34.7,21.7z"/>
		<path class="st35" d="M38.9,41c0-0.1,0-0.3,0-0.4c0.4-0.3,0.8-0.2,1.2,0.1c0,0,0.1,0.1,0.1,0.1C39.8,41.1,39.3,41,38.9,41z"/>
		<path class="st36" d="M41.4,23.8c0.7-0.2,0.3-0.8,0.4-1.3c0.5,0.1,0.2,0.4,0.2,0.7c0,0.3,0,0.6-0.1,1c-0.2,0.1-0.4,0-0.6-0.1
			C41.4,24,41.4,23.9,41.4,23.8z"/>
		<path class="st37" d="M34.5,23c0.1,0,0.3,0,0.4,0c0,0.1,0,0.1,0,0.2c0,0.1,0.1,0.1,0.1,0.2c0,0.1,0,0.1,0,0.1
			c-0.2,0.3-0.2,0.8-0.6,1c-0.3-0.1-0.2-0.3-0.2-0.5C34.2,23.6,34.3,23.3,34.5,23z"/>
		<path class="st38" d="M24.9,43.5c0.7-0.2,1.3,0.1,2,0C26.2,43.9,25.6,43.8,24.9,43.5z"/>
		<path class="st39" d="M38.7,21.5c0.1-0.1-0.7-0.3,0-0.4c0.2-0.2,0.4-0.2,0.7,0c0.1,0,0.2,0,0.4,0c-0.1,0.1-0.3,0.1-0.4,0.2
			C39.2,21.5,39,21.7,38.7,21.5z"/>
		<path class="st40" d="M17.4,40.4c0.1,0.4,0.1,0.7,0,1.1c-0.5-0.3-0.5-0.7-0.2-1.1C17.3,40.3,17.3,40.3,17.4,40.4z"/>
		<path class="st41" d="M43.1,34.1c-0.4,0-0.4-0.3-0.5-0.6c-0.2-0.1-0.3-0.2-0.2-0.5c0.1-0.1,0.2-0.2,0.3-0.3
			C42.8,33.2,42.9,33.6,43.1,34.1z"/>
		<path class="st42" d="M40.4,40.4c0.2,0,0.5,0,0.7,0c-0.1,0.5-0.5,0.4-0.9,0.4c0,0,0,0,0,0C40,40.5,40,40.4,40.4,40.4z"/>
		<path class="st43" d="M42,31c0.1-0.1,0.2-0.2,0.2-0.2c0.2,0.2,0.2,0.5,0.2,0.8C42,31.5,42,31.2,42,31z"/>
		<path class="st44" d="M32,43.5c-0.2,0-0.5,0-0.6,0.2c-0.1,0.1-0.1,0.1-0.2,0c0,0-0.1-0.1-0.1-0.1c0.1-0.7,0.5-0.5,0.9-0.3
			C32.1,43.3,32.1,43.4,32,43.5C32,43.5,32,43.5,32,43.5z"/>
		<path class="st45" d="M43.7,36.3c-0.1,0.2-0.1,0.4-0.3,0.5c-0.1-0.4-0.1-0.8-0.2-1.3c0.1-0.1,0.1-0.1,0.2,0
			C43.8,35.7,43.7,36,43.7,36.3z"/>
		<path class="st46" d="M42.7,32.8c-0.1,0.1-0.2,0.2-0.2,0.3c-0.3-0.2-0.1-0.4-0.2-0.6c0-0.2,0.1-0.4,0.2-0.5
			C42.7,32.2,42.7,32.5,42.7,32.8z"/>
		<path class="st47" d="M43.5,35.5c-0.1,0-0.1,0-0.2,0c0-0.1-0.1-0.1-0.1-0.2c0-0.3-0.4-0.5-0.1-0.9C43.4,34.8,43.5,35.1,43.5,35.5z
			"/>
		<path class="st48" d="M24.1,43.3c0,0-0.1-0.1-0.1,0c-0.1-0.1-0.2-0.2-0.3-0.4c0,0,0-0.1,0-0.1c0,0,0.1-0.1,0.1-0.1
			c0.4,0,0.6,0.2,0.6,0.6C24.2,43.3,24.1,43.3,24.1,43.3z"/>
		<path class="st49" d="M41.4,24c0.2,0.1,0.4,0.1,0.6,0.2c0,0.1,0,0.2,0,0.2c-0.1,0.1-0.3,0.3-0.4,0.4c0-0.1,0-0.1,0-0.2
			c-0.2-0.1-0.3-0.2-0.3-0.4c0,0,0-0.1,0-0.1C41.3,24.1,41.4,24,41.4,24z"/>
		<path class="st50" d="M42,29.5c0,0-0.1,0-0.1,0c-0.1,0-0.1-0.1-0.2-0.2c-0.1-0.2-0.1-0.4,0-0.6c0.1-0.1,0.1-0.2,0.2-0.2
			C42.2,28.7,42,29.1,42,29.5z"/>
		<path class="st51" d="M42.1,23.2c-0.1-0.2,0-0.5-0.2-0.7c0-0.2,0.2-0.4,0.4-0.5C42.2,22.5,42.3,22.9,42.1,23.2z"/>
		<path class="st52" d="M31.2,43.7c0.1,0,0.1,0,0.2,0c0.4,0,0.7,0,1.1,0C32,44.1,31.6,44,31.2,43.7z"/>
		<path class="st53" d="M39.4,21.1c-0.2,0-0.4,0-0.7,0c0-0.1,0-0.1,0-0.2c0-0.1,0-0.1,0-0.2C39,20.6,39.3,20.7,39.4,21.1z"/>
		<path class="st54" d="M27.2,43.3c0.1-0.1,0.1-0.1,0.2-0.2c0,0.1,0,0.1,0,0.2C27.3,43.3,27.3,43.3,27.2,43.3z"/>
		<path class="st55" d="M27.6,36.2c0-0.1,0.1-0.2,0.2-0.2c0.1,0.1,0,0.1,0,0.2l0,0C27.8,36.2,27.7,36.2,27.6,36.2L27.6,36.2z"/>
		<path class="st56" d="M27.8,36.2c0-0.1,0-0.1,0-0.2c0.1,0,0.1-0.1,0.2-0.1C28,36,27.9,36.1,27.8,36.2z"/>
		<path class="st0" d="M21.2,42.9c-0.1-0.1-0.3-0.2-0.4-0.3c-0.2-0.1-0.3-0.2-0.4-0.4c0.1-0.1,0.1-0.3,0.2-0.4
			c-0.2-0.3-0.2-0.6-0.2-0.9c0-0.2,0.1-0.4,0.3-0.6c0.1-0.1,0.3-0.2,0.5-0.3c0.3,0,0.6,0.1,0.8-0.1c0.2-0.1,0.4-0.2,0.6-0.3
			c0.1,0,0.2-0.1,0.3,0c0.3,0.2,0.5-0.2,0.8-0.2c0.1,0.2,0.2,0.5,0.5,0.7c0,0.1,0,0.1-0.1,0.2c-0.3,0.2-0.6,0.4-0.6,0.8
			c-0.3,0.2-0.1,0.6-0.2,0.9c0.2,0.2,0.5,0.3,0.4,0.6c0,0,0,0,0,0c-0.3,0.2-0.6,0.2-0.9,0.2C22.3,42.9,21.7,42.9,21.2,42.9z"/>
		<path class="st57" d="M21.1,40.2c-0.1,0.1-0.3,0.1-0.4,0.2c-0.4,0.2-0.5,0-0.7-0.2c0-0.3-0.2-0.5-0.2-0.8l0,0
			c0.4-0.1,0.7-0.1,1.1-0.2c0.5-0.1,1-0.7,1.6-0.4c0.1,0.3,0.2,0.6,0.3,0.9c0,0.1,0,0.1-0.1,0.2c-0.1,0-0.2,0-0.2,0
			c-0.1,0.3-0.4,0.3-0.7,0.3C21.6,40.1,21.4,40.1,21.1,40.2z"/>
		<path class="st58" d="M37,41.6c-0.1,0.1-0.3,0.1-0.4,0.2c-0.3-0.1-0.6,0-0.8,0.2c-0.1,0-0.3,0-0.4,0C35.8,41,36.3,40.9,37,41.6z"
			/>
		<path class="st59" d="M35.1,42.3c0.1,0.2,0.2,0.4,0.2,0.6c-0.3,0.3-0.8,0.1-1.1,0.4c0-0.2,0-0.4,0.1-0.6
			C34.7,42.7,34.8,42.3,35.1,42.3z"/>
		<path class="st60" d="M26.8,42.7c-0.4-0.3-0.4-0.8-0.4-1.2c0.1-0.1,0.3-0.3,0.4-0.4c0.1-0.1,0.1-0.1,0.2,0
			C26.8,41.6,26.8,42.1,26.8,42.7z"/>
		<path class="st61" d="M24.1,40.4c0-0.1,0-0.1,0.1-0.2c0.5,0.2,0.9-0.4,1.4,0c-0.1,0.5-0.5,0.4-0.9,0.4
			C24.5,40.5,24.2,40.6,24.1,40.4z"/>
		<path class="st62" d="M27.7,39.8c-0.3,0.2-0.5,0.5-0.9,0.2c-0.1,0-0.1-0.3,0-0.3C27.1,39.7,27.4,39.4,27.7,39.8z"/>
		<path class="st63" d="M24.7,40.5c0.2-0.3,0.7-0.1,0.9-0.4c0.2,0.2,0.2,0.4,0.2,0.6c-0.3,0.2-0.7,0.2-1,0
			C24.7,40.7,24.7,40.6,24.7,40.5z"/>
		<path class="st64" d="M24.7,40.8c0.3,0,0.7,0,1,0c0.3,0,0.5,0.1,0.6,0.4C25.8,41.1,25.2,41.1,24.7,40.8z"/>
		<path class="st39" d="M29.9,39.7c-0.2,0.5-0.5,0.4-0.9,0.2C29.3,39.7,29.5,39.5,29.9,39.7z"/>
		<path class="st65" d="M32,43.5c0-0.1,0-0.1,0-0.2c0.1-0.3,0.3-0.5,0.6-0.4c0.2,0.1,0,0.2,0,0.4C32.4,43.4,32.2,43.4,32,43.5z"/>
		<path class="st66" d="M30.3,42.9c-0.1,0-0.3,0-0.4,0c0-0.3,0-0.6,0-0.9c0,0,0.1,0,0.1,0C30.2,42.3,30.3,42.6,30.3,42.9z"/>
		<path class="st67" d="M28.3,40.8c-0.3,0.2-0.6,0.4-0.7,0c-0.1-0.3,0.3-0.2,0.5-0.2C28.1,40.7,28.3,40.7,28.3,40.8z"/>
		<path class="st68" d="M22.8,39.7c0-0.1,0-0.1,0.1-0.2c0.3,0.1,0.5-0.4,0.8,0C23.4,39.6,23.2,40.1,22.8,39.7z"/>
		<path class="st69" d="M31.2,41.1c0.4-0.3,0.7-0.4,1.1-0.3C32,41,31.7,41.2,31.2,41.1z"/>
		<path class="st70" d="M28.3,40.8c-0.1-0.1-0.1-0.1-0.2-0.2c0.2,0,0.5-0.1,0.8-0.1C28.7,40.8,28.5,40.8,28.3,40.8z"/>
		<path class="st71" d="M25.6,39.6c-0.3,0.3-0.5,0.1-0.8,0.2C25.1,39.4,25.3,39.6,25.6,39.6z"/>
		<path class="st72" d="M27.6,36.2c0.1,0,0.1,0,0.2,0C27.7,36.3,27.7,36.3,27.6,36.2z"/>
		<path class="st73" d="M27,41L27,41c-0.1,0-0.2,0-0.2,0C26.9,40.9,26.9,40.8,27,41z"/>
		<path class="st74" d="M34.5,32c0.1-0.1,0.1-0.1,0.2-0.2c0.3-0.2,0.6,0.2,0.9,0.1c0.1,0,0.2,0,0.2,0c0.1,0,0.2,0,0.2,0
			c0.1,0,0.2,0,0.3,0.1c0.1,0,0.1,0,0.2,0.1c0.4,0.6,0.8,1.3,1.2,1.9c0.1,0,0.1,0.1,0.2,0.2c0,0.4,0.2,0.7,0.4,1
			c0,0.1,0,0.2,0.1,0.3c0,0.4,0.1,0.8,0,1.1c-0.2,0.5,0,1-0.2,1.5c-0.1,0.1-0.1,0.2-0.3,0.2c-0.1,0-0.2,0-0.3-0.1l0,0
			c-0.1-0.1-0.2-0.1-0.2-0.2c-0.3-0.2-0.7-0.3-0.8-0.7c-0.2,0.1,0.1-0.4-0.2-0.2c-0.6,0.1-1.1-0.4-1.7-0.5c-0.2,0-0.4,0-0.6-0.2
			c-0.2-0.1-0.4-0.3-0.6-0.4c-0.3-0.1-0.6,0-0.9-0.2l0-0.1c0-0.4,0.3-0.3,0.5-0.3c0.1,0,0.2,0.1,0.3,0c-0.1,0-0.1-0.1-0.1-0.1
			c0,0,0-0.1,0-0.1c0.4,0,0.8,0,1.2,0.2c0.3,0.1,0.7,0.2,1-0.1c0.3-0.3,0-0.6-0.1-1C35.2,33.5,34.8,32.7,34.5,32z"/>
		<path class="st74" d="M39.9,29c-0.2,0-0.4,0-0.6,0c-0.2-0.2-0.6-0.3-0.8-0.5c-0.1,0-0.2-0.1-0.3-0.2c0-0.1,0-0.3-0.1-0.4
			c-0.2-0.3-0.6-0.3-0.9-0.5c-0.1-0.1-0.1-0.2-0.1-0.4c0-0.1,0.1-0.2,0.1-0.2c0.1-0.1,0.2-0.2,0.3-0.3c0.1-0.1,0.2-0.2,0.2-0.3
			c0.3-0.4,0.5-0.9,1-1.1c0.3,0,0.6-0.2,0.9-0.2c0.1,0,0.2,0.1,0.3,0.1c0.9,0.4,1.2,1.3,1.2,2.2C41.2,28.7,40.9,29.1,39.9,29z"/>
		<path class="st75" d="M37.2,26.9c0,0.1,0,0.3,0,0.4c0,0.1-0.1,0.2-0.2,0.3c-0.1,0.1-0.3,0.1-0.5,0.1c-0.2,0.1-0.4,0.1-0.6,0.2
			c-0.3-0.4-0.9-0.2-1.3-0.4c-0.2-0.3-0.5-0.2-0.8-0.2c0-0.2,0-0.3,0.2-0.4c0.1-0.4,0.3-0.5,0.7-0.3c0.8,0.5,1.2-0.1,1.5-0.7
			c0.3-0.5,0.9-1.1-0.1-1.7c-0.3-0.2-0.6-0.5-0.1-0.8c0.3-0.1,0.6,0.1,0.8,0.3c0.1,0,0.2,0,0.2,0c0.4,0.1,0.7,0.3,1.1,0.3
			c0.4,0,0.7,0.1,0.9,0.5c0.1,0.3-0.1,0.5-0.3,0.7c-0.3,0.4-0.7,0.8-1,1.3c-0.1,0.1-0.2,0.1-0.3,0.1c0,0.1-0.1,0.1-0.2,0.1
			C37.3,26.9,37.3,26.9,37.2,26.9z"/>
		<path class="st76" d="M42.2,32.4c0.2,0.2,0.2,0.4,0.2,0.6c0,0.1,0.1,0.3,0.1,0.4c-0.4,0.2-0.5,0.5-0.2,0.9
			c0.1,0.2,0.4,0.4,0.1,0.6c-0.6,0.4-1.1-0.1-1.7-0.1c-0.2-0.3-0.8-0.2-0.8-0.7c0.5-0.1,1.1-0.3,1.5-0.7c0.2-0.5,0.2-1,0-1.5
			c0.1-0.8-0.8-1.4-0.7-2.3c0.1-0.1,0.2-0.1,0.3-0.1c0.3,0.2,0.7,0.2,0.6,0.7c0.1,0.2,0.2,0.4,0.2,0.6c-0.1,0.5,0.2,1,0.3,1.5
			C42.1,32.4,42.1,32.4,42.2,32.4C42.2,32.4,42.2,32.4,42.2,32.4z"/>
		<path class="st77" d="M41,29.7c-0.1,0-0.2,0-0.2,0c-0.3-0.2-0.7-0.3-0.9-0.6c1-0.3,1.2-1,1.1-1.9c0-0.9-0.5-1.7-0.3-2.6
			c0.2-0.3,0.4-0.4,0.8-0.3c0.1,0.1,0.1,0.3,0.2,0.4c-0.4,0.4-0.1,1-0.2,1.5c-0.2,0.8-0.2,1.5,0,2.3c0.1,0.1,0.2,0.1,0.2,0.2
			c0.2,0.2,0.2,0.4,0.2,0.6C41.6,29.5,41.4,29.8,41,29.7z"/>
		<path class="st78" d="M38.2,35.3c0-0.1,0-0.1,0-0.2c-0.2-0.2-0.3-0.5-0.3-0.8c0.2-0.5,0.6-0.3,0.9-0.3c0.1,0,0.1,0,0.2,0
			c0.1,0.1,0.1,0.2,0.1,0.4c0,0.1,0,0.3,0,0.4c-0.2,1,0.2,2-0.2,2.9c-0.1,0.1-0.1,0.1-0.3,0.1c-0.3-0.2-0.4-0.5-0.4-0.8
			c0-0.3,0-0.6,0-0.8C38.4,35.9,38.3,35.6,38.2,35.3z"/>
		<path class="st79" d="M39.1,34.7c-0.2,0-0.3,0-0.6,0.1c0.1-0.4,0.7-0.3,0.6-0.7c0.1,0,0.1,0,0.2,0c0.3,0.3,0.9,0.1,1.1,0.6
			c-0.1,0.2-0.2,0.3-0.3,0.3C39.7,35.2,39.4,35,39.1,34.7z"/>
		<path class="st80" d="M36,32c-0.1,0-0.1,0-0.2,0c-0.3-0.1-0.7-0.1-0.6-0.6c0-0.3,0-0.5,0-0.8c0.1,0.1,0.1,0.1,0.2,0.2
			c0.4,0.2,0.6,0.5,0.8,0.8l0,0c0.1,0.1,0.1,0.1,0.1,0.2C36.2,31.9,36.1,31.9,36,32z"/>
		<path class="st81" d="M40.4,34.7c-0.3-0.3-0.9,0-1.1-0.6c0.2,0,0.4,0,0.6,0c0.2,0.3,0.9,0,0.8,0.6C40.6,34.8,40.5,34.8,40.4,34.7z
			"/>
		<path class="st82" d="M34.7,27.6c0.4,0.2,1-0.3,1.3,0.4c-0.5,0.1-1-0.5-1.5,0C34.5,27.8,34.6,27.7,34.7,27.6z"/>
		<path class="st83" d="M36.5,27.8c0.1-0.2,0.3-0.2,0.5-0.2c0,0,0.1,0,0.1,0c0.2,0.1,0.5,0.2,0.6,0.5c0,0.2-0.1,0.2-0.2,0.3
			C37.2,28.2,36.5,28.5,36.5,27.8z"/>
		<path class="st84" d="M38.9,34.1c-0.3,0.1-0.5,0.1-0.8,0.2c-0.2,0-0.2-0.1-0.3-0.3c0-0.1,0-0.1,0-0.2
			C38.2,33.6,38.6,33.7,38.9,34.1z"/>
		<path class="st85" d="M38.5,28.4c0.3,0.1,0.8,0.1,0.9,0.6c-0.4,0.2-0.6-0.2-0.9-0.4C38.4,28.6,38.4,28.6,38.5,28.4
			C38.4,28.5,38.4,28.4,38.5,28.4z"/>
		<path class="st86" d="M36.2,31.6c-0.4-0.2-0.6-0.5-0.8-0.8C35.9,30.8,36.1,31.1,36.2,31.6z"/>
		<path class="st87" d="M41.4,32c0.3,0.5,0.3,1,0,1.5C41.4,32.9,41.4,32.5,41.4,32z"/>
		<path class="st88" d="M38.5,28.4c0,0.1,0,0.1,0,0.2c-0.3-0.1-0.7-0.2-1-0.3c0.1-0.1,0.1-0.1,0.2-0.2c0.2-0.1,0.4-0.1,0.5,0.1
			C38.3,28.3,38.4,28.4,38.5,28.4z"/>
		<path class="st89" d="M34.7,30.3c-0.3-0.1-0.5-0.2-0.4-0.6c0.1,0.1,0.3,0.3,0.4,0.4C34.8,30.1,34.8,30.2,34.7,30.3
			C34.8,30.2,34.7,30.3,34.7,30.3z"/>
		<path class="st90" d="M35.1,30.5L35.1,30.5l-0.2,0c0,0-0.1-0.1-0.1-0.1c0,0,0-0.1,0.1-0.1C35,30.3,35.1,30.4,35.1,30.5z"/>
		<path class="st91" d="M34.7,30.3c0-0.1,0-0.1,0-0.2c0.1,0.1,0.1,0.2,0.2,0.2c0,0,0,0,0,0C34.9,30.4,34.8,30.4,34.7,30.3L34.7,30.3
			z"/>
		<path class="st92" d="M36.6,32L36.6,32l-0.2,0c0,0-0.1,0-0.1,0c0,0,0-0.1,0-0.1c0,0,0.1-0.1,0.1-0.1C36.5,31.8,36.6,31.8,36.6,32z
			"/>
		<path class="st93" d="M36.2,31.8c0-0.1,0-0.1,0-0.2c0.1,0.1,0.1,0.2,0.2,0.2c0,0,0,0,0,0c0,0-0.1,0.1-0.1,0.1
			C36.2,31.8,36.2,31.8,36.2,31.8z"/>
		<path class="st94" d="M41.4,23.8c0,0.1,0,0.1,0,0.2c0,0,0,0,0,0c-0.3,0.2-0.8,0.3-1,0.7c-0.1,0-0.2,0.1-0.3,0.1
			c-0.1,0-0.2-0.1-0.3-0.1c-0.1-0.3,0.1-0.5,0.3-0.6c0.4-0.3,0.7-0.6,0.8-1c0.4-0.2,0.6,0,0.4,0.4C41.4,23.5,41.4,23.7,41.4,23.8z"
			/>
		<path class="st95" d="M40.1,24c-0.1,0.2-0.1,0.4-0.2,0.6c-0.1,0.1-0.2,0.2-0.3,0.1c-0.1-0.3-0.3,0-0.5-0.1
			c-0.2-0.2-0.5-0.4-0.8-0.4c-0.1,0-0.1-0.1-0.1-0.1c0,0,0-0.1,0.1-0.1C38.9,23.5,39.5,24.2,40.1,24z"/>
		<path class="st96" d="M38.7,21.5c0.2-0.1,0.4-0.1,0.6-0.2c0.1,0.1,0.3,0.2,0.4,0.4C39.4,21.4,38.9,22.3,38.7,21.5z"/>
		<path class="st97" d="M41.4,23.4c0-0.3-0.1-0.4-0.4-0.4c0-0.1,0-0.1,0-0.2c0.2,0,0.2-0.4,0.4-0.1C41.6,22.8,41.7,23.1,41.4,23.4z"
			/>
		<path class="st98" d="M34.9,23.4c0-0.1,0-0.1,0-0.2c0.4,0,0.9-0.1,1.3,0.2c-0.1,0.1-0.2,0.3-0.3,0.3
			C35.5,23.7,35.2,23.7,34.9,23.4z"/>
		<path class="st99" d="M38.3,24c0,0.1,0,0.1,0,0.2c-0.4,0-0.7-0.1-1-0.4C37.6,23.8,38,23.8,38.3,24z"/>
		<path class="st100" d="M36,23.6c0.1-0.1,0.1-0.1,0.2-0.2c0.4,0,0.7,0,0.8,0.4c-0.3-0.1-0.6-0.1-0.9-0.2C36.1,23.7,36,23.7,36,23.6
			z"/>
		<path class="st101" d="M34.9,21.7c0-0.1,0-0.1,0-0.2c0.1,0.1,0.3,0.1,0.4,0.2C35.2,21.9,35.1,21.9,34.9,21.7z"/>
		<path class="st102" d="M30.7,34.5c0.1,0,0.1,0,0.2,0c0.3-0.2,0.6-0.2,0.8,0c0.4,0.5,1.2,0.2,1.7,0.6c0,0,0,0,0,0
			c-0.1,0.2-0.4,0.2-0.6,0.3c-0.2-0.2-0.4,0-0.4,0.2c-0.6-0.1-1.1-0.2-1.7-0.3C30.7,35,30.6,34.8,30.7,34.5z"/>
		<path class="st103" d="M31.8,34.5c-0.3,0-0.6,0-0.8,0c0-0.2,0-0.3,0.2-0.4C31.6,33.8,31.6,34.3,31.8,34.5z"/>
		<path class="st104" d="M23.2,42.1c-0.1-0.3-0.5-0.7,0.2-0.9C23.4,41.5,23.6,41.9,23.2,42.1z"/>
		<path class="st105" d="M20.1,39.9c0.1,0.3,0.3,0.4,0.6,0.4c-0.1,0.1-0.1,0.3-0.2,0.4c-0.1,0.1-0.2,0.1-0.4,0
			c-0.4-0.3-1-0.3-1.3-0.9C19.3,39.8,19.7,39.7,20.1,39.9z"/>
		<path class="st106" d="M20,40.1c-0.4,0.1-0.8-0.2-1.2-0.3c0-0.1,0-0.1,0-0.2c0.2,0,0.4,0,0.5-0.2c0.2,0,0.4-0.1,0.6-0.1
			C19.9,39.6,20.5,39.8,20,40.1z"/>
		<path class="st107" d="M20.3,42.2c0.2,0,0.4,0.1,0.4,0.4c-0.3,0.3-0.7,0.3-1,0.3c0.1-0.1,0.1-0.3,0.2-0.4
			C20,42.3,20.1,42.3,20.3,42.2z"/>
		<path class="st108" d="M20.1,40.8c0.1,0,0.2,0,0.4,0c0,0.3,0,0.7,0,1C19.8,41.7,20.2,41.2,20.1,40.8z"/>
		<path class="st109" d="M18.7,41.5c0,0.2-0.1,0.3-0.2,0.3c-0.2,0-0.2-0.1-0.2-0.3c0-0.1-0.1-0.3,0.1-0.3
			C18.6,41.2,18.7,41.3,18.7,41.5z"/>
		<path class="st110" d="M30.7,34.5c-0.1,0.3,0.5,0.5,0,0.8c-0.2,0-0.3,0-0.4-0.2c0.1-0.1,0.1-0.3,0.2-0.4
			C30.6,34.6,30.7,34.6,30.7,34.5z"/>
		<path class="st111" d="M34.1,36.4c0.2,0,0.5,0,0.6,0.2c-0.3,0.4-0.6,0.1-0.8-0.1C33.8,36.4,34,36.4,34.1,36.4z"/>
		<path class="st112" d="M32.4,35.6c0-0.4,0.2-0.4,0.4-0.2c0.2-0.1,0.4-0.2,0.4,0.2c-0.2,0-0.4-0.1-0.6,0.1
			C32.6,35.6,32.5,35.6,32.4,35.6z"/>
		<path class="st113" d="M36.4,37c0-0.3,0.1-0.6,0.5-0.6c-0.1,0.3-0.2,0.5-0.3,0.7C36.5,37.1,36.4,37.1,36.4,37z"/>
		<path class="st114" d="M32.6,35.8c0.3-0.1,0.6-0.1,0.9,0.2C33.2,36.1,32.9,36,32.6,35.8z"/>
		<path class="st115" d="M37.4,37.9c0.1,0.1,0.2,0.1,0.2,0.2c-0.1,0-0.1,0-0.2,0C37.4,38,37.4,37.9,37.4,37.9z"/>
		<path class="st116" d="M35.1,31.4c0.2,0.2,0.4,0.4,0.6,0.6c-0.5,0.5-0.7-0.1-1-0.2C34.7,31.5,34.9,31.4,35.1,31.4z"/>
		<path class="st117" d="M34.7,30.3c0.1,0,0.1,0,0.2,0c0,0.1,0,0.1,0,0.2C34.9,30.4,34.8,30.4,34.7,30.3z"/>
		<path class="st75" d="M39.1,34.7c0.4,0,0.7,0.3,1.1,0.2c1,0.1,2,0,2.5,1.1c0.7,1,0.4,2,0,2.9c-0.4,0.3-0.8,0.6-1.2,0.9
			c-0.4,0.2-0.8,0.3-1,0.6c-0.2,0.1-0.2,0.2-0.2,0.4c-0.4-0.1-0.8-0.3-1.3-0.2c-0.3-0.2,0-0.4,0-0.6c-0.3-0.2-0.3-0.6-0.3-0.9
			c0.1-0.4,0.2-0.8,0.4-1.2C39.1,36.8,38.4,35.7,39.1,34.7z"/>
		<path class="st118" d="M38.5,37c0.1,0.3,0.1,0.6,0.2,0.8c0,0,0,0.1,0,0.1c0,0.3,0,0.7-0.2,1c-0.1,0-0.2,0-0.3-0.1
			c-0.1-0.2-0.3-0.4-0.4-0.6c0,0-0.1-0.1-0.1-0.1c0,0,0-0.1,0-0.1c0.1,0,0.2,0,0.2,0c0.2-0.3,0-0.7,0.1-1C38.3,37,38.4,37,38.5,37z"
			/>
		<path class="st119" d="M38.2,38.9c0.1,0,0.2,0,0.2,0c0,0,0.1-0.1,0.1-0.1c0,0,0.1,0.1,0.1,0.1c0.1,0.3,0.1,0.7,0.2,1
			C38.3,39.8,38.4,39.3,38.2,38.9z"/>
		<path class="st120" d="M37.8,38.1c0,0.1,0,0.1,0,0.2c-0.1-0.1-0.1-0.1-0.2-0.2C37.7,38.1,37.8,38.1,37.8,38.1z"/>
		<path class="st121" d="M42.7,36c-0.7-0.7-1.7-0.7-2.5-1.1c0.1-0.1,0.2-0.1,0.2-0.2c0.1,0,0.2,0,0.4,0c0.6-0.3,1.1,0.3,1.7,0.2
			c0.1,0.3,0.3,0.4,0.6,0.4C42.9,35.6,42.8,35.8,42.7,36z"/>
		<path class="st122" d="M36,23.6c0.1,0,0.1,0.1,0.2,0.1c-0.2,0.5,0.2,0.5,0.5,0.6c0.6,0.3,0.7,0.6,0.3,1.1
			c-0.2,0.4-0.4,0.7-0.6,1.1c-0.5,0.8-1.1,1.1-1.8,0.4c-0.3-0.3-0.3,0.1-0.5,0.1c0.1-0.4,0.1-0.9,0.2-1.3c0-0.2,0-0.3,0-0.5
			c0.2-0.2,0.2-0.4,0.2-0.7c0.2-0.4-0.2-0.9,0.5-1.1C35.3,23.4,35.6,23.5,36,23.6z"/>
		<path class="st123" d="M41.4,28.4c-0.3-0.8-0.3-1.5,0-2.3C41.4,26.9,41.4,27.7,41.4,28.4z"/>
		<path class="st124" d="M22.8,42.9c0.2-0.3,0.6-0.2,0.9-0.2c0,0.1,0,0.1-0.1,0.2C23.3,43,23.1,43.2,22.8,42.9z"/>
		<path class="st125" d="M35.8,42c0.2-0.6,0.5-0.5,0.8-0.2c-0.1,0.1-0.1,0.1-0.2,0.2C36.2,42,36,42,35.8,42z"/>
		<path class="st126" d="M41,29.7c0.3-0.1,0.5-0.4,0.8-0.4c0,0.1,0,0.1,0.1,0.2c-0.2,0.2,0.4,0.7-0.3,0.8C41.4,30,41.1,30,41,29.7z"
			/>
		<path class="st127" d="M40.4,24.6c0.2-0.5,0.6-0.5,1-0.6c0,0.1,0,0.1,0,0.2c-0.2,0.1-0.4,0.2-0.6,0.2
			C40.6,24.6,40.6,24.8,40.4,24.6z"/>
		<path class="st128" d="M21.1,40.2c0.2-0.2,0.3-0.6,0.6-0.2C21.8,40,22,40,22,40.2C21.7,40.4,21.4,40.5,21.1,40.2z"/>
		<path class="st129" d="M22,40.2c-0.1-0.1-0.1-0.2-0.2-0.3c0.3,0.1,0.5,0,0.8-0.2C22.6,40.2,22.3,40.1,22,40.2z"/>
		<path class="st130" d="M37.4,35.9c0.3,0.5,0.3,0.8,0,1.2C37.4,36.6,37.4,36.3,37.4,35.9z"/>
		<path class="st131" d="M38.2,35.3c0.3,0.3,0.2,0.7,0.2,1.1c0.1,0.2,0,0.3-0.2,0.3c-0.1,0-0.1-0.1-0.1-0.1c0-0.1,0-0.1,0-0.1
			C38.4,36,37.9,35.7,38.2,35.3z"/>
		<path class="st132" d="M38.2,36.4c0,0.1,0,0.1,0.1,0.2c0.1,0.1,0.1,0.3,0,0.4c-0.1,0.3,0.1,0.8-0.2,1
			C38.1,37.5,37.9,36.9,38.2,36.4z"/>
		<path class="st133" d="M37.8,34c0.1,0.1,0.2,0.2,0.3,0.3c0.1,0.3,0.1,0.5,0.2,0.8C37.8,34.9,37.7,34.5,37.8,34z"/>
		<path class="st134" d="M33.3,35.5c-0.1-0.2-0.2-0.2-0.4-0.2c0.1-0.2,0.4-0.2,0.6-0.2c0.1,0.1,0.3,0.2,0.6,0.4
			C33.7,35.5,33.5,35.5,33.3,35.5z"/>
		<path class="st135" d="M36,32c0.1-0.1,0.1-0.1,0.2-0.2c0,0,0,0,0,0c0,0,0.1,0.1,0.1,0.1c0,0-0.1,0.1-0.1,0.1C36.1,32,36,32,36,32z
			"/>
		<path class="st135" d="M36.4,32c-0.1,0.1-0.1,0.2-0.2,0c0,0,0,0,0,0C36.2,31.9,36.3,31.9,36.4,32L36.4,32z"/>
		<path class="st136" d="M40.4,24.6c0.1-0.1,0.3-0.1,0.4-0.2c0.2,0.9,0.2,1.8,0.2,2.7c-0.1-0.9-0.7-1.4-1.2-2.1
			c0-0.3,0.3-0.3,0.5-0.4C40.2,24.7,40.3,24.6,40.4,24.6z"/>
		<path class="st137" d="M37,27.6c0.1-0.1,0.1-0.1,0.2-0.2c0.5-0.1,1,0.1,1.3,0.6C37.9,28.1,37.4,28,37,27.6L37,27.6z"/>
		<path class="st138" d="M37,27.6c0.5,0.1,1,0.3,1.5,0.4c-0.1,0.1-0.2,0.2-0.3,0.2c-0.2,0-0.4,0-0.5-0.1C37.5,27.9,37,28.1,37,27.6z
			"/>
		<path class="st139" d="M39.1,24.6c0.1,0,0.3-0.2,0.4,0c0.1,0.1,0.1,0.3,0,0.4c-0.1,0.3-0.4,0.3-0.6,0.2C39,25.1,39,24.9,39.1,24.6
			z"/>
		<path class="st140" d="M39.5,25.1c0-0.1,0-0.3,0-0.4c0.1,0,0.3,0,0.4,0c0.1,0,0.2,0,0.3,0.1c-0.2,0.1-0.3,0.3-0.5,0.4
			C39.7,25.1,39.6,25.1,39.5,25.1z"/>
		<path class="st141" d="M37.4,26.7c0.1-0.2,0.2-0.2,0.4-0.2c-0.1,0.1-0.1,0.1-0.2,0.2C37.6,26.8,37.5,26.8,37.4,26.7z"/>
		<path class="st142" d="M37.4,26.7c0.1,0,0.2,0,0.2,0c-0.1,0.1-0.1,0.1-0.2,0.2C37.4,26.9,37.4,26.8,37.4,26.7
			C37.4,26.8,37.4,26.7,37.4,26.7L37.4,26.7z"/>
		<path class="st143" d="M37.4,26.7c0,0.1,0,0.1,0,0.2c-0.1,0-0.1,0-0.2,0C37.3,26.9,37.4,26.8,37.4,26.7z"/>
		<path class="st144" d="M38.9,37.9c0.1,0.4,0.1,0.7-0.2,1.1c0,0-0.1,0-0.1,0c0-0.4-0.1-0.7,0.1-1.1c0,0,0,0,0,0
			C38.8,37.9,38.8,37.9,38.9,37.9z"/>
		<path class="st145" d="M38.3,37c0-0.1,0-0.3,0-0.4c0.1-0.1,0.1-0.1,0.2-0.2c0.2,0.2,0.3,0.4,0,0.7C38.4,37,38.4,37,38.3,37z"/>
		<path class="st146" d="M36.4,32c-0.1,0-0.1,0-0.2,0c0-0.1,0-0.1,0-0.2c0.1,0,0.1,0,0.2,0C36.4,31.8,36.4,31.9,36.4,32z"/>
		<path class="st147" d="M38.7,37.8c0,0.4-0.1,0.7-0.1,1.1c0,0-0.1,0-0.1,0C38.5,38.5,38.3,38.1,38.7,37.8z"/>
		<path class="st148" d="M18.9,39.6c0.1,0.1,0.1,0.2,0.2,0.2c-0.1,0.3-0.3,0.3-0.5,0.2c-0.3-0.2-0.6,0.2-0.8-0.2
			C18.2,39.8,18.5,39.7,18.9,39.6z"/>
	</g>
	<g>
		<path class="st149" d="M33.3,36.7c0.5,0.1,1,0.3,1.5,0.4c0-0.1,0-0.2,0.1-0.3c-1.8-1-3.9-1.2-6-1.5c-3.3,2.7-7.5,3.8-11.5,4.8
			c-0.2,1.7,0.3,2.4,2.1,2.7c1.1,0.2,2.3,0.3,3.5,0.4c0.4,0,0.8-0.1,1.2-0.1"/>
		<path class="st149" d="M32.9,40.6c-0.7,0.3-1.3,0.6-2,0.8C30.3,41.6,30,42,30,42.5c-0.1,0.7,0.4,1.1,0.9,1.2
			c0.8,0.1,1.8,0.3,2.5,0c0.9-0.4,1.8-0.6,2.6-1c1-0.4,1.9-1.1,2.8-1.6"/>
		<path class="st149" d="M42,30.7c-0.1-1.2-0.3-2.4-0.3-3.7c0-1.6,0.2-3.2,0.3-4.8c-1.8-1.2-3.9-1.3-5.9-1.2"/>
		<path class="st149" d="M36,28.1c2.1,0.3,3.9,1.2,5.6,2.4c0.3,0.2,0.5,0.8,0.6,1.2c0.4,1.5,0.8,3,1.3,4.4c0.6,1.7-0.5,3.8-2.5,4.5
			c-0.4,0.1-0.8,0.1-1.3,0.2"/>
		<path class="st149" d="M27,39.4c-0.7,0.5-1.4,1-2.4,1.1c-0.6,0.1-1.4,0.3-1.4,1.1c0,0.8,0.4,1.5,1.2,1.8c0.7,0.2,1.4,0.6,2.2,0.2
			c0.3-0.1,0.8,0.1,1.2,0.1c0.8,0,1.6,0,2.4,0"/>
		<path class="st149" d="M23.9,39.2c-0.6,0.3-1.2,0.9-1.9,1c-1.9,0.5-2.2,1-1.3,2.7"/>
		<path class="st149" d="M33.5,29.5c2.4,1.4,4,3.4,4.7,6.1c0.3,1,0.2,2.2,0.2,3.2"/>
		<path class="st149" d="M30,40c-0.7,0.3-1.4,0.7-2.1,0.9c-1.4,0.4-1.6,0.9-0.8,2.1c0.1,0.1,0.1,0.2,0.1,0.3"/>
		<path class="st149" d="M38,34.3c1.8-0.2,3.4,0.6,5,1.2"/>
		<path class="st149" d="M34.6,23.2c1.7,0.5,3.4,1,5,1.6"/>
		<path class="st149" d="M41.7,24c-2.1,0.9-3.8,2.2-5,4.1"/>
		<path class="st149" d="M32.1,31.6c-0.9,1.2-1.9,2.3-2.8,3.5"/>
		<path class="st149" d="M35,36.8c1.4,0.8,3,1.4,3.6,3.1c0.1,0.3,0.2,0.7,0.4,1.1c0.1,0,0.3,0.1,0.5,0.1"/>
		<path class="st149" d="M34.4,22.6c0,0.6,0,1.1,0,1.7"/>
		<path class="st149" d="M35.6,27.9c-0.3,0-0.6,0-0.8,0"/>
		<path class="st149" d="M39.8,24.4c-0.2,0-0.5,0.1-0.7,0.1"/>
		<path class="st149" d="M33.1,29.3c-0.1,0.2-0.1,0.4-0.2,0.6"/>
		<path class="st149" d="M35.7,42.6c-0.2-0.1-0.4-0.1-0.6-0.2c-0.1,0.1-0.2,0.3-0.3,0.4"/>
		<path class="st149" d="M32.5,30.8c-0.1,0.1-0.1,0.3-0.2,0.4"/>
		<path class="st149" d="M36.4,42.4c-0.1,0-0.2-0.1-0.3-0.1"/>
	</g>
</g>
<g>
	<g>
		<path class="st150" d="M-5.1,14.2c0,0.3,0.1,0.5,0.3,0.7c0,0.3,0.2,0.5,0.3,0.7c0,0,0,0.1,0,0.1c-0.2,0.5,0.1,1-0.1,1.5
			c-0.1,0.2-0.2,0.3-0.4,0.4c-1,0.1-2-0.3-2.9-0.6c-0.5-0.4-1.1-0.7-1.6-1.1c-0.1,0-0.1-0.1-0.2-0.1c-0.3-0.3-0.5-0.7-0.7-1.1
			c-0.1-0.2-0.3-0.4-0.4-0.6c-0.2-0.2-0.3-0.5-0.4-0.8c-0.5-1-1.1-1.7-2.2-2.2c-1.2-0.5-2.2-1.2-3.1-2.1c-0.3-0.4-0.5-0.7,0-1.1
			c0.4-0.2,0.8,0,1.2-0.2c0.2-0.1,0.4,0,0.6,0.1c0.2,0.1,0.4,0.3,0.7,0.4c0.2,0.1,0.3,0.2,0.5,0.3c0.3,0.2,0.6,0.4,0.8,0.6
			c0.2,0.1,0.4,0.2,0.4,0.5c0,0.1,0,0.2,0.1,0.2c0.1,0.1,0.1,0,0.1-0.1c0.1,0,0.2,0,0.3,0.1c0.1,0.1,0.2,0.2,0.3,0.4
			c0.1,0.5,0.6,0.6,1,0.8c0.5,0.2,0.9,0.2,1.4,0.1c0.4-0.1,0.8-0.1,1.2-0.1c0.9-0.1,1.6,0.2,1.9,1.1c0.2,0.2,0.1,0.6,0.5,0.7
			c0.2,0.2,0.2,0.5,0.2,0.7c0.1,0,0.1,0,0.2,0C-5.4,13.7-5.2,14-5.1,14.2z"/>
		<path class="st151" d="M-4.9,17.5c0.1-0.1,0.2-0.2,0.3-0.3c0.4,0.2,0.3,0.5,0.3,0.8c-0.3,0.3-0.7,0.6-0.4,1.2
			c-0.1,0.5-0.6,0.7-1,1c-0.2,0.2-0.4,0.3-0.7,0.3c-1,0.1-1.7-0.4-2.4-0.9c-0.2-0.2-0.5-0.4-0.7-0.6c-0.2-0.2-0.3-0.3-0.5-0.5
			c-0.3-0.4-0.7-0.7-1-1.1c-0.1-0.3-0.3-0.5-0.3-0.8c0-0.2,0.2-0.3,0.2-0.5c0-0.1-0.1,0,0,0c0.1,0,0,0,0,0.1
			c-0.1,0.2-0.2,0.2-0.3,0.1c-0.3-0.3-0.4-0.7-0.3-1.2c0.3-0.5,0.6-0.7,1.2-0.5c0,0,0.1,0.1,0.1,0.1c0,0.7,0.4,1,1,1.1l0,0
			c0.4,0.4,0.9,0.7,1.4,1c0,0.1,0.1,0.2,0.1,0.2C-7,17.2-6,17.7-4.9,17.5z"/>
		<path class="st152" d="M-14.4,14.1c-0.5-0.3-1.2-0.3-1.7-0.6c-0.1-0.1-0.2-0.1-0.3-0.2c-0.1-0.1-0.2-0.3-0.3-0.4
			c-0.1-0.2-0.2-0.3-0.3-0.5c-0.1-0.2-0.1-0.4-0.1-0.6c0.4-0.6,1-0.8,1.6-0.4c0.3,0.2,0.6,0.4,1,0.6c0.2,0.1,0.4,0.3,0.7,0.4
			c0.2,0.1,0.3,0.3,0.4,0.4c0.1,0.2,0.2,0.4,0.3,0.6c0,0.1,0,0.1,0,0.2c-0.1,0.3,0,0.6-0.2,0.8c-0.1,0.1-0.2,0.1-0.3,0.1
			C-13.9,14.5-14.2,14.3-14.4,14.1z"/>
		<path class="st153" d="M-13.7,14.4c0.1,0,0.2,0,0.3-0.1c0,0,0.1,0,0.1-0.1c0.1,0,0.2-0.1,0.3-0.2c0.1-0.1,0.2-0.3,0.4-0.2
			c0,0,0.1,0.1,0.1,0.1c0,0.2,0.1,0.3,0,0.5c0,0.2-0.1,0.5,0.1,0.7c0,0.1,0.1,0.1,0.1,0.2c0.1,0.2,0.1,0.4,0.2,0.5
			c0.1,0.3,0.3,0.5,0.3,0.9c-0.2,0.5-0.6,0.4-0.9,0.3c-0.5-0.2-0.6-0.7-0.9-1.1c0.1-0.3-0.4-0.5-0.3-0.8c-0.1-0.2-0.1-0.3-0.1-0.5
			C-14,14.4-13.8,14.5-13.7,14.4z"/>
		<path class="st154" d="M-19.2,11.7c0-0.1-0.1-0.2-0.1-0.2c0-0.1,0-0.1,0.1-0.2c0.1-0.2,0-0.5,0-0.7c0.1-0.5,0.5-0.6,1-0.6
			c0.5,0,0.9,0.5,1.3,0.6c0.1,0.1,0.1,0.2,0.1,0.3c-0.1,0.3-0.4,0.4-0.6,0.6c-0.2,0.2-0.4,0.7-0.8,0.4c-0.1,0.1-0.3,0.1-0.5,0.2
			c-0.1,0-0.1,0-0.2,0C-19,11.9-19.1,11.8-19.2,11.7z"/>
		<path class="st155" d="M-1.7,8.6C-1,9-1,9.5-1.4,10c0,0-0.1,0-0.1,0c-0.3,0.3-0.7,0.1-1.1,0.2c-0.1,0-0.1,0-0.2,0
			c-0.4-0.2-0.9,0-1.2-0.4c0-0.1,0-0.1,0-0.2C-4,9.5-4,9.5-3.9,9.4c0.3-0.2,0.7-0.1,1-0.2c0.3-0.1,0.9,0.1,1-0.5
			C-1.9,8.7-1.8,8.6-1.7,8.6z"/>
		<path class="st156" d="M-18.2,11.9c0.4,0,0.5-0.4,0.8-0.6c0.2,0.1,0.3,0.4,0.5,0.6c0,0.2,0.1,0.4,0.2,0.6c0.1,0.2,0.3,0.2,0.3,0.4
			c-0.1,0.1-0.2,0.3-0.3,0.5c0,0-0.1,0.1-0.1,0.1C-17.4,13-18,12.6-18.2,11.9z"/>
		<path class="st157" d="M-9,19.5c0.1,0,0.4,0,0.4,0c0.5,0.7,1.4,0.7,2.1,0.9c0.1,0,0.1,0.1,0.1,0.1c0,0,0,0.1,0,0.1l-0.1,0l-0.1,0
			c-0.4,0.1-0.8,0.5-1.2,0c-0.1,0-0.2,0-0.3,0c-0.2-0.1-0.3-0.3-0.4-0.4c-0.4,0-0.6-0.3-0.9-0.5C-9.3,19.5-9.2,19.4-9,19.5z"/>
		<path class="st158" d="M-4.4,18.1c-0.1-0.3-0.2-0.6-0.3-0.8c0.1-0.5-0.5-1,0.1-1.5c0.3,0.3,0.4,0.7,0.6,1c0,0.2-0.2,0.4,0,0.7
			c0,0.1,0,0.1,0,0.2C-4.1,17.8-4,18-4.4,18.1C-4.3,18.1-4.3,18.1-4.4,18.1z"/>
		<path class="st159" d="M-12.6,17.5c-0.1-0.2-0.2-0.4-0.3-0.5c0.3-0.1,0.7,0.3,0.9-0.2c0.4,0,0.4,0.3,0.5,0.5
			c-0.1,0.2-0.4,0.3-0.6,0.5c-0.1,0-0.1,0-0.2,0C-12.4,17.7-12.5,17.6-12.6,17.5z"/>
		<path class="st160" d="M-12.1,17.8c0-0.4,0.2-0.5,0.6-0.4c0.1,0,0.2,0.1,0.2,0.2c0,0,0,0.1,0.1,0.2c0,0.1,0.1,0.2,0.2,0.3
			c0,0.1,0,0.1,0,0.2c0,0.1-0.1,0.1-0.2,0.2c-0.2,0.1-0.3-0.1-0.4-0.1C-11.9,18.1-12.1,18.1-12.1,17.8z"/>
		<path class="st158" d="M-4.8,19.2c-0.5-0.4-0.3-0.9,0.4-1.2c0,0,0,0,0,0c0.2,0.3,0,0.5-0.2,0.7C-4.6,18.9-4.7,19.1-4.8,19.2z"/>
		<path class="st161" d="M-9,19.5c-0.1,0.1-0.2,0.1-0.3,0.2c-0.3-0.2-0.6-0.4-0.8-0.6c0.1-0.5,0.4-0.2,0.6-0.2
			C-9.4,19.1-9.1,19.2-9,19.5z"/>
		<path class="st162" d="M-5.1,10.2c-0.2,0-0.4,0-0.5,0c-0.1-0.1-0.3,0-0.3-0.2c0-0.1,0.1-0.1,0.2-0.2c0.6,0,1.3-0.3,1.9,0.2
			c-0.1,0.3-0.4,0.2-0.6,0.3C-4.7,10.3-4.9,10.3-5.1,10.2z"/>
		<path class="st163" d="M-4.5,18.8c0.1-0.2,0.1-0.5,0.2-0.7c0.2-0.1,0-0.5,0.4-0.5C-4,18.1-4,18.6-4.5,18.8z"/>
		<path class="st164" d="M-7.8,20.6c0.4,0.3,0.8-0.1,1.2,0C-7.1,21.1-7.5,21.1-7.8,20.6z"/>
		<path class="st165" d="M-2.8,10.2c0.1,0,0.1,0,0.2,0c0.4-0.1,0.7-0.1,1.1,0c-0.6,0.3-1.3,0-1.9,0.1c0-0.1,0-0.1,0-0.2
			C-3.2,10-3,10-2.8,10.2z"/>
		<path class="st166" d="M-5.8,12.7c-0.5,0-0.4-0.3-0.4-0.6c0-0.1,0-0.3,0.2-0.3c0.3,0.1,0.2,0.5,0.4,0.6c0,0,0,0.1,0,0.1
			C-5.6,12.6-5.7,12.7-5.8,12.7z"/>
		<path class="st167" d="M-9.6,18.9c-0.2,0.2-0.5-0.1-0.6,0.2c0,0-0.1-0.1-0.1-0.1c0-0.1-0.1-0.1-0.1-0.2c0.1-0.2,0.1-0.4,0.4-0.3
			C-9.8,18.6-9.7,18.7-9.6,18.9z"/>
		<path class="st168" d="M-5.9,11.4C-5.9,11.4-5.8,11.5-5.9,11.4c0.2,0.4,0.2,0.7,0.3,1C-6,12.4-5.8,12-6,11.8c0,0-0.1-0.1,0-0.2
			C-6.1,11.6-6,11.5-5.9,11.4z"/>
		<path class="st169" d="M-16.9,13.4c0,0,0-0.1,0-0.1c0.2-0.2,0.5-0.2,0.7,0c0,0.1,0.1,0.2,0.1,0.3C-16.4,13.5-16.7,13.7-16.9,13.4z
			"/>
		<path class="st170" d="M-5.8,12.7c0.1-0.1,0.1-0.1,0.2-0.2c0.1,0.3,0.4,0.5,0.1,0.9C-5.6,13.2-5.7,12.9-5.8,12.7z"/>
		<path class="st171" d="M-6,10.5c0,0,0,0.1,0,0.1c-0.5,0.1-0.3-0.2-0.3-0.5C-6.2,10-6.1,9.9-5.9,10c0.1,0,0.2,0,0.3,0.1
			C-5.8,10.2-6.1,10-6,10.5z"/>
		<path class="st172" d="M-13.7,14.4c0,0.1-0.1,0.1-0.2,0.2c-0.2,0.1-0.2-0.1-0.4-0.1c0-0.1-0.1-0.2-0.1-0.3
			C-14.1,14.1-13.9,14.3-13.7,14.4z"/>
		<path class="st173" d="M-6.5,20.6c0,0,0-0.1,0-0.1c0.2-0.1,0.5-0.2,0.7-0.3C-5.9,20.6-6.2,20.6-6.5,20.6z"/>
		<path class="st174" d="M-5.1,14.2c-0.4-0.1-0.5-0.4-0.3-0.7C-5.2,13.7-5.1,13.9-5.1,14.2z"/>
		<path class="st175" d="M-4.5,15.6c-0.3-0.2-0.5-0.3-0.3-0.7C-4.6,15.1-4.5,15.4-4.5,15.6z"/>
		<path class="st176" d="M-1.6,10.2c-0.4,0-0.7,0-1.1,0c0.4-0.2,0.8-0.1,1.1-0.1C-1.5,10.1-1.5,10.1-1.6,10.2z"/>
		<path class="st177" d="M-10.8,18.5C-10.9,18.4-10.9,18.4-10.8,18.5c0-0.1,0-0.2,0.1-0.2c0.1-0.1,0.3-0.2,0.5-0.1
			c0.2,0.2,0.1,0.3-0.1,0.5C-10.6,18.7-10.7,18.6-10.8,18.5z"/>
		<path class="st178" d="M-10.8,18.5c0.2,0,0.3,0.1,0.4,0.2c0.1,0,0.1,0.1,0.1,0.1c0,0.1,0,0.1,0,0.2
			C-10.5,18.8-10.8,18.8-10.8,18.5z"/>
		<path class="st179" d="M-14.3,14.4c0.1,0,0.2,0.1,0.4,0.1c0,0.2,0,0.4,0,0.6C-14.2,15-14.2,14.7-14.3,14.4z"/>
		<path class="st180" d="M-3.9,17.4c-0.3-0.2-0.2-0.4,0-0.7C-3.8,17-3.9,17.2-3.9,17.4z"/>
		<path class="st181" d="M-8.5,20.2c0.2,0.1,0.4,0.1,0.4,0.4C-8.3,20.6-8.5,20.5-8.5,20.2z"/>
		<path class="st182" d="M-11.3,18.3c0.1,0,0.1-0.1,0.2-0.1c0,0,0.1,0,0.1,0c0,0,0,0.1,0,0.1C-11.1,18.4-11.2,18.3-11.3,18.3z"/>
		<path class="st183" d="M-11,18.4c0,0,0-0.1,0-0.1c0,0,0,0,0.1,0c0.1,0,0.1,0,0.1,0.1c0,0.1,0,0.1-0.1,0.1c0,0,0,0,0,0
			C-10.9,18.4-10.9,18.4-11,18.4z"/>
		<path class="st154" d="M-11,5.1c0.2,0,0.4,0.1,0.6,0.1c0.1,0.2,0.3,0.2,0.5,0.3c0.1,0,0.1,0,0.2,0.1c0.3,0.1,0.6,0.3,0.9,0.5
			c0.4,0.3,0.4,0.5-0.1,0.7c-0.4,0-0.7-0.2-1-0.3c-1.2-0.6-2.5-1-3.8-1.5c-0.6-0.2-1.2-0.1-1.7,0.2c-0.9,0.6-1.8,1-2.8,1.4
			c-0.3,0.1-0.6,0.2-0.9,0.1c-0.1,0-0.3-0.1-0.3-0.3c0-0.1,0-0.1,0.1-0.2c0.3,0,0.5-0.3,0.9-0.2c1.1-0.5,1.9-1.4,2.9-2.1
			c0.3,0,0.7-0.1,1,0c0.3,0.1,0.7,0.2,1,0.3c0.2,0.1,0.4,0.1,0.6,0.2c0.2,0.2,0.5,0.2,0.7,0.3c0.1,0.1,0.2,0.1,0.4,0.2
			C-11.6,4.9-11.3,5-11,5.1z"/>
		<path class="st184" d="M-20,7.6c-0.2-0.3-0.2-0.6,0-1c0.1-0.1,0.2-0.2,0.3-0.2c0.1,0.1,0.2,0.2,0.3,0.3c0.8,0.4,1.5,0.1,2.3,0.1
			c0.7,0,1.4-0.4,2.2-0.4c0.1,0.1,0.1,0.2,0.2,0.3c0,0.1,0,0.1,0,0.2c-0.1,0.3-0.3,0.3-0.6,0.4c-0.1,0-0.3,0-0.4,0
			c-0.2,0-0.5,0-0.7,0.2c-0.1,0-0.2,0.1-0.3,0.1c-0.2,0-0.4,0.2-0.5,0.2c-0.1,0-0.2,0.1-0.3,0.1c-0.7,0.1-1.4,0.2-2.1,0
			C-19.8,7.8-19.9,7.7-20,7.6z"/>
		<path class="st185" d="M-8.8,6.7c0.2-0.1,0.3-0.3,0-0.4c-0.3-0.2-0.8-0.2-1-0.5c0.1-0.1,0.2-0.1,0.4-0.1C-9.2,5.8-9,6-8.7,5.9
			c0.3,0,0.5,0.2,0.7,0.4c0.1,0,0.1,0,0.2,0c0.2,0.1,0.3,0.2,0.4,0.4c0.3,0.4,0.7,0.7,0.8,1.2c0.2,0.4-0.2,0.4-0.5,0.4
			c-0.2,0-0.4-0.1-0.5-0.1C-7.9,8.1-8.1,8-8.3,8c-0.5-0.1-1-0.1-1.4-0.1c-0.1,0-0.1-0.1-0.1-0.1c0.1-0.2,0.4-0.3,0.6-0.3
			c0.4,0,0.7,0,1.1,0C-8.3,7.1-8.8,7.1-8.8,6.7z"/>
		<path class="st186" d="M-25.4,8.8c-1.4,0-2.8,0-4.2,0c-0.2,0-0.4,0.1-0.4-0.2c0-0.2,0.2-0.2,0.4-0.2c1,0,2,0,3.1,0
			c0.7,0.1,1.4,0,2.1,0.1c0.1,0,0.1,0.1,0.1,0.2c-0.1,0.2-0.3,0.2-0.5,0.3C-25,8.8-25.2,8.9-25.4,8.8z"/>
		<path class="st187" d="M-25.4,8.8c0.2,0,0.4,0,0.6,0c0.9-0.1,1.8,0,2.7-0.1c0.1,0,0-0.1,0-0.1c0,0,0,0.1,0,0.1
			c-0.8,0.1-1.6,0.1-2.3,0c0,0,0-0.1,0-0.1c0.9-0.2,1.9,0,2.8-0.1c0.1,0,0.2,0.1,0.2,0.2c0,0.1,0,0.3-0.1,0.4
			C-22.7,8.9-24,8.9-25.4,8.8C-25.4,8.8-25.4,8.8-25.4,8.8z"/>
		<path class="st188" d="M-21.4,8.5c0.1-0.1,0.1-0.3,0.2-0.4c0.1,0,0.1-0.1,0.2-0.1c0.1,0,0.2,0,0.3,0.1c0,0.1,0.1,0.1,0.1,0.2
			c0.1,0.3,0,0.7-0.1,1c0,0.1,0,0.1,0,0.2c0,0-0.1,0.1-0.2,0.1c-0.2-0.1-0.4-0.2-0.3-0.4c0,0,0.1-0.1,0-0.1c0,0,0-0.1,0-0.1
			c0,0,0-0.1-0.1-0.1c0,0-0.1-0.1-0.1-0.1C-21.4,8.6-21.4,8.5-21.4,8.5z"/>
		<path class="st189" d="M-3.9,8.3c0.1,0,0.1,0,0.2,0c0.3,0.2,0.7,0,1,0.2c0,0.1,0,0.2-0.1,0.2C-3.5,8.9-4.3,9-5.1,8.6
			c0-0.3,0.3-0.2,0.5-0.3C-4.4,8.3-4.1,8.2-3.9,8.3z"/>
		<path class="st190" d="M-6.6,8.3c0,0,0.1-0.1,0.1-0.1C-6.3,8.1-6.1,8.2-6,8.1c0.1,0.1,0.3,0.1,0.4,0.2c0,0.1,0,0.1-0.1,0.2
			C-6,8.7-6.4,8.7-6.8,8.7C-7,8.6-7,8.5-6.9,8.3C-6.8,8.3-6.7,8.3-6.6,8.3z"/>
		<path class="st191" d="M-20.9,8.1C-20.9,8-21,8-21.1,7.9c0.3-0.4,0.8,0.1,1.1-0.3c0.1,0,0.2,0,0.3,0c0,0.2-0.1,0.3-0.2,0.3
			c-0.2,0.1-0.3,0.1-0.5,0.1C-20.5,8.2-20.7,8.2-20.9,8.1z"/>
		<path class="st192" d="M-5.6,8.4c-0.1,0-0.2,0-0.3-0.1c0-0.1,0.1-0.1,0.1,0c0.6,0.1,1.3-0.1,1.9,0.2c-0.3,0-0.5,0-0.8,0
			C-5,8.4-5.3,8.6-5.6,8.4z"/>
		<path class="st193" d="M-2.7,8.6c0-0.1,0-0.1,0-0.2c0,0-0.1,0,0-0.1c0,0,0,0,0,0c0.3,0,0.7,0.1,1,0.1c0,0,0,0.1,0,0.1
			c0,0-0.1,0.1-0.1,0.1C-2.1,8.9-2.4,8.9-2.7,8.6z"/>
		<path class="st194" d="M-6.6,8.3c-0.1,0-0.2,0-0.3,0c-0.2,0.1-0.4,0.2-0.6-0.1c0,0,0-0.1,0-0.1c0.2-0.1,0.5,0.1,0.6-0.3
			C-6.7,8-6.6,8.2-6.6,8.3z"/>
		<path class="st195" d="M-2.7,8.4C-2.7,8.4-2.7,8.4-2.7,8.4c-0.3,0.1-0.7,0.2-1,0C-3.3,8.4-3,8.4-2.7,8.4z"/>
		<path class="st185" d="M-10.3,5.3c0,0.3,0.3,0.2,0.4,0.4c-0.3,0-0.6,0-0.6-0.4C-10.4,5.3-10.3,5.3-10.3,5.3z"/>
		<path class="st196" d="M-17.4,7.6c0.1,0,0.2,0,0.2,0c0.2-0.1,0.3-0.1,0.5,0c0.1,0.1,0.1,0.2,0.1,0.3c-0.3,0.4-0.1,0.7,0.2,1
			c0.9,0.9,2,1.6,3.2,2.1c1.1,0.5,1.6,1.3,2.1,2.2c0.2,0.3,0.3,0.6,0.4,0.9c0.1,0.2,0.3,0.3,0.2,0.5c0,0,0,0-0.1,0.1
			c-0.5-0.1-0.9,0-1.1,0.4c-0.5-0.2-0.4-0.8-0.6-1.1c-0.2-0.8-0.8-1.2-1.4-1.7c-0.3-0.2-0.6-0.3-0.8-0.5c-0.7-0.7-1.7-1-2.4-1.6
			C-17.6,9.7-18,9-17.7,8.1C-17.7,7.9-17.6,7.8-17.4,7.6z"/>
		<path class="st197" d="M-6.2,10.2c0,0.1-0.4,0.4,0.1,0.4c0,0.1,0,0.2,0,0.2c0,0.3,0,0.6,0,0.9c0,0,0,0.1,0,0.1
			c0,0.1,0,0.2-0.2,0.3c0,0-0.1,0-0.1-0.1c-0.5-1.5-1.8-1-2.9-1c-0.6,0-1.2,0.2-1.7-0.2c-0.1-0.2,0.1-0.3,0.3-0.5
			c0.4-0.2,0.9,0.1,1.3-0.3C-9.2,10-9.1,10-8.9,9.9c0.2-0.1,0.4-0.1,0.6-0.1c0.4,0,0.8,0,1.1,0C-7,10-6.7,10-6.4,10
			C-6.3,10.1-6.2,10.1-6.2,10.2z"/>
		<path class="st158" d="M-4.9,17.5c0.1,0.1,0.1,0.2,0,0.2c-1.1,0-2.1-0.4-3.1-0.6c-0.2,0-0.2-0.2-0.1-0.4c0.1-0.1,0.2-0.1,0.3,0
			C-6.9,17.1-5.9,17.4-4.9,17.5z"/>
		<path class="st198" d="M-15.5,7.2c0.2-0.1,0.4-0.2,0.5-0.3c0.2-0.1,0.4,0.1,0.6,0.1c0.2,0.1,0.4,0.2,0.4,0.5
			c-0.1,0.3-0.5,0.3-0.7,0.3c-0.1,0-0.1,0-0.2-0.1c-0.2,0-0.4,0-0.6-0.1c-0.1,0-0.2-0.1-0.2-0.2C-15.6,7.4-15.6,7.3-15.5,7.2z"/>
		<path class="st196" d="M-9.6,15.8c-1.1,0-1.2-0.1-1-1.1l0,0c0.1-0.1,0.2-0.1,0.3,0C-10,15.1-9.8,15.4-9.6,15.8z"/>
		<path class="st199" d="M-12,9.8c-0.1,0-0.1-0.1-0.2-0.1c-0.2,0.1-0.2-0.1-0.3-0.2c0-0.3-0.3-0.2-0.4-0.4C-13,8.9-13,8.8-12.9,8.6
			c0.4-0.1,0.6,0.3,0.8,0.4c0.2,0.2,0.4,0.3,0.7,0.4c0.2,0.1,0.6,0,0.4,0.4C-11.3,10-11.7,9.9-12,9.8z"/>
		<path class="st200" d="M-10.6,10.5c0,0.2-0.2,0.3-0.3,0.4c-0.3-0.2-1-0.1-0.8-0.8c0-0.1,0.1-0.1,0.2-0.1c0.2,0,0.3,0.1,0.5,0.2
			c0.1,0,0.2,0.1,0.2,0.1C-10.6,10.3-10.6,10.4-10.6,10.5z"/>
		<path class="st201" d="M-12.8,8.6c-0.1,0.2-0.1,0.3-0.2,0.5c-0.3-0.2-0.5-0.4-0.8-0.6c-0.2-0.2,0-0.3,0.2-0.4
			c0.2-0.1,0.5-0.1,0.8,0c0.1,0,0.1,0.1,0.2,0.1C-12.6,8.4-12.7,8.5-12.8,8.6z"/>
		<path class="st202" d="M-7.9,16.8c-0.1,0-0.2,0-0.3,0c-0.6-0.1-1.1-0.4-1.4-1C-8.9,16-8.4,16.5-7.9,16.8z"/>
		<path class="st203" d="M-15.5,7.5c0,0.1,0.1,0.1,0.1,0.2c-0.3,0.5-0.8,0.2-1.3,0.3c0,0-0.1-0.1-0.1-0.1c0-0.1,0-0.3,0.2-0.3
			c0.2,0,0.4-0.1,0.6-0.1C-15.9,7.7-15.7,7.5-15.5,7.5z"/>
		<path class="st204" d="M-11.4,10c-0.1,0-0.2,0-0.3,0.1c-0.1-0.1-0.2-0.2-0.3-0.3c0.4,0,0.8,0,1.2,0c0.3-0.2,0.5-0.2,0.8,0
			c0.1,0.3-0.2,0.3-0.3,0.4C-10.7,10.1-11.1,10-11.4,10z"/>
		<path class="st205" d="M-12.7,8.2c-0.4,0.1-0.9-0.3-1.1,0.3c-0.1-0.1-0.3-0.2-0.4-0.3c0.2-0.5,0.6-0.3,0.9-0.3
			c0.2,0,0.4,0,0.6,0.1c0.1,0,0.1,0.1,0.1,0.2C-12.6,8.1-12.7,8.2-12.7,8.2z"/>
		<path class="st206" d="M-13.2,8.1c-0.3,0.1-0.7-0.1-1,0.1c-0.2-0.1-0.5-0.2-0.6-0.4c0.1,0,0.1,0,0.2,0c0.4,0.1,0.8-0.1,1.2,0
			C-13.3,7.9-13.2,7.9-13.2,8.1z"/>
		<path class="st207" d="M-12.5,9.5c0.1,0.1,0.2,0.1,0.3,0.2c0,0.1,0.1,0.3,0,0.3C-12.5,10-12.7,9.8-12.5,9.5z"/>
		<path class="st208" d="M-10.3,14.7c-0.1,0-0.2,0-0.3,0c0-0.2-0.1-0.4-0.1-0.6C-10.5,14.3-10.3,14.4-10.3,14.7z"/>
		<path class="st209" d="M-15,8.6c0.1-0.2,0.2-0.2,0.4-0.1C-14.7,8.7-14.9,8.7-15,8.6z"/>
		<path class="st210" d="M-12.1,13.8c0.1,0.4,0.3,0.8,0.4,1.3c0,0.4,0.1,0.8,0.3,1.1c0.1,0.1,0.1,0.2,0.1,0.3
			c0.1,0.3,0.2,0.6,0.3,0.8c-0.1,0.1-0.2,0.2-0.3,0.3c-0.1,0-0.1,0-0.1,0c0-0.1-0.1-0.2-0.1-0.3c-0.1-0.2-0.1-0.5-0.4-0.6
			c-0.1-0.3-0.3-0.5-0.3-0.8c-0.1-0.1,0-0.3-0.1-0.5c0-0.3,0.1-0.5-0.1-0.8c0-0.1-0.1-0.1-0.1-0.2c0-0.1,0-0.3,0-0.4
			C-12.4,14-12.4,13.8-12.1,13.8z"/>
		<path class="st211" d="M-11.3,17.7c0-0.2,0.1-0.3,0.3-0.3c0.4,0.3,0.8,0.7,1,1.1c-0.1,0.1-0.2,0.2-0.3,0.3c0,0-0.1-0.1-0.1-0.1
			c0.3-0.8-0.3-0.2-0.4-0.3c0,0,0-0.1,0-0.1c0,0-0.1-0.1-0.1-0.1c0,0,0-0.1-0.1-0.1c0,0,0-0.1-0.1-0.1
			C-11.1,17.8-11.2,17.8-11.3,17.7C-11.2,17.7-11.3,17.7-11.3,17.7z"/>
		<path class="st196" d="M-11.3,16.5c-0.1-0.1-0.1-0.2-0.1-0.3c0.2-0.1-0.1-0.5,0.3-0.7C-11,15.9-11.1,16.2-11.3,16.5z"/>
		<path class="st212" d="M-16.8,10.2c0.8,0.6,1.7,0.8,2.4,1.6c0,0.2,0,0.3-0.2,0.4c-0.3-0.1-0.5-0.3-0.8-0.4
			c-0.7-0.5-1.1-0.4-1.6,0.2c0,0,0,0-0.1,0c-0.3-0.2-0.3-0.4-0.4-0.7c0.1-0.2,0.4-0.3,0.6-0.4c0.2-0.1,0.2-0.2,0.1-0.3
			C-16.9,10.4-17.1,10.3-16.8,10.2z"/>
		<path class="st213" d="M-12.1,13.8c-0.1,0.1-0.2,0.2-0.3,0.3c0,0-0.1,0-0.1,0c0,0,0-0.1,0-0.1c-0.1-0.1-0.3-0.2-0.4-0.4
			c0-0.1-0.1-0.1-0.1-0.2c-0.1-0.3-0.3-0.5-0.5-0.6c-0.1-0.1-0.2-0.3-0.3-0.4c0-0.2,0.1-0.2,0.3-0.3C-12.9,12.6-12.4,13.1-12.1,13.8
			z"/>
		<path class="st214" d="M-13.5,12.2c-0.1,0.1-0.2,0.2-0.3,0.3c-0.3,0-0.5-0.2-0.7-0.3c0-0.2,0-0.3,0.2-0.4
			C-14.1,11.9-13.8,12-13.5,12.2z"/>
		<path class="st215" d="M-12.8,13.4c0,0,0,0.1,0.1,0.1c-0.1,0.2-0.1,0.5-0.2,0.7c-0.1,0.1-0.2,0.2-0.4,0.1c0.1-0.3,0-0.5,0-0.8
			c0-0.1,0-0.1,0-0.2C-13.1,13.1-12.9,13.3-12.8,13.4z"/>
		<path class="st216" d="M-12.8,13.4c-0.1-0.1-0.3-0.2-0.4,0c-0.1-0.2-0.2-0.4-0.3-0.6C-13,12.8-12.9,13.1-12.8,13.4z"/>
		<path class="st217" d="M-16.2,13.3c-0.2,0-0.5,0-0.7,0c0.1-0.2,0.1-0.4,0.4-0.4C-16.4,13-16.3,13.1-16.2,13.3z"/>
		<path class="st218" d="M-13.3,13.6c0.1,0.3,0.1,0.6,0,0.8c0,0-0.1,0-0.1,0C-13.3,14.1-13.5,13.8-13.3,13.6z"/>
		<path class="st219" d="M-17,11.9C-17,11.9-17,11.9-17,11.9c0.1,0.1,0.2,0.3,0.3,0.5C-17.1,12.4-17.2,12.2-17,11.9z"/>
		<path class="st220" d="M-21,9.5c0,0,0.1,0,0.1,0c0,0,0.1,0,0.1,0c0.3,0,0.5,0,0.8,0c0.1,0,0.3,0,0.4,0.1c0,0.1,0,0.1,0,0.2
			c-0.1,0.1-0.3,0.1-0.4,0C-20.3,9.7-20.8,10-21,9.5z"/>
		<path class="st221" d="M-19.6,9.8c0-0.1,0-0.1,0-0.2c0.1,0,0.1-0.1,0.2,0c0.1,0.1,0.2,0.1,0.2,0.2c0.1,0.2,0,0.3,0,0.5
			c-0.1,0.1-0.1,0.2-0.2,0.2c0-0.1-0.1-0.2-0.1-0.3C-19.7,10-19.7,9.9-19.6,9.8z"/>
		<path class="st222" d="M-19.2,11.4c0,0-0.1,0-0.1,0c-0.1-0.1-0.1-0.3-0.1-0.5c0.1,0,0.1,0,0.2,0C-19.1,11.1-19,11.3-19.2,11.4z"/>
		<path class="st223" d="M-19.3,11L-19.3,11C-19.4,11-19.4,11-19.3,11c-0.1-0.2-0.1-0.4-0.1-0.5c0,0,0.1-0.1,0.1-0.1
			c0.2,0.1,0.1,0.3,0.1,0.5C-19.2,10.9-19.3,11-19.3,11z"/>
		<path class="st224" d="M-21.4,8.6c0,0,0.1,0,0.1,0c0,0,0.1,0.1,0.1,0.1c0,0.1,0,0.1-0.1,0.1c0,0-0.1,0-0.1,0
			C-21.4,8.8-21.4,8.7-21.4,8.6z"/>
		<path class="st225" d="M-21.1,8.9c0,0.1-0.1,0.1-0.1,0.2c0,0,0-0.1,0-0.1c0,0,0-0.1,0-0.1C-21.2,8.8-21.2,8.8-21.1,8.9z"/>
		<path class="st226" d="M-12.9,14.2c0.1-0.2-0.1-0.5,0.2-0.7c0.1,0.1,0.1,0.3,0.2,0.4C-12.7,14-12.8,14.2-12.9,14.2z"/>
		<path class="st227" d="M-12.5,14.1c0,0,0.1,0,0.1,0c0,0.1,0,0.3,0,0.4c0.1,0.2,0.2,0.4-0.1,0.5c-0.1-0.1-0.1-0.3,0-0.4
			C-12.5,14.4-12.7,14.3-12.5,14.1z"/>
		<path class="st228" d="M-12.5,15c0.2-0.1,0.1-0.3,0.1-0.4c0,0,0.1,0,0.1,0c0.2,0.1,0.1,0.3,0.1,0.5c0,0.1-0.1,0.3-0.2,0.4
			c0,0-0.1,0-0.1,0C-12.6,15.2-12.6,15.1-12.5,15z"/>
		<path class="st229" d="M-12.5,15c0,0.1,0,0.3,0,0.4c-0.2-0.3-0.2-0.5,0-0.8C-12.5,14.7-12.5,14.8-12.5,15z"/>
		<path class="st230" d="M-12.4,15.4c0-0.1,0.1-0.2,0.1-0.3c0.1,0.1,0.1,0.2,0.1,0.3c0,0.2,0,0.4,0,0.6
			C-12.5,15.8-12.4,15.6-12.4,15.4z"/>
		<path class="st231" d="M-19.3,10.9c0-0.2,0-0.4,0-0.6c0-0.2,0-0.4,0-0.6c0.2-0.2,0.5-0.2,0.8-0.2c0.2,0,0.5,0,0.7,0
			c0.2,0,0.3,0.1,0.4,0.3c-0.1,0.5-0.5,0-0.7,0.2c-0.5,0-0.9,0-1,0.6C-19.1,10.9-19.2,10.9-19.3,10.9z"/>
		<path class="st232" d="M-18.2,10.2c0.2-0.3,0.5,0.1,0.7-0.1c0.3,0.1,0.5,0.2,0.6,0.5c0,0,0,0.1,0,0.1
			C-17.4,10.8-17.7,10.2-18.2,10.2z"/>
		<path class="st233" d="M-16.8,10.6c0.1,0.1,0.3,0.2,0.4,0.3c-0.3,0.2-0.3-0.3-0.5-0.1c0-0.1,0-0.2,0-0.3c0,0,0,0,0,0
			C-16.9,10.5-16.8,10.5-16.8,10.6z"/>
		<path class="st234" d="M-19.3,10.9c0,0,0.1-0.1,0.1-0.1c0.2,0.2,0.2,0.5,0,0.7c0-0.2-0.1-0.3-0.2-0.4
			C-19.3,11-19.3,10.9-19.3,10.9z"/>
		<path class="st235" d="M-2.7,8.6c0.3,0.1,0.6,0,0.8,0.1c0.2,0.5,0,0.6-0.4,0.6c-0.2,0-0.4,0-0.5,0c-0.4,0.2-0.8,0-1.1,0.1
			c-0.8,0.2-1.7,0.1-2.5,0.1c-0.2,0-0.4-0.1-0.5-0.2c-0.5-0.2-1,0.1-1.4-0.2c-0.1,0-0.1-0.1-0.1-0.2c0-0.1,0-0.1,0-0.2
			C-8,8-7.3,8.5-6.8,8.6C-6.4,8.4-6,8.5-5.6,8.5c0.2-0.1,0.4-0.1,0.5,0C-4.3,8.8-3.5,8.6-2.7,8.6z"/>
		<path class="st236" d="M-2.8,10.2c-0.2,0-0.5,0-0.7,0c0,0,0,0,0,0c-0.1-0.2-0.3,0-0.4-0.2c-0.7-0.2-1.3-0.1-2-0.1
			c-0.2,0.1-0.5,0.2-0.7,0c0-0.1,0-0.2,0-0.2C-5.7,9.5-4.9,9.4-4,9.4c0,0,0.1,0,0.1,0.1c0,0,0,0.1,0,0.1c-0.3,0.1-0.5,0-0.8,0.1
			c0.2,0,0.5-0.1,0.8,0.1C-3.6,10.1-3,9.6-2.8,10.2z"/>
		<path class="st237" d="M-3.9,9.3c0.4,0,0.8,0,1.1,0c-0.3,0.3-0.8,0.1-1.1,0.1c0,0,0,0,0,0C-4,9.4-4,9.4-3.9,9.3
			C-4,9.4-4,9.3-3.9,9.3z"/>
		<path class="st162" d="M-3.9,9.8c-0.2,0-0.5,0-0.7,0c0,0,0-0.1,0-0.1c0.2,0,0.5,0,0.7,0C-3.9,9.7-3.9,9.7-3.9,9.8z"/>
		<path class="st238" d="M-11.1,18.1c-0.2,0-0.2-0.1-0.3-0.3c0,0,0.1-0.1,0.2-0.1c0.1,0,0.1,0,0.2,0.1c0.1,0.1,0.1,0.1,0.1,0.2
			c0,0,0,0.1,0,0.1C-11,18.1-11,18.1-11.1,18.1C-11.1,18.1-11.1,18.1-11.1,18.1z"/>
		<path class="st239" d="M-11.2,17.8c0,0-0.1,0-0.1,0c0-0.1,0-0.1,0-0.2c0,0,0.1,0,0.1,0c0,0,0,0,0,0
			C-11.2,17.7-11.2,17.7-11.2,17.8C-11.2,17.8-11.2,17.8-11.2,17.8z"/>
		<path class="st240" d="M-11.1,18.1C-11.1,18.1-11,18.1-11.1,18.1c0.2,0,0.2,0.1,0.1,0.1c0,0,0,0,0,0c0,0-0.1,0-0.1,0s-0.1,0-0.1,0
			C-11.1,18.2-11.1,18.1-11.1,18.1z"/>
		<path class="st241" d="M-6.6,9.9c0.2,0,0.5,0,0.7,0c0,0,0,0.1,0,0.1c-0.1,0-0.2,0-0.3,0.1c0,0-0.1,0-0.1,0c-0.3-0.1-0.6,0-0.9-0.1
			c-0.4,0-0.8,0-1.2,0c0.3-0.5,0.7-0.3,1.1-0.3C-7.1,9.7-6.8,9.7-6.6,9.9z"/>
		<path class="st242" d="M-3.9,10c0.1,0,0.3,0,0.4,0.2c-0.3,0-0.7,0-1,0C-4.4,10-4.1,10.1-3.9,10z"/>
		<path class="st243" d="M-6,11.7c-0.1-0.3-0.2-0.6,0-0.9c0.2,0.2,0.1,0.4,0.2,0.6C-5.9,11.5-6,11.6-6,11.7z"/>
		<path class="st244" d="M-11,18.2c0,0,0-0.1-0.1-0.1c0,0,0.1,0,0.1,0c0-0.1,0.1-0.1,0.1,0c0,0,0,0.1,0,0.1
			C-10.9,18.2-10.9,18.2-11,18.2z"/>
		<path class="st245" d="M-8.9,6.7c0.3,0.2,0.7,0.3,0.8,0.7c-0.4,0.2-0.8,0.1-1.2,0.1c-1.2,0-2.2-0.6-3.3-0.8
			c-0.8-0.1-1.5-0.4-2.3-0.2C-16.2,7-17.7,7-19,7.2c-0.3,0-0.4-0.1-0.6-0.4c0.1-0.2,0.3-0.2,0.4-0.3c1.2-0.1,2.3-0.6,3.1-1.3
			c1.2-0.9,2.3-0.6,3.5-0.1C-11.3,5.7-10.1,6.2-8.9,6.7z"/>
		<path class="st246" d="M-19.2,6.5c-0.1,0.1-0.3,0.2-0.4,0.3c0-0.1-0.1-0.2-0.1-0.3c0.1-0.2,0.2-0.3,0.4-0.3
			C-19.3,6.3-19.2,6.4-19.2,6.5z"/>
		<path class="st152" d="M-14.9,6.5c0.2-0.3,0.5-0.3,0.8-0.3c1.7,0.2,3.2,0.7,4.8,1.3c-0.2,0-0.4,0.1-0.6,0.3
			c-0.2,0.1-0.5,0.1-0.7,0.2c-0.3,0.1-0.7,0.1-1,0.2c-0.1,0-0.2,0-0.3,0c-0.1,0-0.1,0-0.2,0c-0.4-0.1-0.9-0.2-1.3-0.3
			c-0.2-0.1-0.5-0.1-0.6-0.4c-0.1-0.2-0.4-0.2-0.4-0.4c-0.2-0.1-0.3-0.2-0.5-0.3C-14.9,6.7-14.9,6.6-14.9,6.5z"/>
		<path class="st247" d="M-17.4,7.6c0,0.2-0.1,0.3-0.2,0.4c-0.1,0.2-0.2,0.4-0.4,0.5c-0.1,0-0.1,0-0.2,0c-0.2-0.2-0.5-0.3-0.7-0.3
			c-0.3-0.1-0.6,0-0.9-0.2c0-0.1,0.1-0.2,0.1-0.3C-18.9,7.8-18.2,7.7-17.4,7.6z"/>
		<path class="st248" d="M-15.5,7.5c-0.1,0.1-0.3,0.3-0.4,0c0-0.2-0.3,0-0.3-0.2c0.1-0.3,0.3-0.1,0.5-0.2c0.1,0,0.2,0,0.3,0.1
			C-15.5,7.3-15.5,7.4-15.5,7.5z"/>
		<path class="st249" d="M-14.9,6.8c0.3-0.2,0.4,0,0.5,0.3c-0.3,0.2-0.4,0-0.6-0.1C-14.9,6.9-14.9,6.8-14.9,6.8z"/>
		<path class="st250" d="M-16.6,7.5c-0.1,0.1-0.1,0.2-0.2,0.3c-0.1,0-0.3-0.1-0.4-0.1c0.1-0.2,0.3-0.3,0.5-0.3
			C-16.7,7.4-16.6,7.4-16.6,7.5z"/>
		<path class="st251" d="M-15.8,7.1c-0.1,0.2-0.3,0.1-0.4,0.3c-0.1,0.1-0.2,0.1-0.3,0C-16.4,6.9-16,7.1-15.8,7.1z"/>
		<path class="st252" d="M-16.5,7.3c0.1,0,0.2,0,0.3,0c0.1,0.1,0.3-0.1,0.3,0.2c-0.2,0-0.5,0-0.7,0c0,0-0.1-0.1-0.1-0.1
			C-16.7,7.4-16.6,7.4-16.5,7.3z"/>
		<path class="st253" d="M-10.6,7.9c0.2-0.1,0.4-0.4,0.7-0.1c0,0,0,0,0,0c0.5,0.1,1,0,1.4,0.1c0.2,0,0.5-0.2,0.6,0.1
			c-0.7,0.4-1.5,0.1-2.2,0.2C-10.3,8.2-10.5,8.2-10.6,7.9z"/>
		<path class="st254" d="M-10.1,8.1c0.8,0,1.5,0,2.3,0c0.1,0,0.3,0.1,0.4,0.1c0,0,0,0,0,0c-0.1,0.2-0.3,0.2-0.5,0.2
			c-0.4,0-0.8,0-1.2,0c-0.3,0-0.6,0-0.9-0.1c-0.1,0-0.1-0.1-0.2-0.1C-10.2,8.2-10.1,8.1-10.1,8.1z"/>
		<path class="st255" d="M-8.4,7.9c-0.5-0.1-1,0.1-1.4-0.1C-9.4,7.7-8.9,7.6-8.4,7.9z"/>
		<path class="st256" d="M-24.4,8.6c0.8,0,1.6,0,2.4,0c0,0,0,0.1,0,0.1c-0.9,0-1.8,0-2.8,0C-24.7,8.6-24.5,8.6-24.4,8.6z"/>
		<path class="st257" d="M-20.9,8.1c0.2,0,0.3-0.1,0.5-0.1c0.4,0.1,0.8,0,1.2,0.1c0.3,0.2,0.6,0.3,0.5,0.7c-0.5,0.4-1,0.2-1.6,0.2
			c-0.1,0-0.1,0-0.2-0.1c-0.2-0.1-0.2-0.3-0.3-0.5c0-0.1-0.1-0.1-0.1-0.2C-20.8,8.2-20.9,8.1-20.9,8.1z"/>
		<path class="st258" d="M-20.6,8.8c0,0,0.1,0,0.1,0c0.2,0.2,0.2,0.4,0.1,0.7c-0.1,0.1-0.3,0.1-0.5,0c0,0,0,0,0,0c0,0,0-0.1,0-0.1
			c0-0.1,0.1-0.2,0.1-0.3C-20.7,8.9-20.7,8.8-20.6,8.8z"/>
		<path class="st259" d="M-20.7,9c0,0.1,0,0.2-0.2,0.3c0-0.4,0-0.8,0-1.2c0,0,0.1,0,0.1,0C-20.6,8.5-20.6,8.8-20.7,9z"/>
		<path class="st260" d="M-21.1,8.9c0,0-0.1,0-0.1,0c0-0.1,0-0.1,0-0.2C-21,8.6-21,8.7-21.1,8.9z"/>
		<path class="st261" d="M-5.1,8.5c-0.2,0-0.4,0-0.5,0c0,0,0-0.1,0-0.1c0.3,0,0.6,0,1,0C-4.8,8.5-4.9,8.5-5.1,8.5z"/>
		<path class="st262" d="M-7.9,8.3c0.2,0,0.3-0.1,0.5-0.1c0.1,0.3,0.4,0.1,0.5,0.2c0.1,0.1,0.1,0.2,0.2,0.3C-6.8,8.7-6.9,8.8-7,8.7
			c-0.5-0.4-1-0.2-1.5,0.1C-8.7,9-8.9,9-9.2,8.8c0-0.1,0-0.1,0-0.2c0.1,0,0.2,0,0.2,0c-0.1,0-0.2,0-0.3,0c-0.2,0.1-0.3,0.2-0.4,0.4
			C-9.5,9-9.6,9-9.6,9.1c-0.5,0-0.9,0-1.3-0.1c-0.3-0.1-0.5-0.2-0.5-0.6c0-0.1,0.1-0.1,0.2-0.1c0.4-0.1,0.8,0,1.2,0c0.3,0,0.7,0,1,0
			C-8.7,8.3-8.3,8.2-7.9,8.3z"/>
		<path class="st263" d="M-19.2,8.1C-19.6,8-20,8.2-20.4,7.9c0.2,0,0.4,0,0.6,0c0.3,0.1,0.7-0.1,1,0.1C-19,8.2-19.1,8.1-19.2,8.1z"
			/>
		<path class="st264" d="M-18,8.5c0.1-0.2,0.2-0.4,0.4-0.5c-0.2,0.9,0.2,1.6,0.9,2.2c-0.2,0.1,0,0.3,0,0.4c0,0-0.1,0-0.1,0
			s-0.1,0-0.1,0c-0.1-0.3-0.5-0.3-0.6-0.6c0-0.1-0.1-0.2-0.3-0.3c-0.2-0.2-0.3-0.4-0.4-0.6C-18.2,8.9-18.2,8.7-18,8.5z"/>
		<path class="st265" d="M-7.3,9.9C-7.7,10-8.1,9.8-8.5,10c-0.2,0-0.3,0-0.5,0.1c-0.1,0-0.1,0-0.2,0c-0.3,0-0.6,0-0.8-0.3
			c-0.3,0-0.5,0-0.8,0c-0.2-0.2-0.5-0.1-0.7-0.1c-0.2-0.3,0.1-0.5,0.3-0.6c0.5,0,1,0.1,1.5,0.1c0.1,0,0.3,0,0.4,0c0.1,0,0.1,0,0.2,0
			c0.2,0,0.4,0.1,0.6,0.1c0.3,0.1,0.5,0.1,0.8,0c0.1,0,0.2,0,0.3,0c0.2,0.1,0.3,0.2,0.4,0.4C-7.1,9.8-7.2,9.8-7.3,9.9z"/>
		<path class="st266" d="M-9.1,10c0.1,0,0.1,0,0.2,0c-0.1,0.1-0.2,0.1-0.3,0.1c-0.1,0.2-0.3,0.2-0.5,0.1c-0.2,0-0.4,0-0.6,0
			c-0.1,0-0.2,0-0.4,0c-0.1,0-0.2,0-0.3,0c0-0.5,0.4-0.2,0.6-0.3C-10,10-9.5,9.9-9.1,10z"/>
		<path class="st267" d="M-10.7,10.3c0.1-0.1,0.2-0.2,0.3-0.1c0.2,0.1,0.5,0.1,0.7,0c0.1,0,0.3,0.2,0.4,0c-0.1,0.3-0.2,0.4-0.5,0.3
			c-0.2-0.1-0.5,0-0.8,0C-10.6,10.4-10.7,10.4-10.7,10.3z"/>
		<path class="st268" d="M-7.2,10.1c0.3,0,0.6-0.1,0.9,0.1C-6.6,10.2-6.9,10.2-7.2,10.1z"/>
		<path class="st269" d="M-13.9,7.5c0.1,0.2,0.4,0.1,0.6,0.3c0,0,0.1,0.1,0.1,0.1c0,0,0,0,0,0c-0.4,0-0.9,0.1-1.3-0.2
			C-14.5,7.5-14.1,7.8-13.9,7.5z"/>
		<path class="st162" d="M-11.4,8.4c0,0,0,0.1,0,0.1c0,0.1-0.4,0-0.3,0.3C-11.8,9-12,9-12.1,9.2c-0.2-0.2-0.5-0.4-0.7-0.6
			c0-0.1,0-0.2,0.1-0.3C-12.3,8.1-11.8,8.2-11.4,8.4z"/>
		<path class="st270" d="M-12.1,9.2c-0.2-0.5,0.2-0.3,0.4-0.4c0.3-0.1,0.4,0.1,0.4,0.3c-0.1,0.2-0.3,0.3-0.3,0.5
			C-11.7,9.5-11.9,9.3-12.1,9.2z"/>
		<path class="st271" d="M-10.4,10c-0.2,0.1-0.5-0.1-0.6,0.3c-0.1-0.1-0.3-0.2-0.4-0.3c0.3-0.2,0.7-0.1,1-0.1
			C-10.4,9.9-10.4,9.9-10.4,10C-10.4,10-10.4,10-10.4,10z"/>
		<path class="st272" d="M-11.4,8.4c-0.4,0-0.9,0-1.3,0c0,0,0-0.1,0-0.1c0,0,0,0,0,0c0.3-0.2,0.6-0.1,0.8-0.1c0.3,0,0.7-0.1,1-0.1
			c0.2,0,0.5,0,0.7,0.1l0,0c0.1,0,0.1,0,0.1,0.1c0,0,0,0,0,0C-10.6,8.3-11,8.4-11.4,8.4z"/>
		<path class="st273" d="M-10.4,10c0,0,0-0.1,0-0.1c0.1,0,0.3,0,0.4-0.1c0.3,0.1,0.6,0,0.9,0.2C-9.6,10-10,10-10.4,10z"/>
		<path class="st274" d="M-13.4,7.9c0,0,0-0.1,0-0.1c0.5,0,1,0.1,1.4,0.2c-0.2,0.1-0.5,0.1-0.8,0c-0.2,0-0.4,0-0.6,0
			C-13.3,8-13.3,8-13.4,7.9z"/>
		<path class="st275" d="M-12.7,8.1c0.3,0,0.5,0,0.8,0c0,0,0.1,0,0.1,0c0,0,0.1,0.1,0,0.1c0,0,0,0,0,0c-0.3,0-0.6,0-0.9,0
			C-12.7,8.2-12.7,8.1-12.7,8.1z"/>
		<path class="st276" d="M-12.2,15.4c0-0.1,0-0.2-0.1-0.3c0-0.2,0-0.4,0-0.6C-12,14.8-12.1,15.1-12.2,15.4z"/>
		<path class="st277" d="M-11.2,17.8c0,0,0-0.1,0-0.1c0.1,0,0.2,0,0.3,0.1c0,0.1-0.1,0.1-0.2,0C-11.2,17.8-11.2,17.8-11.2,17.8z"/>
		<path class="st278" d="M-11.1,17.8c0.1,0,0.1,0,0.2,0c0,0,0.1,0.1,0.1,0.1c-0.1,0.1-0.1,0.1-0.2,0C-11.1,17.9-11.1,17.8-11.1,17.8
			z"/>
		<path class="st279" d="M-11,17.9c0.1,0,0.1,0,0.2,0c0,0,0,0.1,0,0.1c0,0-0.1,0-0.1,0C-11,18-11,18-11,17.9z"/>
		<path class="st265" d="M-20.4,9.5c0-0.2,0-0.5,0-0.7c0.6-0.1,1.1,0.2,1.7-0.1c0.2-0.3,0.4-0.2,0.5,0c0,0.1,0,0.2,0,0.3
			c-0.2,0.7-0.8,0.6-1.3,0.6l-0.1,0c0,0-0.1,0-0.1,0c-0.1,0-0.3,0-0.4,0C-20.1,9.5-20.3,9.6-20.4,9.5z"/>
		<path class="st280" d="M-20.4,9.5c0.1,0,0.3,0,0.4,0.1c-0.3,0-0.6,0.1-0.8-0.1C-20.7,9.5-20.6,9.5-20.4,9.5z"/>
		<path class="st281" d="M-19.4,9.6c0.4-0.3,1.1,0,1.1-0.7c0.3,0,0.2,0.3,0.2,0.4c0,0.3-0.2,0.4-0.4,0.5c-0.3,0-0.5,0-0.8,0
			C-19.3,9.7-19.4,9.7-19.4,9.6z"/>
		<path class="st282" d="M-18.5,9.8c0.1-0.1,0.2-0.3,0.3-0.4c0-0.1,0.1-0.2,0.2-0.2c0.1,0.2,0.3,0.4,0.3,0.6
			C-18,9.8-18.2,9.8-18.5,9.8z"/>
		<path class="st162" d="M-7.2,9.8c-0.1-0.1-0.3-0.2-0.3-0.4c0.3-0.2,0.6-0.1,0.8,0c0.9,0,1.8,0,2.7,0c0,0,0,0.1,0,0.1
			C-4.8,9.4-5.7,10-6.6,9.8C-6.8,9.9-7,9.9-7.2,9.8z"/>
		<path class="st283" d="M-6.6,9.3c-0.3,0-0.6,0-0.8,0c-0.1,0-0.2,0-0.3,0c-0.3,0.1-0.6,0.1-0.8,0c-0.2,0-0.5,0.1-0.7-0.1
			C-9.1,9-8.9,9-8.7,9c0.1,0,0.2,0,0.2,0.1C-8,9.2-7.5,9-7,9.2C-6.9,9.2-6.7,9.2-6.6,9.3z"/>
		<path class="st284" d="M-9.2,8.6C-9,8.9-8.7,8.7-8.4,8.8c0,0,0,0.1,0,0.1c-0.4,0.2-0.8,0.2-1.1,0c-0.2-0.3,0-0.4,0.3-0.4
			C-9.2,8.5-9.2,8.5-9.2,8.6z"/>
		<path class="st284" d="M-7,9.2c-0.5,0-1,0-1.5,0c0-0.1,0-0.2,0.1-0.1C-8,9.2-7.5,8.8-7,9.2z"/>
		<path class="st285" d="M-8.4,9.1c0,0-0.1,0.1-0.1,0.1c0,0-0.1,0-0.1,0c-0.2-0.1-0.5-0.1-0.7,0c0,0.1-0.1,0.1-0.1,0
			c-0.1-0.1-0.1-0.2,0-0.3c0,0,0,0,0,0c0.4,0,0.8,0,1.1,0C-8.4,9-8.4,9-8.4,9.1z"/>
		<path class="st286" d="M-7.2,9.8c0.2,0,0.4,0,0.6,0c0,0,0,0.1,0,0.1c-0.2,0-0.5,0-0.7,0C-7.3,9.8-7.2,9.8-7.2,9.8z"/>
		<path class="st287" d="M-10.1,8.2c-0.2,0-0.5,0-0.7,0C-11.1,8-11.4,8.3-11.6,8c0.3-0.1,0.7-0.2,1-0.1c0.1,0.2,0.3,0.1,0.4,0.2
			C-10.1,8.1-10.1,8.2-10.1,8.2z"/>
		<path class="st288" d="M-11.6,8c0.2,0.1,0.5-0.1,0.7,0.1c-0.3,0-0.7,0-1,0c0,0,0-0.1,0-0.1C-11.7,8.1-11.7,8-11.6,8z"/>
		<path class="st281" d="M-18.3,8.6c-0.1-0.1-0.3-0.1-0.4,0c-0.1-0.2-0.3-0.4-0.4-0.6c0.1,0,0.2,0,0.3,0c0.3,0.1,0.7-0.2,0.7,0.4
			C-18.2,8.6-18.2,8.6-18.3,8.6z"/>
		<path class="st289" d="M-18.3,8.6c0,0,0.1-0.1,0.1-0.1c0.1,0,0.1,0,0.2,0c0,0.2,0,0.4,0,0.7c-0.1,0.1-0.1,0.1-0.2,0.2
			c0-0.1-0.1-0.3-0.1-0.4C-18.3,8.8-18.3,8.7-18.3,8.6z"/>
		<path class="st290" d="M-7.9,8.3c-0.4,0-0.8,0-1.2,0c-0.1,0-0.1,0-0.1-0.1c0,0,0,0,0.1,0C-8.7,8.2-8.3,8.1-7.9,8.3z"/>
		<path class="st291" d="M-9.1,8.2c0,0,0,0.1,0,0.1c-0.3,0-0.7,0-1,0c0,0,0-0.1,0-0.1C-9.8,8.2-9.5,8.2-9.1,8.2z"/>
		<path class="st292" d="M-20.7,9c0-0.3,0-0.6,0-0.8c0.2,0.1,0.1,0.4,0.2,0.6C-20.6,8.9-20.6,9-20.7,9z"/>
		<path class="st293" d="M-9.6,8.9c0,0.1,0,0.2,0,0.3c-0.6,0-1.1,0.1-1.7-0.1c-0.1-0.1-0.3-0.2-0.4-0.3c-0.2-0.3,0.1-0.3,0.3-0.3
			c0.1,0.2,0.2,0.2,0.4,0.3C-10.5,8.9-10,8.9-9.6,8.9z"/>
		<path class="st294" d="M-9.2,8.6c0,0-0.1-0.1-0.1-0.1c0.2,0,0.5,0,0.8,0C-8.8,8.7-9,8.6-9.2,8.6z"/>
		<path class="st295" d="M-8.6,9.3c0.3,0,0.6,0,0.8,0C-8,9.5-8.3,9.5-8.6,9.3z"/>
		<path class="st296" d="M-9.4,9.2C-9.2,9-9,9-8.7,9.2c-0.2,0-0.4,0-0.6,0C-9.3,9.2-9.4,9.2-9.4,9.2z"/>
		<path class="st248" d="M-9.7,10.2c-0.2,0.2-0.5,0.2-0.7,0C-10.2,10.2-10,10.2-9.7,10.2z"/>
	</g>
	<g>
		<path class="st149" d="M-6.2,10c0.3,1.2,0.5,2.4,0.8,3.5c0.2,0.8,0.6,1.6,1,2.3c0.7,1.2,0.4,2.3-0.3,3.3c-0.6,1-1.6,1.4-2.8,1.7
			c-0.5-0.3-1.1-0.7-1.7-1.1c-0.8-0.5-1.4-1.1-2.2-1.5c-1.2-0.5-1.8-1.6-2.3-2.8"/>
		<path class="st149" d="M-6.8,8.2C-7,7.1-7.7,6.4-8.6,6c-1.1-0.5-2.3-1-3.5-1.4c-0.7-0.3-1.5-0.4-2.2-0.7c-0.7-0.3-1.2,0-1.8,0.4
			c-0.5,0.4-1,0.8-1.5,1.2"/>
		<path class="st149" d="M-20.9,8.7c-3,0-6.1-0.1-9.1-0.1"/>
		<path class="st149" d="M-12.3,8.5c0.4-0.1,0.9-0.3,1.3-0.3c2.8,0.1,5.7,0.2,8.5,0.4c0.3,0,0.7,0.3,0.9,0.6c0.2,0.2,0,0.5-0.2,0.6"
			/>
		<path class="st149" d="M-6.2,9.7c-0.8,0-1.7,0-2.5,0"/>
		<path class="st149" d="M-10.8,9.6c-0.1,0-0.3,0-0.4,0"/>
		<path class="st149" d="M-13.3,8.4c-0.8-0.3-1.6-0.6-2.3-0.9"/>
		<path class="st149" d="M-17.8,9.7c1,1,2.1,1.8,3.4,2.5c1,0.5,2,1.2,1.9,2.7c0,0.3,0.1,0.7,0.3,1.1c0.4,0.8,0.8,1.6,1.3,2.5"/>
		<path class="st149" d="M-11.5,9.6c0.2,0.5,1.2,1,1.8,0.8c0.3-0.1,0.9,0,0.8-0.6"/>
		<path class="st149" d="M-15.8,7.3c-1,0.1-1.9,0.3-2.7,0.9c-0.7-0.5-1.5-0.3-2.2-0.2"/>
		<path class="st149" d="M-20.6,9.2c-0.1,0-0.3,0-0.4,0.1"/>
		<path class="st149" d="M-12.8,8.4c0-0.4-0.3-0.6-0.6-0.7c-0.5-0.2-1-0.5-1.5-0.8C-15,6.9-15.2,7-15.4,7.1"/>
		<path class="st149" d="M-13.2,13.2c0,0.1,0,0.1,0,0.2c0,0.3,0.1,0.8,0,0.9c-0.2,0.2-0.6,0.1-1,0.2c0.1,0.2,0.2,0.5,0.3,0.7"/>
		<path class="st149" d="M-18,12.2c0.3,0.6,0.7,1,1.3,1.3c0.1,0,0.2-0.1,0.3-0.1"/>
		<path class="st149" d="M-17.3,11.6c0.3,0.5,0.6,1.1,1,1.5c0.3,0.4,0.9,0.5,1.3,0.8c0.2,0.1,0.4,0.1,0.6,0.2"/>
		<path class="st149" d="M-16.9,10.7c-0.3,0.5-0.7,1-1.3,1.2"/>
		<path class="st149" d="M-20.9,8c-0.4,0.3-0.5,0.3-0.4,0.8c0,0.3,0.1,0.7,0.6,0.6"/>
		<path class="st149" d="M-18.5,8.2c0,0.3,0,0.6-0.1,0.9"/>
		<path class="st149" d="M-20.2,7c0.2,0.3,0.3,0.6,0.5,0.8"/>
		<path class="st149" d="M-20.8,8.1c0.1,0.3,0.1,0.6,0.2,0.8"/>
		<path class="st149" d="M-19.2,11.5c0.1,0.1,0.2,0.3,0.3,0.4"/>
		<path class="st149" d="M-19.8,6.4c-0.1,0.1-0.2,0.2-0.3,0.3"/>
	</g>
</g>
<g>
	<path class="st297" d="M38.9,4.9l1.2-1.7l16.6,8.5l4.5,3.1l0.6-0.8l-4.5-3.1L40.6,2.4l1.1-1.6l-0.8-0.6l-1.1,1.6l-1.6-1.1
		c-1.4-0.9-3.2-0.6-4.2,0.8c-0.9,1.4-0.6,3.2,0.8,4.2S38,6.2,38.9,4.9z M34.8,2c0.6-0.9,1.9-1.1,2.8-0.5c0.9,0.6,1.1,1.9,0.5,2.8
		s-1.9,1.1-2.8,0.5C34.4,4.2,34.2,2.9,34.8,2z"/>
	<path class="st297" d="M57.8,10.1L44-2.4l1.2-1.7c0.9-1.4,0.6-3.2-0.8-4.2s-3.2-0.6-4.2,0.8S39.6-4.3,41-3.4l1.6,1.1l-1.1,1.6
		L42.3,0l1.1-1.6l13.7,12.5l4.6,3.2l0.6-0.8L57.8,10.1L57.8,10.1z M41-7c0.6-0.9,1.9-1.1,2.8-0.5c0.9,0.6,1.1,1.9,0.5,2.8
		s-1.9,1.1-2.8,0.5C40.6-4.8,40.4-6.1,41-7z"/>
</g>
<g>
	<g>
		<path class="st298" d="M-28.8,36.4c0.3-0.8,1-1.2,1.7-1.6c1.8-1.2,3.6-2.4,5.4-3.5c0.7-0.5,1.5-1,2.3-1c1.5,0,1.7-1.1,2.1-2.2
			c0.5-1.1-0.4-1.5-1-2c-1.2-1.1-1.6-2.8-0.8-4.3c0.7-1.4,2.3-2.2,3.9-2c1.6,0.2,2.9,1.6,3,3.2c0.2,1.7-0.6,3.1-2.2,3.8
			c-0.5,0.2-1.1,0.4-1.4,1c-0.3,0.6-0.9,1.3-0.3,1.8c0.5,0.4,1.3,0.1,1.9-0.4c0.3-0.2,0.4-0.6,0.6-0.9c0.9-1.5,2.5-2.1,4.2-1.7
			c1.5,0.4,2.6,1.8,2.6,3.4c0,1.8-1,3.2-2.6,3.7c-1.7,0.5-3.3-0.1-4.2-1.7c-0.4-0.7-0.7-1.3-1.6-1.2c-1,0.1-2,0.3-2.3,1.3
			c-0.4,1.2-1.2,2-2.1,2.9c-1.9,1.9-3.7,3.9-5.6,5.8c-0.4,0.5-0.8,1-1.6,0.8c0-1.4,1.7-1.7,1.9-2.9c2.3-1.5,3.9-3.8,5.8-5.7
			c0.4-0.3,0.9-0.8,0.5-1.4c-0.5-0.6-1.1-0.2-1.5,0.1c-2.5,1.6-5.1,3.1-7.4,5C-28,36.5-28.4,36.4-28.8,36.4z M-10.1,27.4
			c-1.5-0.2-2.8,0.9-3,2.4c-0.2,1.5,0.8,2.7,2.3,2.9c1.5,0.2,2.7-0.8,3-2.2C-7.6,28.9-8.6,27.6-10.1,27.4z M-15.5,20.8
			c-1.5-0.2-2.7,0.8-2.9,2.2c-0.2,1.5,0.8,2.8,2.3,3c1.5,0.2,2.8-0.9,3-2.4C-13,22.2-14.1,20.9-15.5,20.8z"/>
		<path class="st299" d="M-24.9,38.5c-0.2,1.3-1.9,1.6-1.9,2.9c-0.5,1-1.2,1.5-2.3,1.4c0.4-0.4,0.7-1,0.2-1.4c-0.6-0.5-1,0-1.4,0.4
			c-1.7-0.7-2-1.2-1.2-2.7c0.3,2,1.9,0.9,3,1.2c0.6,0.1,0.9-0.3,1-0.8c0.1-0.6-0.2-1.1-0.8-1.1c-0.8,0-1.4-0.4-2.1-0.6
			c0-1.2,0.7-1.6,1.8-1.5c0.4,0.1,0.8,0.1,1.2,0.2C-26.2,36.6-25.9,38.1-24.9,38.5z"/>
	</g>
	<path class="st300" d="M-30.5,37.9c0.7,0.2,1.3,0.5,2.1,0.6c0.7,0,0.9,0.5,0.8,1.1c-0.1,0.5-0.4,0.9-1,0.8c-1-0.3-2.7,0.8-3-1.2
		C-31.4,38.5-31,38.2-30.5,37.9z"/>
	<path class="st300" d="M-30.4,41.8c0.4-0.4,0.8-0.9,1.4-0.4c0.5,0.5,0.2,1-0.2,1.4C-29.9,42.9-30.2,42.5-30.4,41.8z"/>
</g>
<g>
	<g>
		<path class="st301" d="M5.9,18.3c0.2-0.8,0.9-1.2,1.4-1.6c1.5-1.3,3.1-2.6,4.7-3.8c0.6-0.5,1.2-1.1,2-1.2c1.4-0.2,1.4-1.2,1.7-2.2
			c0.3-1.1-0.5-1.3-1.2-1.8c-1.3-0.9-1.7-2.5-1.2-3.9c0.5-1.4,1.9-2.3,3.5-2.2c1.5,0.1,2.8,1.2,3.1,2.6c0.3,1.6-0.3,2.9-1.7,3.7
			c-0.5,0.3-1,0.5-1.2,1c-0.3,0.6-0.7,1.3-0.1,1.7c0.5,0.4,1.2-0.1,1.7-0.6c0.2-0.2,0.3-0.6,0.5-0.9c0.7-1.5,2.1-2.2,3.7-2
			c1.4,0.2,2.6,1.4,2.8,2.9c0.2,1.6-0.6,3.1-2.1,3.7c-1.5,0.6-3.1,0.2-4-1.1c-0.4-0.6-0.8-1.2-1.6-1c-0.9,0.2-1.8,0.5-2,1.5
			c-0.2,1.2-1,2-1.6,2.9c-1.5,2-3.1,4-4.6,5.9c-0.4,0.5-0.7,1-1.4,0.9c-0.1-1.3,1.4-1.7,1.5-2.9c2-1.6,3.2-3.9,4.8-5.9
			c0.3-0.4,0.7-0.8,0.3-1.3c-0.5-0.5-1-0.1-1.4,0.2c-2.1,1.8-4.5,3.4-6.4,5.4C6.6,18.4,6.3,18.3,5.9,18.3z M22.3,8.1
			c-1.4,0-2.5,1.1-2.5,2.5c0,1.4,1.1,2.4,2.4,2.4c1.4,0,2.5-1,2.5-2.4C24.8,9.3,23.7,8.1,22.3,8.1z M16.6,2.5c-1.4,0-2.4,1-2.5,2.4
			c0,1.4,1,2.6,2.4,2.6c1.4,0,2.5-1.1,2.5-2.5C19.1,3.6,17.9,2.5,16.6,2.5z"/>
		<path class="st302" d="M9.7,19.9c0,1.2-1.6,1.6-1.5,2.9c-0.3,1-0.9,1.6-2,1.5c0.3-0.5,0.6-1,0-1.4c-0.6-0.4-0.9,0.1-1.2,0.5
			c-1.7-0.5-1.9-0.9-1.4-2.4C4.1,23,5.5,21.8,6.5,22c0.5,0.1,0.8-0.3,0.8-0.8c0-0.5-0.2-1-0.9-0.9c-0.7,0-1.3-0.2-2-0.3
			c-0.1-1.1,0.5-1.5,1.5-1.6c0.4,0,0.7,0,1.1,0.1C8.3,18.3,8.7,19.6,9.7,19.9z"/>
	</g>
	<path class="st303" d="M4.4,19.9c0.7,0.1,1.3,0.4,2,0.3c0.6,0,0.9,0.4,0.9,0.9c0,0.5-0.3,0.9-0.8,0.8c-1-0.1-2.4,1-2.9-0.8
		C3.6,20.6,4,20.2,4.4,19.9z"/>
	<path class="st303" d="M5,23.5c0.3-0.4,0.6-0.9,1.2-0.5c0.6,0.4,0.3,0.9,0,1.4C5.5,24.5,5.2,24.1,5,23.5z"/>
</g>
</svg>
