<?xml version="1.0" encoding="utf-8"?>
<!-- Generator: Adobe Illustrator 19.2.1, SVG Export Plug-In . SVG Version: 6.00 Build 0)  -->
<svg version="1.1" id="Layer_1" xmlns="http://www.w3.org/2000/svg" xmlns:xlink="http://www.w3.org/1999/xlink" x="0px" y="0px"
	 viewBox="0 0 32 32" style="enable-background:new 0 0 32 32;" xml:space="preserve">
<style type="text/css">
	.st0{fill:#FBC747;}
</style>
<circle class="st0" cx="17.2" cy="16.4" r="11.2"/>
<title>radiology</title>
<path d="M16.4,26.3c-0.7-0.2-1.5-0.3-2.2-0.5c-0.7-0.2-1.3-0.5-1.9-0.8c1.2-2.1,2.3-4,3.5-6c1,0.5,2,0.5,3,0c1.2,2,2.3,4,3.5,6
	c-0.8,0.5-1.6,0.8-2.4,1c-0.6,0.1-1.2,0.2-1.7,0.3C17.5,26.3,17,26.3,16.4,26.3L16.4,26.3z"/>
<path d="M7.3,15.6c0.2-0.8,0.3-1.5,0.5-2.3C8.6,11,10,9.2,12.1,7.9c0,0,0.1,0,0.2-0.1c1.2,2,2.3,4,3.4,5.9c-1.1,1-1.3,1.3-1.5,2.6
	c-0.1,0-0.1,0-0.2,0c-2.2,0-4.3,0-6.5,0c-0.1,0-0.1,0-0.2,0C7.3,16.1,7.3,15.9,7.3,15.6L7.3,15.6z"/>
<path d="M27.1,16.4c-0.1,0-0.2,0-0.3,0c-2.1,0-4.2,0-6.3,0c-0.1,0-0.2,0-0.2,0c-0.2-0.5-0.3-1-0.5-1.5c-0.3-0.4-0.6-0.8-1-1.2
	c1.1-1.9,2.2-3.9,3.4-5.9c0.8,0.4,1.4,0.9,2,1.5c1.6,1.7,2.6,3.6,2.9,5.9c0,0.1,0,0.2,0.1,0.3C27.1,15.9,27.1,16.1,27.1,16.4z"/>
<path d="M19.2,16.4c0,1.1-0.9,2-2,2c-1.1,0-2-0.9-2-2c0-1.1,0.9-2,2-2C18.3,14.5,19.2,15.3,19.2,16.4z"/>
<path d="M17.2,2.5C9.6,2.5,3.4,8.7,3.4,16.4s6.2,13.9,13.9,13.9s13.9-6.2,13.9-13.9S24.9,2.5,17.2,2.5z M17.2,27.6
	c-6.2,0-11.2-5-11.2-11.2s5-11.2,11.2-11.2s11.2,5,11.2,11.2S23.4,27.6,17.2,27.6z"/>
</svg>
