<?xml version="1.0" encoding="utf-8"?>
<!-- Generator: Adobe Illustrator 19.2.1, SVG Export Plug-In . SVG Version: 6.00 Build 0)  -->
<svg version="1.1" id="Layer_1" xmlns="http://www.w3.org/2000/svg" xmlns:xlink="http://www.w3.org/1999/xlink" x="0px" y="0px"
	 viewBox="0 0 25 25" style="enable-background:new 0 0 25 25;" xml:space="preserve">
<style type="text/css">
	.st0{fill:#3977AB;}
	.st1{fill:#ECEDED;}
	.st2{fill:#6098D0;}
	.st3{fill:#B3B2B2;}
	.st4{fill:none;stroke:#5B5A5A;stroke-miterlimit:10;}
</style>
<path class="st0" d="M21.1,10.7c0,0.6,0,1.1,0,1.7c0.5-0.1,1-0.2,1.5-0.3C22.6,11.2,21.7,11,21.1,10.7z"/>
<path class="st1" d="M4.1,1.6c0-0.1,0.1-0.1,0.2-0.2c4,0,7.9,0,11.9,0c0,0,0,0,0,0c0,0.2,0,0.4,0,0.6c0,3.9,0,3.9,3.8,4
	c0.9,0,1.1,0.4,1.1,1.2c0,1.7,0,3.4,0,5.1c-2.7,1.7-5.4,3.5-8,5.2c-3.2-1.3-6.1-3.3-9-5.2C4,8.8,4,5.2,4.1,1.6z M5.4,6.8
	c0,0.1,0,0.2,0,0.3c4.8,0,9.5,0,14.3,0c0-0.1,0-0.2,0-0.3C14.9,6.8,10.1,6.8,5.4,6.8z M19.7,8.5c0-0.1,0-0.2,0-0.2
	c-4.8,0-9.5,0-14.3,0c0,0.1,0,0.2,0,0.2C10.1,8.5,14.9,8.5,19.7,8.5z M19.7,12c0-0.1,0-0.2,0-0.2c-4.8,0-9.5,0-14.3,0
	c0,0.1,0,0.2,0,0.2C10.1,12,14.9,12,19.7,12z"/>
<path class="st2" d="M4,12.4c2.9,1.9,5.8,3.9,9,5.2c2,1.8,8.3,5.9,9.6,6c-0.3,0.4-1.1,0.3-1.1,0.3s-11.9,0-17.8,0
	c-1.1,0-1.4-0.3-1.3-1.4c0.1-3.5,0.1-7,0.1-10.5c0.4,0.1,0.9,0.2,1.3,0.3C3.8,12.4,3.9,12.4,4,12.4z"/>
<path class="st3" d="M21,12.4c0-1.7,0-3.4,0-5.1c0-0.8-0.2-1.2-1.1-1.2c-3.9-0.1-3.9-0.2-3.8-4c0-0.2,0-0.4,0-0.6
	c2,1.1,3.5,2.7,5,4.4c0.6,0.8,0.2,2,0.2,3.1c0,0.8-0.1,2.9-0.1,3.2C21.2,12.3,21.1,12.3,21,12.4z"/>
<path class="st3" d="M16.1,1.5c-4,0-7.9,0-11.9,0C4.5,1.4,4.7,1.2,5,1.2c3.5,0,7,0,10.5,0C15.8,1.2,16,1.3,16.1,1.5z"/>
<path class="st3" d="M4,12.4c-0.1,0-0.2,0-0.3-0.1c0-0.6,0-1.1,0-1.7c0-2.5,0-5,0-7.5c0-0.5-0.1-1.1,0.3-1.5C4,5.2,4,8.8,4,12.4z"/>
<path class="st0" d="M3.8,10.7c0,0.6,0,1.1,0,1.7c-0.4-0.1-0.9-0.2-1.3-0.3C2.4,11.2,3.2,11,3.8,10.7z"/>
<path class="st3" d="M5.4,6.8c4.8,0,9.5,0,14.3,0c0,0.1,0,0.2,0,0.3c-4.8,0-9.5,0-14.3,0C5.4,7,5.4,6.9,5.4,6.8z"/>
<path class="st3" d="M19.7,8.5c-4.8,0-9.5,0-14.3,0c0-0.1,0-0.2,0-0.2c4.8,0,9.5,0,14.3,0C19.7,8.4,19.7,8.5,19.7,8.5z"/>
<path class="st3" d="M19.7,12c-4.8,0-9.5,0-14.3,0c0-0.1,0-0.2,0-0.2c4.8,0,9.5,0,14.3,0C19.7,11.8,19.7,11.9,19.7,12z"/>
<line class="st4" x1="5.4" y1="5" x2="15.7" y2="5"/>
<line class="st4" x1="5.4" y1="10.1" x2="19.7" y2="10.1"/>
<path class="st0" d="M22.5,23.6c-1.2,0-7.6-4.2-9.6-6c2.7-1.7,5.4-3.5,8-5.2c0.3-0.3,0.5-0.9,1.1-0.9c0.5,0.1,0.6,0.4,0.6,0.8
	C22.6,16.1,22.6,19.8,22.5,23.6z"/>
</svg>
