<?xml version="1.0" encoding="utf-8"?>
<!-- Generator: Adobe Illustrator 19.2.1, SVG Export Plug-In . SVG Version: 6.00 Build 0)  -->
<svg version="1.1" id="Layer_1" xmlns="http://www.w3.org/2000/svg" xmlns:xlink="http://www.w3.org/1999/xlink" x="0px" y="0px"
	 viewBox="0 0 25 25" style="enable-background:new 0 0 25 25;" xml:space="preserve">
<style type="text/css">
	.st0{fill:#05B3E2;}
	.st1{fill:#355560;stroke:#355560;stroke-miterlimit:10;}
	.st2{fill:#EB5454;}
</style>
<path class="st0" d="M9.5,14.2c-1.3,1.5-3.2,2.6-2.9,5c0.1,0.6-0.4,1-1.1,1.1c-0.7,0-1.2-0.3-1.4-1c-0.1-0.6,0.2-1.2,0.8-1.4
	c2.2-0.5,2.8-2.5,3.8-4.1c0.1-0.1,0.2-0.3,0.3-0.4c1.1-1.1,2.6-2,2.3-3.9c-0.1-0.5,0.3-1,0.9-1.1c0.6-0.1,1.1,0,1.3,0.5
	c0.5,1.5,1.7,1.6,3,1.9c0.1,0,0.3,0.1,0.4,0.1c1.1,0.8,2.2,1.7,3.7,1c0.7-0.3,1.2,0.2,1.4,0.9c0.2,0.6-0.1,1.1-0.6,1.3
	c-0.6,0.3-1.4,0.3-1.6-0.4c-0.6-1.7-2.2-1.8-3.6-2.2c-0.1,0-0.3-0.1-0.4-0.1c-1.9-1.9-4.8-1.2-6.1,2.4C9.7,14,9.6,14.1,9.5,14.2z"/>
<path class="st1" d="M23.9,21.9c-0.4,0.6-0.8,0.4-1.1,0.4c-6.5,0-13.1,0-19.6,0c-0.9,0-1.2-0.2-1.2-1.2c0-6,0-12,0-18.1
	c0-0.3-0.1-0.7,0.3-1c0.5,0.4,0.3,1,0.3,1.5c0,5.1,0,10.1,0,15.2c0,0.5,0,1,0,1.5c0,1.2,0.3,1.5,1.4,1.5c6.1-0.1,12.2,0,18.3,0
	C22.7,21.7,23.3,21.5,23.9,21.9z"/>
<path class="st2" d="M15.8,11.5c0.1,0,0.3,0.1,0.4,0.1c-0.1,0.8-0.8,1.3-1.2,1.9c-0.4,0.6-0.9,1-0.6,1.9c0.2,0.6-0.2,1.1-0.8,1.3
	c-0.6,0.2-1.3,0.2-1.5-0.4c-0.4-1.4-1.7-1.4-2.6-2.2c0.1-0.1,0.2-0.2,0.3-0.3c0.3,0,0.5,0.1,0.7,0.1c1.9,0.7,2.9,0.4,4.2-1.2
	C15,12.4,15.4,11.9,15.8,11.5z"/>
<path class="st2" d="M16.9,10.9c-0.1,0-0.3-0.1-0.4-0.1c0.2-0.9,1-1.5,1.5-2.3c0.5-0.8,1.3-1.4,1-2.6c-0.2-0.6,0.4-1.2,1.1-1.3
	c0.7-0.1,1.2,0.2,1.5,0.8c0.3,0.6,0.1,1.4-0.4,1.5C18.9,7.5,18.3,9.7,16.9,10.9z"/>
<path class="st2" d="M8.9,13.5c-0.1,0.1-0.2,0.3-0.3,0.4c-1.3-0.2-2.5-1.3-4.1-0.6c-0.5,0.2-1.1-0.5-1.2-1.2
	c-0.1-0.6,0.3-1.1,0.8-1.4c0.6-0.3,1.4-0.2,1.5,0.3C6.1,12.7,7.9,12.7,8.9,13.5z"/>
</svg>
