<?xml version="1.0" encoding="utf-8"?>
<!-- Generator: Adobe Illustrator 19.2.1, SVG Export Plug-In . SVG Version: 6.00 Build 0)  -->
<svg version="1.1" id="Layer_1" xmlns="http://www.w3.org/2000/svg" xmlns:xlink="http://www.w3.org/1999/xlink" x="0px" y="0px"
	 viewBox="0 0 25 25" style="enable-background:new 0 0 25 25;" xml:space="preserve">
<style type="text/css">
	.st0{fill:#7FA3A9;}
	.st1{fill:#EAEDED;}
</style>
<path class="st0" d="M15.7,23.8c-1.5-0.1-2.9-0.7-4.2-1.4c-1.5-0.9-2.9-1.7-4.3-2.8c-0.9-0.7-1.3-1.4-1-2.6c0.4-2.4,1.3-4.7,2.1-7
	c1-2.8,2.2-5.5,3.3-8.2c0.2-0.6,0.5-0.7,1-0.5c2,0.7,3.9,1.4,5.7,2.5c0.4,0.3,0.6,0.5,0.4,1c-1,2.6-2.2,5.2-3.3,7.7
	c-0.1,0.2-0.1,0.3-0.2,0.5c-0.6,1-0.4,1.7,0.4,2.7c1.1,1.2,2.2,2.5,2.7,4.2c0.4,1.2,0,2.8-0.8,3.4C17,23.7,16.4,23.7,15.7,23.8z
	 M15,3.5C15,3.5,15,3.5,15,3.5C15,3.5,15,3.5,15,3.5c0.2,0.8,0.7,1.3,1.2,1.9c0.2,0.3,0.6,0.2,0.8,0.1c0.4-0.1,0.4-0.5,0.4-0.7
	c0.1-0.3-0.2-0.4-0.4-0.5C16.4,4.1,15.8,3.7,15,3.5z M12,15.5c-1.4,0.1-2.7,0.3-3.9,0.6c-0.6,0.1-1,1-0.8,1.7
	c0.2,0.7,0.7,0.5,1.2,0.4c1.5-0.2,3-0.6,4.5-0.7c0.6,0,1.3-0.2,1.9-0.3c0.2,0,0.4,0,0.2-0.3c-0.3-0.4-0.4-1-1-1.1
	C13.5,15.7,12.7,15.4,12,15.5z M9.9,9.3c1.6-0.4,3.1-0.8,4.5-0.7c1.3,0.1,1.9-0.5,2.3-1.6c0.2-0.5,0.2-0.7-0.5-0.7
	c-1.7,0-3.4,0.3-5,0.7C11,7,10.7,7,10.6,7.3C10.4,7.9,10.2,8.5,9.9,9.3z M11.9,9.5c-0.4,0.1-0.9,0.2-1.3,0.3
	c-0.7,0.2-0.7,0.2-0.3,0.8c0.7,1,1.5,1.9,2.3,2.7c0.9,0.9,0.9,0.9,1.4-0.3c0.1-0.2,0.1-0.4,0.2-0.6c0.1-0.2,0.1-0.4-0.1-0.6
	c-0.6-0.6-1.1-1.3-1.6-2.1C12.3,9.6,12.2,9.4,11.9,9.5z M11,12.8c-0.5,0.1-1.1,0.3-1.6,0.3c-0.8,0.1-1.1,0.5-1.3,1.2
	c-0.3,1.1-0.3,1.1,0.8,0.9c1.2-0.2,2.3-0.4,3.5-0.4c0.2,0,0.4,0,0.5-0.2c0.1-0.2-0.2-0.3-0.3-0.4c-0.3-0.4-0.7-0.7-1-1
	C11.4,12.9,11.2,12.8,11,12.8z M13.4,5.9c0.6-0.2,1.2-0.1,1.7-0.2c0.2,0,0.4-0.1,0.2-0.4c-0.5-0.7-0.9-1.4-1.4-2.2
	c-0.3-0.5-1.2-0.6-1.4-0.3c-0.5,0.8-0.2,2.5,0.6,2.9C13.2,5.9,13.3,5.9,13.4,5.9z M15.6,20.1C15.6,20.1,15.6,20.1,15.6,20.1
	c0.3,0,0.6,0,1,0c0.5,0,0.5-0.2,0.3-0.5c-0.6-1.4-0.6-1.5-2.1-1.3c-1,0.1-1.1,0.2-0.9,1.3c0.1,0.4,0.3,0.5,0.7,0.5
	C15,20.1,15.3,20.1,15.6,20.1z M13.4,21.3c-0.1-0.5-0.2-1.1-0.3-1.6c-0.1-1.1-0.4-1.3-1.5-0.9c-0.2,0.1-0.3,0.2-0.4,0.4
	c-0.1,1.2,0.1,1.7,1.3,2.3c0.1,0.1,0.3,0.1,0.4,0.2C13.3,21.8,13.4,21.7,13.4,21.3z M15,20.7c-0.6-0.1-0.9,0-0.7,0.7
	c0.2,0.9,0.9,1.3,2,1c0.6-0.2,0.9-0.6,1-1.2c0-0.4-0.1-0.6-0.5-0.5C16.2,20.8,15.6,20.8,15,20.7z M14.6,11.5
	c0.3-0.7,0.6-1.3,0.9-1.9c0.1-0.2,0.2-0.4-0.2-0.4c-0.8,0-1.5,0.1-2.4,0.2C13.5,10.1,14,10.8,14.6,11.5z M9.4,10.5
	c-0.2,0.4-0.3,0.7-0.4,1c-0.1,0.3-0.5,0.7-0.2,1c0.2,0.2,0.6-0.1,1-0.1c0.2,0,0.3-0.1,0.5-0.1c0.3-0.1,0.3-0.2,0.1-0.4
	C10.1,11.4,9.8,11,9.4,10.5z M8.8,19.2c0.3,0.3,0.6,0.6,0.9,0.7c0.2,0.1,0.5,0.5,0.7,0.4c0.3-0.2,0.1-0.6,0.1-0.9
	c0-0.3-0.1-0.4-0.4-0.4C9.8,19.1,9.3,19.1,8.8,19.2z M11.7,4.9c-0.3,0.4-0.4,0.7-0.5,1.1c-0.1,0.2,0,0.3,0.2,0.3
	c0.8,0,0.9-0.2,0.5-0.9C11.9,5.2,11.8,5.1,11.7,4.9z"/>
<path class="st1" d="M12,15.5c0.7,0,1.4,0.3,2.2,0.5c0.6,0.2,0.7,0.7,1,1.1c0.1,0.2-0.1,0.2-0.2,0.3c-0.6,0.1-1.3,0.3-1.9,0.3
	c-1.5,0-3,0.5-4.5,0.7c-0.5,0.1-1,0.3-1.2-0.4c-0.2-0.8,0.2-1.6,0.8-1.7C9.4,15.8,10.6,15.5,12,15.5z"/>
<path class="st1" d="M9.9,9.3c0.3-0.7,0.5-1.4,0.8-2C10.7,7,11,7,11.2,6.9c1.7-0.3,3.3-0.6,5-0.7c0.6,0,0.6,0.2,0.5,0.7
	c-0.4,1.2-0.9,1.7-2.3,1.6C12.9,8.5,11.5,8.8,9.9,9.3z"/>
<path class="st1" d="M11.9,9.5c0.3,0,0.4,0.1,0.6,0.3c0.5,0.7,1,1.4,1.6,2.1c0.2,0.2,0.2,0.3,0.1,0.6c-0.1,0.2-0.2,0.4-0.2,0.6
	c-0.4,1.2-0.4,1.2-1.4,0.3c-0.8-0.8-1.6-1.7-2.3-2.7C9.9,10,9.9,9.9,10.6,9.8C11.1,9.7,11.5,9.6,11.9,9.5z"/>
<path class="st1" d="M11,12.8c0.3,0,0.4,0.1,0.6,0.3c0.3,0.3,0.7,0.7,1,1c0.1,0.1,0.4,0.2,0.3,0.4c-0.1,0.2-0.3,0.2-0.5,0.2
	c-1.2,0-2.3,0.2-3.5,0.4c-1.1,0.2-1.1,0.2-0.8-0.9c0.2-0.7,0.5-1.1,1.3-1.2C9.9,13.1,10.4,12.9,11,12.8z"/>
<path class="st1" d="M13.4,5.9c-0.1,0-0.2,0-0.3-0.1c-0.8-0.5-1.1-2.1-0.6-2.9c0.2-0.3,1.1-0.2,1.4,0.3c0.5,0.7,0.9,1.5,1.4,2.2
	c0.2,0.2,0,0.3-0.2,0.4C14.5,5.8,14,5.7,13.4,5.9z"/>
<path class="st1" d="M15.6,20.1c-0.3,0-0.6,0-1,0c-0.4,0-0.6-0.1-0.7-0.5c-0.2-1-0.2-1.1,0.9-1.3c1.5-0.2,1.5-0.1,2.1,1.3
	c0.1,0.4,0.1,0.6-0.3,0.5C16.3,20.1,16,20.1,15.6,20.1C15.6,20.1,15.6,20.1,15.6,20.1z"/>
<path class="st1" d="M13.4,21.3c0.1,0.4-0.1,0.5-0.4,0.3c-0.1-0.1-0.3-0.1-0.4-0.2c-1.1-0.5-1.4-1-1.3-2.3c0-0.3,0.2-0.4,0.4-0.4
	c1.1-0.3,1.3-0.2,1.5,0.9C13.2,20.3,13.3,20.8,13.4,21.3z"/>
<path class="st1" d="M15,20.7c0.6,0.1,1.2,0.1,1.8,0c0.4-0.1,0.5,0.1,0.5,0.5c-0.1,0.6-0.4,1-1,1.2c-1.1,0.3-1.8-0.1-2-1
	C14.1,20.7,14.4,20.6,15,20.7z"/>
<path class="st1" d="M14.6,11.5c-0.6-0.7-1.2-1.4-1.7-2.2c0.8-0.1,1.6-0.2,2.4-0.2c0.3,0,0.3,0.2,0.2,0.4
	C15.2,10.2,14.9,10.8,14.6,11.5z"/>
<path class="st1" d="M15,3.5c0.7,0.2,1.4,0.6,2,0.9c0.2,0.1,0.5,0.2,0.4,0.5c-0.1,0.3-0.1,0.6-0.4,0.7c-0.3,0.1-0.6,0.1-0.8-0.1
	C15.8,4.8,15.2,4.3,15,3.5L15,3.5z"/>
<path class="st1" d="M9.4,10.5c0.4,0.5,0.7,1,1,1.4c0.2,0.2,0.2,0.4-0.1,0.4c-0.2,0-0.3,0.1-0.5,0.1c-0.3,0-0.8,0.4-1,0.1
	c-0.3-0.3,0.1-0.7,0.2-1C9.1,11.2,9.3,10.9,9.4,10.5z"/>
<path class="st1" d="M8.8,19.2c0.5-0.1,0.9-0.2,1.3-0.2c0.3,0,0.4,0.1,0.4,0.4c0,0.3,0.2,0.7-0.1,0.9c-0.2,0.1-0.4-0.3-0.7-0.4
	C9.5,19.8,9.2,19.6,8.8,19.2z"/>
<path class="st1" d="M11.7,4.9c0.1,0.2,0.2,0.3,0.3,0.4c0.4,0.7,0.3,0.9-0.5,0.9c-0.2,0-0.3-0.1-0.2-0.3C11.3,5.6,11.4,5.3,11.7,4.9
	z"/>
<path class="st1" d="M15,3.5C15,3.5,15,3.5,15,3.5C15,3.5,15,3.5,15,3.5C15,3.5,15,3.5,15,3.5z"/>
</svg>
